Hahmlet-Regular.ufo
<glyph name="exclam" format="2">
  <advance width="360"/>
  <unicode hex="0021"/>
  <outline>
    <contour>
      <point x="184" y="198" type="curve"/>
      <point x="188" y="198" type="line"/>
      <point x="195" y="198"/>
      <point x="198" y="200"/>
      <point x="199" y="207" type="curve"/>
      <point x="212" y="292"/>
      <point x="224" y="384"/>
      <point x="228" y="537" type="curve" smooth="yes"/>
      <point x="233" y="712" type="line"/>
      <point x="234" y="745"/>
      <point x="231" y="748"/>
      <point x="212" y="751" type="curve"/>
      <point x="187" y="754"/>
      <point x="162" y="754"/>
      <point x="138" y="750" type="curve"/>
      <point x="131" y="749"/>
      <point x="128" y="746"/>
      <point x="128" y="739" type="curve"/>
      <point x="131" y="537" type="line" smooth="yes"/>
      <point x="133" y="400"/>
      <point x="145" y="311"/>
      <point x="157" y="233" type="curve"/>
      <point x="162" y="200"/>
      <point x="165" y="197"/>
    </contour>
    <component base="period" yOffset="-6"/>
  </outline>
</glyph>
<glyph name="numbersign" format="2">
  <advance width="698"/>
  <unicode hex="0023"/>
  <outline>
    <contour>
      <point x="475" y="726" type="curve"/>
      <point x="353" y="10" type="line"/>
      <point x="352" y="3"/>
      <point x="353" y="0"/>
      <point x="360" y="0" type="curve"/>
      <point x="392" y="0" type="line"/>
      <point x="399" y="0"/>
      <point x="402" y="2"/>
      <point x="404" y="9" type="curve"/>
      <point x="522" y="691" type="line"/>
      <point x="532" y="725" type="line"/>
      <point x="534" y="732"/>
      <point x="533" y="735"/>
      <point x="526" y="735" type="curve"/>
      <point x="487" y="735" type="line"/>
      <point x="480" y="735"/>
      <point x="477" y="733"/>
    </contour>
    <contour>
      <point x="84" y="510" type="curve"/>
      <point x="77" y="460" type="line"/>
      <point x="76" y="453"/>
      <point x="78" y="450"/>
      <point x="85" y="450" type="curve"/>
      <point x="645" y="450" type="line"/>
      <point x="652" y="450"/>
      <point x="655" y="452"/>
      <point x="657" y="459" type="curve"/>
      <point x="660" y="478"/>
      <point x="662" y="496"/>
      <point x="663" y="515" type="curve"/>
      <point x="663" y="522"/>
      <point x="661" y="525"/>
      <point x="654" y="524" type="curve"/>
      <point x="600" y="519" type="line"/>
      <point x="95" y="519" type="line"/>
      <point x="88" y="519"/>
      <point x="85" y="517"/>
    </contour>
    <contour>
      <point x="42" y="275" type="curve"/>
      <point x="36" y="224" type="line"/>
      <point x="35" y="217"/>
      <point x="37" y="214"/>
      <point x="44" y="214" type="curve"/>
      <point x="604" y="214" type="line"/>
      <point x="611" y="214"/>
      <point x="614" y="216"/>
      <point x="616" y="223" type="curve"/>
      <point x="619" y="242"/>
      <point x="621" y="261"/>
      <point x="622" y="280" type="curve"/>
      <point x="622" y="287"/>
      <point x="620" y="290"/>
      <point x="613" y="289" type="curve"/>
      <point x="559" y="284" type="line"/>
      <point x="53" y="284" type="line"/>
      <point x="46" y="284"/>
      <point x="43" y="282"/>
    </contour>
    <contour>
      <point x="279" y="726" type="curve"/>
      <point x="157" y="10" type="line"/>
      <point x="156" y="3"/>
      <point x="157" y="0"/>
      <point x="164" y="0" type="curve"/>
      <point x="196" y="0" type="line"/>
      <point x="203" y="0"/>
      <point x="206" y="2"/>
      <point x="208" y="9" type="curve"/>
      <point x="326" y="691" type="line"/>
      <point x="336" y="725" type="line"/>
      <point x="338" y="732"/>
      <point x="337" y="735"/>
      <point x="330" y="735" type="curve"/>
      <point x="291" y="735" type="line"/>
      <point x="284" y="735"/>
      <point x="281" y="733"/>
    </contour>
  </outline>
</glyph>
<glyph name="dollar" format="2">
  <advance width="687"/>
  <unicode hex="0024"/>
  <outline>
    <contour>
      <point x="363" y="416" type="curve" smooth="yes"/>
      <point x="233" y="456"/>
      <point x="191" y="490"/>
      <point x="191" y="555" type="curve" smooth="yes"/>
      <point x="191" y="630"/>
      <point x="245" y="671"/>
      <point x="346" y="671" type="curve" smooth="yes"/>
      <point x="418" y="671"/>
      <point x="465" y="654"/>
      <point x="484" y="599" type="curve" smooth="yes"/>
      <point x="506" y="534" type="line"/>
      <point x="508" y="528"/>
      <point x="511" y="525"/>
      <point x="518" y="525" type="curve"/>
      <point x="541" y="527" type="line"/>
      <point x="548" y="527"/>
      <point x="551" y="529"/>
      <point x="551" y="536" type="curve"/>
      <point x="547" y="668" type="line"/>
      <point x="547" y="675"/>
      <point x="545" y="679"/>
      <point x="540" y="683" type="curve"/>
      <point x="505" y="705"/>
      <point x="436" y="731"/>
      <point x="349" y="731" type="curve" smooth="yes"/>
      <point x="194" y="731"/>
      <point x="94" y="655"/>
      <point x="94" y="537" type="curve" smooth="yes"/>
      <point x="94" y="442"/>
      <point x="154" y="389"/>
      <point x="318" y="337" type="curve" smooth="yes"/>
      <point x="454" y="294"/>
      <point x="492" y="261"/>
      <point x="492" y="190" type="curve" smooth="yes"/>
      <point x="492" y="115"/>
      <point x="427" y="70"/>
      <point x="318" y="70" type="curve" smooth="yes"/>
      <point x="239" y="70"/>
      <point x="171" y="88"/>
      <point x="149" y="154" type="curve" smooth="yes"/>
      <point x="131" y="208" type="line"/>
      <point x="129" y="215"/>
      <point x="126" y="218"/>
      <point x="119" y="218" type="curve"/>
      <point x="102" y="217" type="line"/>
      <point x="95" y="216"/>
      <point x="92" y="214"/>
      <point x="92" y="207" type="curve"/>
      <point x="96" y="67" type="line"/>
      <point x="96" y="60"/>
      <point x="98" y="56"/>
      <point x="104" y="53" type="curve"/>
      <point x="147" y="32"/>
      <point x="230" y="10"/>
      <point x="321" y="10" type="curve" smooth="yes"/>
      <point x="486" y="10"/>
      <point x="588" y="88"/>
      <point x="588" y="215" type="curve" smooth="yes"/>
      <point x="588" y="312"/>
      <point x="528" y="365"/>
    </contour>
    <contour>
      <point x="324" y="-48" type="curve"/>
      <point x="354" y="384" type="line"/>
      <point x="302" y="386" type="line"/>
      <point x="270" y="-75" type="line"/>
      <point x="269" y="-82"/>
      <point x="272" y="-84"/>
      <point x="279" y="-84" type="curve"/>
      <point x="299" y="-84" type="line"/>
      <point x="318" y="-84"/>
      <point x="321" y="-81"/>
    </contour>
    <contour>
      <point x="342" y="822" type="curve"/>
      <point x="311" y="386" type="line"/>
      <point x="362" y="383" type="line"/>
      <point x="392" y="806" type="line"/>
      <point x="400" y="828" type="line"/>
      <point x="402" y="834"/>
      <point x="400" y="836"/>
      <point x="393" y="837" type="curve"/>
      <point x="380" y="838"/>
      <point x="367" y="837"/>
      <point x="355" y="837" type="curve"/>
      <point x="344" y="836"/>
      <point x="343" y="835"/>
    </contour>
  </outline>
</glyph>
<glyph name="ampersand" format="2">
  <advance width="804"/>
  <unicode hex="0026"/>
  <outline>
    <contour>
      <point x="674" y="-16" type="curve"/>
      <point x="697" y="-5"/>
      <point x="732" y="25"/>
      <point x="744" y="45" type="curve"/>
      <point x="747" y="51"/>
      <point x="745" y="54"/>
      <point x="738" y="56" type="curve"/>
      <point x="692" y="71" type="line"/>
      <point x="642" y="97"/>
      <point x="586" y="135"/>
      <point x="546" y="171" type="curve"/>
      <point x="308" y="396" type="line"/>
      <point x="229" y="458"/>
      <point x="190" y="517"/>
      <point x="190" y="575" type="curve" smooth="yes"/>
      <point x="190" y="647"/>
      <point x="239" y="696"/>
      <point x="310" y="696" type="curve" smooth="yes"/>
      <point x="375" y="696"/>
      <point x="417" y="654"/>
      <point x="417" y="590" type="curve" smooth="yes"/>
      <point x="417" y="513"/>
      <point x="379" y="464"/>
      <point x="265" y="396" type="curve"/>
      <point x="295" y="365" type="line"/>
      <point x="434" y="436"/>
      <point x="499" y="509"/>
      <point x="499" y="596" type="curve" smooth="yes"/>
      <point x="499" y="693"/>
      <point x="430" y="750"/>
      <point x="313" y="750" type="curve" smooth="yes"/>
      <point x="191" y="750"/>
      <point x="104" y="676"/>
      <point x="104" y="573" type="curve" smooth="yes"/>
      <point x="104" y="494"/>
      <point x="148" y="422"/>
      <point x="242" y="347" type="curve"/>
      <point x="482" y="115" type="line"/>
      <point x="531" y="67"/>
      <point x="605" y="13"/>
      <point x="657" y="-15" type="curve"/>
      <point x="663" y="-18"/>
      <point x="668" y="-18"/>
    </contour>
    <contour>
      <point x="264" y="-10" type="curve" smooth="yes"/>
      <point x="358" y="-10"/>
      <point x="449" y="32"/>
      <point x="528" y="110" type="curve"/>
      <point x="493" y="131" type="line"/>
      <point x="437" y="82"/>
      <point x="375" y="56"/>
      <point x="311" y="56" type="curve" smooth="yes"/>
      <point x="213" y="56"/>
      <point x="141" y="113"/>
      <point x="141" y="190" type="curve" smooth="yes"/>
      <point x="141" y="256"/>
      <point x="172" y="299"/>
      <point x="271" y="366" type="curve"/>
      <point x="237" y="392" type="line"/>
      <point x="103" y="323"/>
      <point x="48" y="256"/>
      <point x="48" y="163" type="curve" smooth="yes"/>
      <point x="48" y="64"/>
      <point x="141" y="-10"/>
    </contour>
    <contour>
      <point x="511" y="148" type="curve"/>
      <point x="550" y="128" type="line"/>
      <point x="608" y="189"/>
      <point x="646" y="249"/>
      <point x="665" y="314" type="curve"/>
      <point x="670" y="329"/>
      <point x="675" y="335"/>
      <point x="691" y="337" type="curve"/>
      <point x="757" y="345" type="line"/>
      <point x="764" y="346"/>
      <point x="766" y="349"/>
      <point x="766" y="356" type="curve"/>
      <point x="766" y="368" type="line"/>
      <point x="766" y="375"/>
      <point x="763" y="377"/>
      <point x="756" y="377" type="curve"/>
      <point x="487" y="377" type="line"/>
      <point x="480" y="377"/>
      <point x="478" y="374"/>
      <point x="478" y="367" type="curve"/>
      <point x="478" y="355" type="line"/>
      <point x="478" y="348"/>
      <point x="481" y="346"/>
      <point x="488" y="345" type="curve"/>
      <point x="559" y="336" type="line"/>
      <point x="575" y="335"/>
      <point x="580" y="330"/>
      <point x="580" y="314" type="curve"/>
      <point x="577" y="258"/>
      <point x="553" y="201"/>
    </contour>
  </outline>
</glyph>
<glyph name="quotesingle" format="2">
  <advance width="284"/>
  <unicode hex="0027"/>
  <outline>
    <contour>
      <point x="129" y="472" type="curve"/>
      <point x="155" y="476" type="line"/>
      <point x="162" y="478"/>
      <point x="165" y="480"/>
      <point x="166" y="487" type="curve"/>
      <point x="189" y="765" type="line"/>
      <point x="190" y="772"/>
      <point x="188" y="775"/>
      <point x="181" y="775" type="curve"/>
      <point x="154" y="775"/>
      <point x="127" y="769"/>
      <point x="104" y="763" type="curve"/>
      <point x="97" y="761"/>
      <point x="94" y="758"/>
      <point x="95" y="751" type="curve"/>
      <point x="103" y="698"/>
      <point x="115" y="571"/>
      <point x="120" y="481" type="curve"/>
      <point x="120" y="474"/>
      <point x="122" y="471"/>
    </contour>
  </outline>
</glyph>
<glyph name="parenleft" format="2">
  <advance width="412"/>
  <unicode hex="0028"/>
  <outline>
    <contour>
      <point x="360" y="-126" type="curve"/>
      <point x="370" y="-114" type="line"/>
      <point x="374" y="-108"/>
      <point x="374" y="-105"/>
      <point x="369" y="-100" type="curve"/>
      <point x="216" y="21"/>
      <point x="175" y="187"/>
      <point x="175" y="351" type="curve" smooth="yes"/>
      <point x="175" y="515"/>
      <point x="216" y="680"/>
      <point x="368" y="803" type="curve"/>
      <point x="374" y="807"/>
      <point x="375" y="811"/>
      <point x="370" y="816" type="curve"/>
      <point x="360" y="827" type="line"/>
      <point x="356" y="833"/>
      <point x="352" y="834"/>
      <point x="346" y="830" type="curve"/>
      <point x="147" y="698"/>
      <point x="88" y="524"/>
      <point x="88" y="351" type="curve" smooth="yes"/>
      <point x="88" y="177"/>
      <point x="147" y="5"/>
      <point x="346" y="-128" type="curve"/>
      <point x="351" y="-131"/>
      <point x="355" y="-131"/>
    </contour>
  </outline>
</glyph>
<glyph name="asterisk" format="2">
  <advance width="684"/>
  <unicode hex="002A"/>
  <outline>
    <contour>
      <point x="348" y="791" type="curve"/>
      <point x="320" y="565" type="line"/>
      <point x="264" y="350" type="line"/>
      <point x="263" y="343"/>
      <point x="264" y="339"/>
      <point x="270" y="336" type="curve"/>
      <point x="282" y="331"/>
      <point x="298" y="327"/>
      <point x="314" y="325" type="curve"/>
      <point x="321" y="325"/>
      <point x="324" y="327"/>
      <point x="325" y="334" type="curve"/>
      <point x="359" y="558" type="line"/>
      <point x="410" y="790" type="line"/>
      <point x="411" y="797"/>
      <point x="410" y="800"/>
      <point x="403" y="801" type="curve"/>
      <point x="388" y="803"/>
      <point x="372" y="803"/>
      <point x="359" y="801" type="curve"/>
      <point x="352" y="800"/>
      <point x="349" y="798"/>
    </contour>
    <contour>
      <point x="138" y="450" type="curve"/>
      <point x="348" y="546" type="line"/>
      <point x="563" y="623" type="line"/>
      <point x="569" y="625"/>
      <point x="572" y="628"/>
      <point x="572" y="635" type="curve"/>
      <point x="571" y="650"/>
      <point x="568" y="664"/>
      <point x="562" y="677" type="curve"/>
      <point x="558" y="683"/>
      <point x="555" y="685"/>
      <point x="549" y="682" type="curve"/>
      <point x="328" y="575" type="line"/>
      <point x="126" y="508" type="line"/>
      <point x="120" y="506"/>
      <point x="117" y="503"/>
      <point x="116" y="496" type="curve"/>
      <point x="116" y="482"/>
      <point x="118" y="468"/>
      <point x="125" y="455" type="curve"/>
      <point x="128" y="449"/>
      <point x="132" y="447"/>
    </contour>
    <contour>
      <point x="165" y="674" type="curve"/>
      <point x="325" y="547" type="line"/>
      <point x="486" y="386" type="line"/>
      <point x="491" y="381"/>
      <point x="495" y="380"/>
      <point x="501" y="383" type="curve"/>
      <point x="513" y="389"/>
      <point x="525" y="400"/>
      <point x="535" y="414" type="curve"/>
      <point x="539" y="420"/>
      <point x="539" y="423"/>
      <point x="534" y="428" type="curve"/>
      <point x="351" y="573" type="line"/>
      <point x="196" y="734" type="line"/>
      <point x="191" y="739"/>
      <point x="187" y="740"/>
      <point x="181" y="736" type="curve"/>
      <point x="175" y="732"/>
      <point x="170" y="726"/>
      <point x="165" y="720" type="curve"/>
      <point x="149" y="691"/>
      <point x="150" y="686"/>
    </contour>
  </outline>
</glyph>
<glyph name="plus" format="2">
  <advance width="670"/>
  <unicode hex="002B"/>
  <outline>
    <contour>
      <point x="39" y="310" type="curve"/>
      <point x="37" y="297"/>
      <point x="36" y="285"/>
      <point x="36" y="272" type="curve"/>
      <point x="37" y="265"/>
      <point x="39" y="262"/>
      <point x="46" y="262" type="curve"/>
      <point x="618" y="262" type="line"/>
      <point x="625" y="262"/>
      <point x="628" y="264"/>
      <point x="630" y="271" type="curve"/>
      <point x="633" y="285"/>
      <point x="634" y="298"/>
      <point x="634" y="312" type="curve"/>
      <point x="634" y="319"/>
      <point x="632" y="322"/>
      <point x="625" y="322" type="curve"/>
      <point x="547" y="319" type="line"/>
      <point x="51" y="319" type="line"/>
      <point x="44" y="319"/>
      <point x="41" y="317"/>
    </contour>
    <contour>
      <point x="366" y="12" type="curve"/>
      <point x="366" y="556" type="line"/>
      <point x="366" y="563"/>
      <point x="364" y="566"/>
      <point x="357" y="566" type="curve"/>
      <point x="340" y="566"/>
      <point x="321" y="565"/>
      <point x="307" y="562" type="curve"/>
      <point x="300" y="561"/>
      <point x="297" y="558"/>
      <point x="298" y="551" type="curve"/>
      <point x="301" y="500" type="line"/>
      <point x="301" y="9" type="line"/>
      <point x="301" y="2"/>
      <point x="303" y="-1"/>
      <point x="310" y="-2" type="curve"/>
      <point x="325" y="-2"/>
      <point x="341" y="-1"/>
      <point x="356" y="1" type="curve"/>
      <point x="363" y="2"/>
      <point x="366" y="5"/>
    </contour>
  </outline>
</glyph>
<glyph name="comma" format="2">
  <advance width="358"/>
  <unicode hex="002C"/>
  <outline>
    <contour>
      <point x="112" y="-197" type="curve"/>
      <point x="162" y="-177"/>
      <point x="240" y="-122"/>
      <point x="240" y="-11" type="curve" smooth="yes"/>
      <point x="240" y="49"/>
      <point x="215" y="106"/>
      <point x="192" y="106" type="curve" smooth="yes"/>
      <point x="166" y="106"/>
      <point x="129" y="77"/>
      <point x="114" y="55" type="curve"/>
      <point x="111" y="49"/>
      <point x="110" y="44"/>
      <point x="115" y="39" type="curve"/>
      <point x="138" y="12"/>
      <point x="163" y="-19"/>
      <point x="163" y="-65" type="curve" smooth="yes"/>
      <point x="163" y="-112"/>
      <point x="133" y="-147"/>
      <point x="100" y="-169" type="curve"/>
      <point x="94" y="-172"/>
      <point x="92" y="-176"/>
      <point x="95" y="-182" type="curve"/>
      <point x="100" y="-191" type="line"/>
      <point x="103" y="-197"/>
      <point x="106" y="-199"/>
    </contour>
  </outline>
</glyph>
<glyph name="hyphen" format="2">
  <advance width="365"/>
  <unicode hex="002D"/>
  <outline>
    <contour>
      <point x="46" y="244" type="curve"/>
      <point x="310" y="244" type="line"/>
      <point x="317" y="244"/>
      <point x="320" y="246"/>
      <point x="322" y="253" type="curve"/>
      <point x="325" y="270"/>
      <point x="326" y="286"/>
      <point x="325" y="303" type="curve"/>
      <point x="324" y="310"/>
      <point x="322" y="313"/>
      <point x="315" y="312" type="curve"/>
      <point x="254" y="308" type="line"/>
      <point x="54" y="308" type="line"/>
      <point x="47" y="308"/>
      <point x="44" y="306"/>
      <point x="43" y="299" type="curve"/>
      <point x="38" y="254" type="line"/>
      <point x="37" y="247"/>
      <point x="39" y="244"/>
    </contour>
  </outline>
</glyph>
<glyph name="period" format="2">
  <advance width="360"/>
  <unicode hex="002E"/>
  <outline>
    <contour>
      <point x="180" y="-8" type="curve" smooth="yes"/>
      <point x="217" y="-8"/>
      <point x="249" y="19"/>
      <point x="249" y="55" type="curve" smooth="yes"/>
      <point x="249" y="92"/>
      <point x="217" y="118"/>
      <point x="180" y="118" type="curve" smooth="yes"/>
      <point x="143" y="118"/>
      <point x="111" y="92"/>
      <point x="111" y="55" type="curve" smooth="yes"/>
      <point x="111" y="19"/>
      <point x="143" y="-8"/>
    </contour>
  </outline>
</glyph>
<glyph name="slash" format="2">
  <advance width="428"/>
  <unicode hex="002F"/>
  <outline>
    <contour>
      <point x="321" y="748" type="curve"/>
      <point x="309" y="710" type="line"/>
      <point x="43" y="1" type="line"/>
      <point x="31" y="-30"/>
      <point x="33" y="-34"/>
      <point x="52" y="-37" type="curve"/>
      <point x="66" y="-39"/>
      <point x="80" y="-40"/>
      <point x="94" y="-41" type="curve"/>
      <point x="101" y="-41"/>
      <point x="105" y="-39"/>
      <point x="107" y="-32" type="curve"/>
      <point x="119" y="5" type="line"/>
      <point x="385" y="716" type="line"/>
      <point x="397" y="747"/>
      <point x="395" y="750"/>
      <point x="376" y="753" type="curve"/>
      <point x="362" y="755"/>
      <point x="347" y="756"/>
      <point x="334" y="757" type="curve"/>
      <point x="327" y="757"/>
      <point x="323" y="755"/>
    </contour>
  </outline>
</glyph>
<glyph name="zero" format="2">
  <advance width="681"/>
  <unicode hex="0030"/>
  <outline>
    <contour>
      <point x="338" y="-8" type="curve" smooth="yes"/>
      <point x="515" y="-8"/>
      <point x="621" y="132"/>
      <point x="621" y="364" type="curve" smooth="yes"/>
      <point x="621" y="597"/>
      <point x="515" y="737"/>
      <point x="338" y="737" type="curve" smooth="yes"/>
      <point x="165" y="737"/>
      <point x="60" y="596"/>
      <point x="60" y="364" type="curve" smooth="yes"/>
      <point x="60" y="133"/>
      <point x="166" y="-8"/>
    </contour>
    <contour>
      <point x="336" y="54" type="curve" smooth="yes"/>
      <point x="223" y="54"/>
      <point x="160" y="165"/>
      <point x="160" y="364" type="curve" smooth="yes"/>
      <point x="160" y="565"/>
      <point x="222" y="675"/>
      <point x="336" y="675" type="curve" smooth="yes"/>
      <point x="455" y="675"/>
      <point x="521" y="564"/>
      <point x="521" y="364" type="curve" smooth="yes"/>
      <point x="521" y="165"/>
      <point x="455" y="54"/>
    </contour>
  </outline>
</glyph>
<glyph name="one" format="2">
  <advance width="496"/>
  <unicode hex="0031"/>
  <outline>
    <contour>
      <point x="455" y="33" type="curve"/>
      <point x="333" y="45" type="line"/>
      <point x="314" y="47"/>
      <point x="312" y="49"/>
      <point x="312" y="67" type="curve"/>
      <point x="312" y="724" type="line"/>
      <point x="312" y="741"/>
      <point x="306" y="743"/>
      <point x="288" y="736" type="curve"/>
      <point x="60" y="640" type="line"/>
      <point x="54" y="637"/>
      <point x="51" y="634"/>
      <point x="53" y="627" type="curve"/>
      <point x="55" y="612" type="line"/>
      <point x="56" y="605"/>
      <point x="59" y="602"/>
      <point x="66" y="604" type="curve"/>
      <point x="264" y="639" type="line"/>
      <point x="220" y="672" type="line"/>
      <point x="220" y="68" type="line"/>
      <point x="220" y="49"/>
      <point x="218" y="47"/>
      <point x="200" y="45" type="curve"/>
      <point x="93" y="33" type="line"/>
      <point x="86" y="32"/>
      <point x="83" y="30"/>
      <point x="83" y="23" type="curve"/>
      <point x="83" y="10" type="line"/>
      <point x="83" y="3"/>
      <point x="85" y="0"/>
      <point x="92" y="0" type="curve"/>
      <point x="454" y="0" type="line"/>
      <point x="461" y="0"/>
      <point x="464" y="2"/>
      <point x="464" y="9" type="curve"/>
      <point x="464" y="22" type="line"/>
      <point x="464" y="29"/>
      <point x="462" y="32"/>
    </contour>
  </outline>
</glyph>
<glyph name="two" format="2">
  <advance width="605"/>
  <unicode hex="0032"/>
  <outline>
    <contour>
      <point x="46" y="0" type="curve"/>
      <point x="445" y="0" type="line"/>
      <point x="517" y="-5" type="line"/>
      <point x="524" y="-6"/>
      <point x="527" y="-4"/>
      <point x="528" y="3" type="curve"/>
      <point x="552" y="184" type="line"/>
      <point x="553" y="191"/>
      <point x="551" y="194"/>
      <point x="544" y="195" type="curve"/>
      <point x="533" y="197" type="line"/>
      <point x="526" y="199"/>
      <point x="522" y="197"/>
      <point x="519" y="191" type="curve"/>
      <point x="477" y="104" type="line"/>
      <point x="469" y="88"/>
      <point x="460" y="82"/>
      <point x="444" y="82" type="curve"/>
      <point x="117" y="82" type="line"/>
      <point x="115" y="33" type="line"/>
      <point x="454" y="360"/>
      <point x="497" y="419"/>
      <point x="497" y="534" type="curve" smooth="yes"/>
      <point x="497" y="658"/>
      <point x="410" y="738"/>
      <point x="273" y="738" type="curve" smooth="yes"/>
      <point x="150" y="738"/>
      <point x="62" y="672"/>
      <point x="39" y="562" type="curve"/>
      <point x="38" y="555"/>
      <point x="39" y="551"/>
      <point x="46" y="550" type="curve"/>
      <point x="64" y="545" type="line"/>
      <point x="71" y="543"/>
      <point x="75" y="544"/>
      <point x="77" y="550" type="curve"/>
      <point x="110" y="625"/>
      <point x="162" y="660"/>
      <point x="240" y="660" type="curve" smooth="yes"/>
      <point x="337" y="660"/>
      <point x="395" y="605"/>
      <point x="395" y="511" type="curve" smooth="yes"/>
      <point x="395" y="422"/>
      <point x="346" y="347"/>
      <point x="137" y="127" type="curve"/>
      <point x="110" y="98"/>
      <point x="95" y="84"/>
      <point x="65" y="56" type="curve"/>
      <point x="39" y="32" type="line"/>
      <point x="34" y="27"/>
      <point x="32" y="23"/>
      <point x="34" y="16" type="curve"/>
      <point x="35" y="10" type="line"/>
      <point x="36" y="3"/>
      <point x="39" y="0"/>
    </contour>
  </outline>
</glyph>
<glyph name="three" format="2">
  <advance width="580"/>
  <unicode hex="0033"/>
  <outline>
    <contour>
      <point x="268" y="-8" type="curve" smooth="yes"/>
      <point x="422" y="-8"/>
      <point x="519" y="68"/>
      <point x="519" y="190" type="curve" smooth="yes"/>
      <point x="519" y="315"/>
      <point x="416" y="388"/>
      <point x="241" y="388" type="curve"/>
      <point x="241" y="363" type="line"/>
      <point x="394" y="363"/>
      <point x="496" y="439"/>
      <point x="496" y="553" type="curve" smooth="yes"/>
      <point x="496" y="664"/>
      <point x="407" y="738"/>
      <point x="274" y="738" type="curve" smooth="yes"/>
      <point x="159" y="738"/>
      <point x="73" y="668"/>
      <point x="55" y="562" type="curve"/>
      <point x="53" y="555"/>
      <point x="55" y="551"/>
      <point x="62" y="550" type="curve"/>
      <point x="79" y="545" type="line"/>
      <point x="86" y="543"/>
      <point x="90" y="544"/>
      <point x="92" y="550" type="curve"/>
      <point x="120" y="622"/>
      <point x="175" y="660"/>
      <point x="249" y="660" type="curve" smooth="yes"/>
      <point x="341" y="660"/>
      <point x="396" y="615"/>
      <point x="396" y="539" type="curve" smooth="yes"/>
      <point x="396" y="462"/>
      <point x="337" y="410"/>
      <point x="232" y="396" type="curve" smooth="yes"/>
      <point x="197" y="391" type="line"/>
      <point x="190" y="390"/>
      <point x="187" y="388"/>
      <point x="186" y="381" type="curve"/>
      <point x="181" y="351" type="line"/>
      <point x="180" y="344"/>
      <point x="182" y="341"/>
      <point x="189" y="342" type="curve"/>
      <point x="232" y="345" type="line" smooth="yes"/>
      <point x="346" y="354"/>
      <point x="418" y="293"/>
      <point x="418" y="188" type="curve" smooth="yes"/>
      <point x="418" y="95"/>
      <point x="363" y="44"/>
      <point x="264" y="44" type="curve" smooth="yes"/>
      <point x="116" y="44"/>
      <point x="151" y="167"/>
      <point x="79" y="167" type="curve" smooth="yes"/>
      <point x="54" y="167"/>
      <point x="38" y="150"/>
      <point x="38" y="124" type="curve" smooth="yes"/>
      <point x="38" y="49"/>
      <point x="137" y="-8"/>
    </contour>
  </outline>
</glyph>
<glyph name="four" format="2">
  <advance width="638"/>
  <unicode hex="0034"/>
  <outline>
    <contour>
      <point x="245" y="0" type="curve"/>
      <point x="577" y="0" type="line"/>
      <point x="584" y="0"/>
      <point x="587" y="2"/>
      <point x="587" y="9" type="curve"/>
      <point x="587" y="22" type="line"/>
      <point x="587" y="29"/>
      <point x="585" y="32"/>
      <point x="578" y="33" type="curve"/>
      <point x="476" y="45" type="line"/>
      <point x="457" y="47"/>
      <point x="455" y="49"/>
      <point x="455" y="67" type="curve"/>
      <point x="455" y="611" type="line"/>
      <point x="455" y="628"/>
      <point x="455" y="641"/>
      <point x="457" y="657" type="curve"/>
      <point x="462" y="721" type="line"/>
      <point x="463" y="728"/>
      <point x="461" y="731"/>
      <point x="454" y="733" type="curve"/>
      <point x="439" y="737" type="line"/>
      <point x="432" y="738"/>
      <point x="428" y="737"/>
      <point x="423" y="732" type="curve"/>
      <point x="38" y="247" type="line"/>
      <point x="34" y="241"/>
      <point x="32" y="237"/>
      <point x="32" y="230" type="curve"/>
      <point x="32" y="216" type="line"/>
      <point x="32" y="209"/>
      <point x="34" y="206"/>
      <point x="41" y="206" type="curve"/>
      <point x="576" y="206" type="line"/>
      <point x="583" y="206"/>
      <point x="586" y="208"/>
      <point x="587" y="215" type="curve"/>
      <point x="590" y="237"/>
      <point x="591" y="257"/>
      <point x="591" y="278" type="curve"/>
      <point x="591" y="291"/>
      <point x="590" y="292"/>
      <point x="577" y="289" type="curve"/>
      <point x="519" y="277" type="line"/>
      <point x="73" y="277" type="line"/>
      <point x="96" y="242" type="line"/>
      <point x="405" y="633" type="line"/>
      <point x="361" y="611" type="line"/>
      <point x="361" y="68" type="line"/>
      <point x="361" y="49"/>
      <point x="359" y="47"/>
      <point x="341" y="45" type="curve"/>
      <point x="246" y="33" type="line"/>
      <point x="239" y="32"/>
      <point x="236" y="30"/>
      <point x="236" y="23" type="curve"/>
      <point x="236" y="10" type="line"/>
      <point x="236" y="3"/>
      <point x="238" y="0"/>
    </contour>
  </outline>
</glyph>
<glyph name="five" format="2">
  <advance width="614"/>
  <unicode hex="0035"/>
  <outline>
    <contour>
      <point x="282" y="-8" type="curve" smooth="yes"/>
      <point x="439" y="-8"/>
      <point x="537" y="75"/>
      <point x="537" y="210" type="curve" smooth="yes"/>
      <point x="537" y="355"/>
      <point x="424" y="435"/>
      <point x="219" y="435" type="curve" smooth="yes"/>
      <point x="194" y="435"/>
      <point x="164" y="434"/>
      <point x="136" y="432" type="curve"/>
      <point x="165" y="395" type="line"/>
      <point x="202" y="672" type="line"/>
      <point x="146" y="633" type="line"/>
      <point x="494" y="633" type="line"/>
      <point x="501" y="633"/>
      <point x="505" y="635"/>
      <point x="509" y="641" type="curve"/>
      <point x="520" y="660"/>
      <point x="528" y="688"/>
      <point x="532" y="720" type="curve"/>
      <point x="533" y="733"/>
      <point x="532" y="734"/>
      <point x="519" y="732" type="curve"/>
      <point x="434" y="721" type="line"/>
      <point x="158" y="718" type="line"/>
      <point x="151" y="718"/>
      <point x="148" y="716"/>
      <point x="147" y="709" type="curve"/>
      <point x="105" y="380" type="line"/>
      <point x="104" y="373"/>
      <point x="106" y="370"/>
      <point x="113" y="370" type="curve"/>
      <point x="128" y="371"/>
      <point x="143" y="371"/>
      <point x="167" y="371" type="curve" smooth="yes"/>
      <point x="344" y="371"/>
      <point x="436" y="312"/>
      <point x="436" y="198" type="curve" smooth="yes"/>
      <point x="436" y="101"/>
      <point x="379" y="45"/>
      <point x="280" y="45" type="curve" smooth="yes"/>
      <point x="134" y="45"/>
      <point x="170" y="167"/>
      <point x="99" y="167" type="curve" smooth="yes"/>
      <point x="72" y="167"/>
      <point x="58" y="149"/>
      <point x="58" y="126" type="curve" smooth="yes"/>
      <point x="58" y="55"/>
      <point x="145" y="-8"/>
    </contour>
  </outline>
</glyph>
<glyph name="six" format="2">
  <advance width="640"/>
  <unicode hex="0036"/>
  <outline>
    <contour>
      <point x="326" y="-11" type="curve" smooth="yes"/>
      <point x="477" y="-11"/>
      <point x="586" y="90"/>
      <point x="586" y="231" type="curve" smooth="yes"/>
      <point x="586" y="362"/>
      <point x="494" y="452"/>
      <point x="359" y="452" type="curve" smooth="yes"/>
      <point x="257" y="452"/>
      <point x="173" y="408"/>
      <point x="124" y="329" type="curve"/>
      <point x="130" y="303" type="line"/>
      <point x="183" y="359"/>
      <point x="242" y="385"/>
      <point x="312" y="385" type="curve" smooth="yes"/>
      <point x="423" y="385"/>
      <point x="486" y="324"/>
      <point x="486" y="219" type="curve" smooth="yes"/>
      <point x="486" y="116"/>
      <point x="424" y="52"/>
      <point x="330" y="52" type="curve" smooth="yes"/>
      <point x="216" y="52"/>
      <point x="158" y="147"/>
      <point x="158" y="322" type="curve" smooth="yes"/>
      <point x="158" y="533"/>
      <point x="294" y="673"/>
      <point x="521" y="698" type="curve"/>
      <point x="528" y="699"/>
      <point x="531" y="701"/>
      <point x="530" y="708" type="curve"/>
      <point x="527" y="726" type="line"/>
      <point x="525" y="733"/>
      <point x="523" y="736"/>
      <point x="516" y="736" type="curve"/>
      <point x="238" y="748"/>
      <point x="60" y="578"/>
      <point x="60" y="300" type="curve" smooth="yes"/>
      <point x="60" y="106"/>
      <point x="160" y="-11"/>
    </contour>
  </outline>
</glyph>
<glyph name="seven" format="2">
  <advance width="596"/>
  <unicode hex="0037"/>
  <outline>
    <contour>
      <point x="254" y="5" type="curve"/>
      <point x="311" y="171" type="line"/>
      <point x="563" y="693" type="line"/>
      <point x="566" y="699"/>
      <point x="567" y="704"/>
      <point x="565" y="711" type="curve"/>
      <point x="564" y="717" type="line"/>
      <point x="563" y="724"/>
      <point x="560" y="727"/>
      <point x="553" y="727" type="curve"/>
      <point x="152" y="727" type="line"/>
      <point x="99" y="734" type="line"/>
      <point x="79" y="737"/>
      <point x="78" y="736"/>
      <point x="75" y="716" type="curve"/>
      <point x="47" y="539" type="line"/>
      <point x="45" y="532"/>
      <point x="47" y="529"/>
      <point x="54" y="528" type="curve"/>
      <point x="66" y="528" type="line"/>
      <point x="73" y="527"/>
      <point x="77" y="529"/>
      <point x="80" y="535" type="curve"/>
      <point x="118" y="622" type="line"/>
      <point x="125" y="638"/>
      <point x="134" y="644"/>
      <point x="150" y="644" type="curve"/>
      <point x="514" y="650" type="line"/>
      <point x="510" y="698" type="line"/>
      <point x="142" y="42" type="line"/>
      <point x="125" y="14"/>
      <point x="127" y="10"/>
      <point x="145" y="4" type="curve"/>
      <point x="172" y="-3"/>
      <point x="208" y="-5"/>
      <point x="241" y="-4" type="curve"/>
      <point x="248" y="-4"/>
      <point x="252" y="-2"/>
    </contour>
  </outline>
</glyph>
<glyph name="eight" format="2">
  <advance width="641"/>
  <unicode hex="0038"/>
  <outline>
    <contour>
      <point x="350" y="407" type="curve" smooth="yes"/>
      <point x="275" y="443"/>
      <point x="192" y="485"/>
      <point x="192" y="565" type="curve" smooth="yes"/>
      <point x="192" y="633"/>
      <point x="251" y="679"/>
      <point x="334" y="679" type="curve" smooth="yes"/>
      <point x="411" y="679"/>
      <point x="464" y="634"/>
      <point x="464" y="567" type="curve" smooth="yes"/>
      <point x="464" y="481"/>
      <point x="377" y="428"/>
      <point x="325" y="397" type="curve"/>
      <point x="372" y="375" type="line"/>
      <point x="444" y="411"/>
      <point x="545" y="466"/>
      <point x="545" y="572" type="curve" smooth="yes"/>
      <point x="545" y="672"/>
      <point x="460" y="738"/>
      <point x="333" y="738" type="curve" smooth="yes"/>
      <point x="200" y="738"/>
      <point x="107" y="665"/>
      <point x="107" y="557" type="curve" smooth="yes"/>
      <point x="107" y="441"/>
      <point x="216" y="377"/>
      <point x="311" y="333" type="curve" smooth="yes"/>
      <point x="430" y="278"/>
      <point x="487" y="245"/>
      <point x="487" y="168" type="curve" smooth="yes"/>
      <point x="487" y="97"/>
      <point x="423" y="50"/>
      <point x="327" y="50" type="curve" smooth="yes"/>
      <point x="234" y="50"/>
      <point x="166" y="101"/>
      <point x="166" y="175" type="curve" smooth="yes"/>
      <point x="166" y="269"/>
      <point x="272" y="320"/>
      <point x="335" y="349" type="curve"/>
      <point x="281" y="371" type="line"/>
      <point x="204" y="341"/>
      <point x="81" y="278"/>
      <point x="81" y="164" type="curve" smooth="yes"/>
      <point x="81" y="62"/>
      <point x="179" y="-8"/>
      <point x="319" y="-8" type="curve" smooth="yes"/>
      <point x="472" y="-8"/>
      <point x="575" y="68"/>
      <point x="575" y="186" type="curve" smooth="yes"/>
      <point x="575" y="296"/>
      <point x="487" y="341"/>
    </contour>
  </outline>
</glyph>
<glyph name="nine" format="2">
  <advance width="640"/>
  <unicode hex="0039"/>
  <outline>
    <contour>
      <point x="136" y="-10" type="curve"/>
      <point x="425" y="-21"/>
      <point x="580" y="124"/>
      <point x="580" y="407" type="curve" smooth="yes"/>
      <point x="580" y="612"/>
      <point x="478" y="737"/>
      <point x="310" y="737" type="curve" smooth="yes"/>
      <point x="160" y="737"/>
      <point x="54" y="638"/>
      <point x="54" y="499" type="curve" smooth="yes"/>
      <point x="54" y="360"/>
      <point x="149" y="263"/>
      <point x="285" y="263" type="curve" smooth="yes"/>
      <point x="381" y="263"/>
      <point x="457" y="305"/>
      <point x="508" y="386" type="curve"/>
      <point x="498" y="412" type="line"/>
      <point x="443" y="355"/>
      <point x="387" y="329"/>
      <point x="318" y="329" type="curve" smooth="yes"/>
      <point x="213" y="329"/>
      <point x="151" y="395"/>
      <point x="151" y="507" type="curve" smooth="yes"/>
      <point x="151" y="610"/>
      <point x="211" y="675"/>
      <point x="306" y="675" type="curve" smooth="yes"/>
      <point x="422" y="675"/>
      <point x="482" y="577"/>
      <point x="482" y="385" type="curve" smooth="yes"/>
      <point x="482" y="168"/>
      <point x="365" y="49"/>
      <point x="131" y="28" type="curve"/>
      <point x="124" y="27"/>
      <point x="121" y="25"/>
      <point x="122" y="18" type="curve"/>
      <point x="125" y="0" type="line"/>
      <point x="127" y="-7"/>
      <point x="129" y="-10"/>
    </contour>
  </outline>
</glyph>
<glyph name="greater" format="2">
  <advance width="670"/>
  <unicode hex="003E"/>
  <outline>
    <contour>
      <point x="75" y="1" type="curve"/>
      <point x="75" y="18"/>
      <point x="76" y="38"/>
      <point x="79" y="54" type="curve"/>
      <point x="80" y="61"/>
      <point x="83" y="65"/>
      <point x="89" y="68" type="curve"/>
      <point x="518" y="286" type="line"/>
      <point x="83" y="504" type="line"/>
      <point x="77" y="507"/>
      <point x="75" y="511"/>
      <point x="75" y="518" type="curve"/>
      <point x="75" y="535"/>
      <point x="76" y="550"/>
      <point x="79" y="567" type="curve"/>
      <point x="80" y="574"/>
      <point x="83" y="576"/>
      <point x="89" y="573" type="curve"/>
      <point x="596" y="314" type="line"/>
      <point x="602" y="311"/>
      <point x="604" y="307"/>
      <point x="604" y="300" type="curve"/>
      <point x="604" y="272" type="line"/>
      <point x="604" y="265"/>
      <point x="602" y="261"/>
      <point x="596" y="258" type="curve"/>
      <point x="83" y="-5" type="line"/>
      <point x="77" y="-8"/>
      <point x="75" y="-6"/>
    </contour>
  </outline>
</glyph>
<glyph name="question" format="2">
  <advance width="555"/>
  <unicode hex="003F"/>
  <outline>
    <contour>
      <point x="195" y="222" type="curve"/>
      <point x="211" y="225" type="line"/>
      <point x="218" y="226"/>
      <point x="221" y="228"/>
      <point x="219" y="235" type="curve"/>
      <point x="198" y="337"/>
      <point x="203" y="356"/>
      <point x="312" y="386" type="curve" smooth="yes"/>
      <point x="411" y="415"/>
      <point x="447" y="448"/>
      <point x="447" y="523" type="curve" smooth="yes"/>
      <point x="447" y="631"/>
      <point x="350" y="738"/>
      <point x="125" y="756" type="curve"/>
      <point x="118" y="757"/>
      <point x="114" y="755"/>
      <point x="109" y="750" type="curve"/>
      <point x="94" y="729"/>
      <point x="87" y="700"/>
      <point x="85" y="674" type="curve"/>
      <point x="84" y="667"/>
      <point x="86" y="664"/>
      <point x="93" y="663" type="curve"/>
      <point x="311" y="648"/>
      <point x="375" y="584"/>
      <point x="375" y="519" type="curve" smooth="yes"/>
      <point x="375" y="485"/>
      <point x="349" y="471"/>
      <point x="268" y="452" type="curve" smooth="yes"/>
      <point x="157" y="428"/>
      <point x="131" y="395"/>
      <point x="131" y="339" type="curve" smooth="yes"/>
      <point x="131" y="306"/>
      <point x="147" y="272"/>
      <point x="180" y="229" type="curve"/>
      <point x="184" y="223"/>
      <point x="188" y="221"/>
    </contour>
    <component base="period" xOffset="19"/>
  </outline>
</glyph>
<glyph name="at" format="2">
  <advance width="1180"/>
  <unicode hex="0040"/>
  <outline>
    <contour>
      <point x="632" y="-182" type="curve" smooth="yes"/>
      <point x="784" y="-182"/>
      <point x="939" y="-150"/>
      <point x="1069" y="-89" type="curve"/>
      <point x="1075" y="-86"/>
      <point x="1077" y="-83"/>
      <point x="1074" y="-77" type="curve"/>
      <point x="1067" y="-60" type="line"/>
      <point x="1064" y="-54"/>
      <point x="1061" y="-52"/>
      <point x="1054" y="-54" type="curve"/>
      <point x="905" y="-100"/>
      <point x="786" y="-119"/>
      <point x="642" y="-119" type="curve" smooth="yes"/>
      <point x="372" y="-119"/>
      <point x="201" y="23"/>
      <point x="201" y="267" type="curve" smooth="yes"/>
      <point x="201" y="508"/>
      <point x="369" y="709"/>
      <point x="660" y="709" type="curve" smooth="yes"/>
      <point x="898" y="709"/>
      <point x="1032" y="591"/>
      <point x="1032" y="391" type="curve" smooth="yes"/>
      <point x="1032" y="226"/>
      <point x="938" y="102"/>
      <point x="837" y="102" type="curve" smooth="yes"/>
      <point x="816" y="102"/>
      <point x="811" y="114"/>
      <point x="815" y="152" type="curve" smooth="yes"/>
      <point x="852" y="528" type="line"/>
      <point x="853" y="535"/>
      <point x="851" y="538"/>
      <point x="844" y="539" type="curve"/>
      <point x="821" y="543" type="line"/>
      <point x="814" y="544"/>
      <point x="810" y="542"/>
      <point x="806" y="537" type="curve"/>
      <point x="748" y="458" type="line"/>
      <point x="716" y="124" type="line" smooth="yes"/>
      <point x="710" y="66"/>
      <point x="742" y="37"/>
      <point x="809" y="37" type="curve" smooth="yes"/>
      <point x="970" y="37"/>
      <point x="1122" y="208"/>
      <point x="1122" y="401" type="curve" smooth="yes"/>
      <point x="1122" y="624"/>
      <point x="947" y="774"/>
      <point x="675" y="774" type="curve" smooth="yes"/>
      <point x="344" y="774"/>
      <point x="106" y="557"/>
      <point x="106" y="247" type="curve" smooth="yes"/>
      <point x="106" y="-22"/>
      <point x="301" y="-182"/>
    </contour>
    <contour>
      <point x="550" y="37" type="curve" smooth="yes"/>
      <point x="615" y="37"/>
      <point x="686" y="79"/>
      <point x="737" y="147" type="curve"/>
      <point x="728" y="175" type="line"/>
      <point x="682" y="131"/>
      <point x="631" y="106"/>
      <point x="587" y="106" type="curve" smooth="yes"/>
      <point x="511" y="106"/>
      <point x="468" y="161"/>
      <point x="468" y="259" type="curve" smooth="yes"/>
      <point x="468" y="392"/>
      <point x="537" y="485"/>
      <point x="634" y="485" type="curve" smooth="yes"/>
      <point x="697" y="485"/>
      <point x="743" y="467"/>
      <point x="773" y="431" type="curve"/>
      <point x="800" y="458" type="line"/>
      <point x="753" y="516"/>
      <point x="691" y="545"/>
      <point x="616" y="545" type="curve" smooth="yes"/>
      <point x="473" y="545"/>
      <point x="375" y="426"/>
      <point x="375" y="252" type="curve" smooth="yes"/>
      <point x="375" y="116"/>
      <point x="439" y="37"/>
    </contour>
  </outline>
</glyph>
<glyph name="A" format="2">
  <advance width="834"/>
  <unicode hex="0041"/>
  <anchor x="417" y="0" name="bottom"/>
  <anchor x="700" y="0" name="ogonek"/>
  <anchor x="409" y="667" name="ring"/>
  <anchor x="417" y="742" name="top"/>
  <outline>
    <contour>
      <point x="19" y="0" type="curve"/>
      <point x="298" y="0" type="line"/>
      <point x="305" y="0"/>
      <point x="308" y="2"/>
      <point x="308" y="9" type="curve"/>
      <point x="308" y="22" type="line"/>
      <point x="308" y="29"/>
      <point x="306" y="32"/>
      <point x="299" y="33" type="curve"/>
      <point x="224" y="45" type="line"/>
      <point x="185" y="51"/>
      <point x="177" y="61"/>
      <point x="192" y="100" type="curve"/>
      <point x="425" y="692" type="line"/>
      <point x="365" y="657" type="line"/>
      <point x="602" y="100" type="line"/>
      <point x="618" y="63"/>
      <point x="613" y="52"/>
      <point x="573" y="45" type="curve"/>
      <point x="499" y="34" type="line"/>
      <point x="492" y="32"/>
      <point x="489" y="30"/>
      <point x="489" y="23" type="curve"/>
      <point x="489" y="10" type="line"/>
      <point x="489" y="3"/>
      <point x="491" y="0"/>
      <point x="498" y="0" type="curve"/>
      <point x="812" y="0" type="line"/>
      <point x="819" y="0"/>
      <point x="822" y="2"/>
      <point x="822" y="9" type="curve"/>
      <point x="822" y="22" type="line"/>
      <point x="822" y="29"/>
      <point x="820" y="32"/>
      <point x="813" y="34" type="curve"/>
      <point x="758" y="47" type="line"/>
      <point x="742" y="51"/>
      <point x="733" y="58"/>
      <point x="726" y="73" type="curve"/>
      <point x="456" y="692" type="line"/>
      <point x="445" y="741" type="line"/>
      <point x="444" y="748"/>
      <point x="441" y="751"/>
      <point x="434" y="749" type="curve"/>
      <point x="392" y="740" type="line"/>
      <point x="385" y="739"/>
      <point x="381" y="736"/>
      <point x="379" y="730" type="curve"/>
      <point x="112" y="75" type="line"/>
      <point x="106" y="59"/>
      <point x="97" y="52"/>
      <point x="82" y="48" type="curve"/>
      <point x="20" y="34" type="line"/>
      <point x="13" y="33"/>
      <point x="10" y="30"/>
      <point x="10" y="23" type="curve"/>
      <point x="10" y="10" type="line"/>
      <point x="10" y="3"/>
      <point x="12" y="0"/>
    </contour>
    <contour>
      <point x="233" y="313" type="curve"/>
      <point x="233" y="256" type="line"/>
      <point x="351" y="252"/>
      <point x="469" y="253"/>
      <point x="586" y="258" type="curve"/>
      <point x="586" y="315" type="line"/>
      <point x="469" y="309"/>
      <point x="351" y="308"/>
    </contour>
  </outline>
</glyph>
<glyph name="B" format="2">
  <advance width="738"/>
  <unicode hex="0042"/>
  <anchor x="369" y="0" name="bottom"/>
  <anchor x="369" y="742" name="top"/>
  <outline>
    <contour>
      <point x="151" y="0" type="line"/>
      <point x="383" y="0" type="line" smooth="yes"/>
      <point x="587" y="0"/>
      <point x="686" y="66"/>
      <point x="686" y="202" type="curve" smooth="yes"/>
      <point x="686" y="337"/>
      <point x="532" y="389"/>
      <point x="458" y="389" type="curve"/>
      <point x="458" y="379" type="line"/>
      <point x="524" y="379"/>
      <point x="631" y="441"/>
      <point x="631" y="560" type="curve" smooth="yes"/>
      <point x="631" y="685"/>
      <point x="553" y="742"/>
      <point x="383" y="742" type="curve" smooth="yes"/>
      <point x="249" y="742" type="line"/>
      <point x="249" y="686" type="line"/>
      <point x="383" y="686" type="line" smooth="yes"/>
      <point x="484" y="686"/>
      <point x="531" y="645"/>
      <point x="531" y="557" type="curve" smooth="yes"/>
      <point x="531" y="453"/>
      <point x="481" y="407"/>
      <point x="368" y="407" type="curve" smooth="yes"/>
      <point x="249" y="407" type="line"/>
      <point x="249" y="351" type="line"/>
      <point x="368" y="351" type="line" smooth="yes"/>
      <point x="513" y="351"/>
      <point x="579" y="306"/>
      <point x="579" y="206" type="curve" smooth="yes"/>
      <point x="579" y="104"/>
      <point x="516" y="56"/>
      <point x="383" y="56" type="curve" smooth="yes"/>
      <point x="273" y="56" type="line"/>
      <point x="256" y="56"/>
      <point x="249" y="62"/>
      <point x="249" y="78" type="curve"/>
      <point x="249" y="742" type="line"/>
      <point x="151" y="742" type="line"/>
    </contour>
    <contour>
      <point x="44" y="0" type="curve"/>
      <point x="249" y="0" type="line"/>
      <point x="249" y="215" type="line"/>
      <point x="151" y="215" type="line"/>
      <point x="151" y="74" type="line"/>
      <point x="151" y="58"/>
      <point x="147" y="52"/>
      <point x="131" y="49" type="curve"/>
      <point x="45" y="34" type="line"/>
      <point x="38" y="33"/>
      <point x="35" y="30"/>
      <point x="35" y="23" type="curve"/>
      <point x="35" y="10" type="line"/>
      <point x="35" y="3"/>
      <point x="37" y="0"/>
    </contour>
    <contour>
      <point x="35" y="732" type="curve"/>
      <point x="35" y="719" type="line"/>
      <point x="35" y="712"/>
      <point x="38" y="709"/>
      <point x="45" y="708" type="curve"/>
      <point x="131" y="693" type="line"/>
      <point x="147" y="690"/>
      <point x="151" y="684"/>
      <point x="151" y="668" type="curve"/>
      <point x="151" y="527" type="line"/>
      <point x="249" y="527" type="line"/>
      <point x="249" y="742" type="line"/>
      <point x="44" y="742" type="line"/>
      <point x="37" y="742"/>
      <point x="35" y="739"/>
    </contour>
  </outline>
</glyph>
<glyph name="C" format="2">
  <advance width="796"/>
  <unicode hex="0043"/>
  <anchor x="441" y="0" name="bottom"/>
  <anchor x="441" y="742" name="top"/>
  <outline>
    <contour>
      <point x="444" y="-8" type="curve" smooth="yes"/>
      <point x="533" y="-8"/>
      <point x="590" y="11"/>
      <point x="638" y="28" type="curve"/>
      <point x="662" y="33" type="line"/>
      <point x="694" y="39"/>
      <point x="697" y="43"/>
      <point x="699" y="62" type="curve"/>
      <point x="712" y="231" type="line"/>
      <point x="713" y="238"/>
      <point x="711" y="241"/>
      <point x="704" y="242" type="curve"/>
      <point x="686" y="245" type="line"/>
      <point x="679" y="247"/>
      <point x="675" y="245"/>
      <point x="673" y="238" type="curve"/>
      <point x="639" y="136" type="line"/>
      <point x="634" y="121"/>
      <point x="629" y="113"/>
      <point x="616" y="103" type="curve"/>
      <point x="572" y="71"/>
      <point x="511" y="55"/>
      <point x="441" y="55" type="curve" smooth="yes"/>
      <point x="283" y="55"/>
      <point x="183" y="178"/>
      <point x="183" y="371" type="curve" smooth="yes"/>
      <point x="183" y="565"/>
      <point x="282" y="686"/>
      <point x="441" y="686" type="curve" smooth="yes"/>
      <point x="510" y="686"/>
      <point x="571" y="670"/>
      <point x="616" y="638" type="curve"/>
      <point x="628" y="628"/>
      <point x="633" y="621"/>
      <point x="638" y="606" type="curve"/>
      <point x="673" y="504" type="line"/>
      <point x="675" y="498"/>
      <point x="678" y="495"/>
      <point x="685" y="496" type="curve"/>
      <point x="703" y="499" type="line"/>
      <point x="710" y="501"/>
      <point x="713" y="503"/>
      <point x="712" y="510" type="curve"/>
      <point x="700" y="666" type="line"/>
      <point x="697" y="699"/>
      <point x="694" y="703"/>
      <point x="675" y="706" type="curve"/>
      <point x="638" y="713" type="line"/>
      <point x="590" y="731"/>
      <point x="533" y="750"/>
      <point x="444" y="750" type="curve" smooth="yes"/>
      <point x="225" y="750"/>
      <point x="75" y="596"/>
      <point x="75" y="371" type="curve" smooth="yes"/>
      <point x="75" y="145"/>
      <point x="224" y="-8"/>
    </contour>
  </outline>
</glyph>
<glyph name="D" format="2">
  <advance width="832"/>
  <unicode hex="0044"/>
  <anchor x="392" y="0" name="bottom"/>
  <anchor x="251" y="370" name="center"/>
  <anchor x="392" y="742" name="top"/>
  <outline>
    <contour>
      <point x="151" y="0" type="line"/>
      <point x="375" y="0" type="line" smooth="yes"/>
      <point x="604" y="0"/>
      <point x="757" y="148"/>
      <point x="757" y="371" type="curve" smooth="yes"/>
      <point x="757" y="594"/>
      <point x="605" y="742"/>
      <point x="375" y="742" type="curve" smooth="yes"/>
      <point x="249" y="742" type="line"/>
      <point x="249" y="686" type="line"/>
      <point x="375" y="686" type="line" smooth="yes"/>
      <point x="546" y="686"/>
      <point x="650" y="567"/>
      <point x="650" y="371" type="curve" smooth="yes"/>
      <point x="650" y="176"/>
      <point x="546" y="56"/>
      <point x="375" y="56" type="curve" smooth="yes"/>
      <point x="273" y="56" type="line"/>
      <point x="256" y="56"/>
      <point x="249" y="62"/>
      <point x="249" y="78" type="curve"/>
      <point x="249" y="742" type="line"/>
      <point x="151" y="742" type="line"/>
    </contour>
    <contour>
      <point x="35" y="732" type="curve"/>
      <point x="35" y="719" type="line"/>
      <point x="35" y="712"/>
      <point x="38" y="709"/>
      <point x="45" y="708" type="curve"/>
      <point x="131" y="693" type="line"/>
      <point x="147" y="690"/>
      <point x="151" y="684"/>
      <point x="151" y="668" type="curve"/>
      <point x="151" y="527" type="line"/>
      <point x="249" y="527" type="line"/>
      <point x="249" y="742" type="line"/>
      <point x="44" y="742" type="line"/>
      <point x="37" y="742"/>
      <point x="35" y="739"/>
    </contour>
    <contour>
      <point x="44" y="0" type="curve"/>
      <point x="249" y="0" type="line"/>
      <point x="249" y="215" type="line"/>
      <point x="151" y="215" type="line"/>
      <point x="151" y="74" type="line"/>
      <point x="151" y="58"/>
      <point x="147" y="52"/>
      <point x="131" y="49" type="curve"/>
      <point x="45" y="34" type="line"/>
      <point x="38" y="33"/>
      <point x="35" y="30"/>
      <point x="35" y="23" type="curve"/>
      <point x="35" y="10" type="line"/>
      <point x="35" y="3"/>
      <point x="37" y="0"/>
    </contour>
  </outline>
</glyph>
<glyph name="E" format="2">
  <advance width="756"/>
  <unicode hex="0045"/>
  <anchor x="378" y="0" name="bottom"/>
  <anchor x="634" y="0" name="ogonek"/>
  <anchor x="378" y="742" name="top"/>
  <anchor x="23" y="742" name="topleft"/>
  <outline>
    <contour>
      <point x="151" y="0" type="line"/>
      <point x="572" y="0" type="line"/>
      <point x="627" y="-4" type="line"/>
      <point x="660" y="-6"/>
      <point x="663" y="-3"/>
      <point x="667" y="16" type="curve"/>
      <point x="693" y="174" type="line"/>
      <point x="695" y="181"/>
      <point x="693" y="185"/>
      <point x="686" y="187" type="curve"/>
      <point x="669" y="192" type="line"/>
      <point x="662" y="194"/>
      <point x="658" y="193"/>
      <point x="655" y="187" type="curve"/>
      <point x="599" y="77" type="line"/>
      <point x="591" y="62"/>
      <point x="582" y="56"/>
      <point x="566" y="56" type="curve"/>
      <point x="273" y="56" type="line"/>
      <point x="256" y="56"/>
      <point x="249" y="62"/>
      <point x="249" y="78" type="curve"/>
      <point x="249" y="742" type="line"/>
      <point x="151" y="742" type="line"/>
    </contour>
    <contour>
      <point x="559" y="255" type="curve"/>
      <point x="574" y="255" type="line"/>
      <point x="581" y="255"/>
      <point x="584" y="257"/>
      <point x="584" y="264" type="curve"/>
      <point x="584" y="484" type="line"/>
      <point x="584" y="491"/>
      <point x="582" y="494"/>
      <point x="575" y="494" type="curve"/>
      <point x="560" y="494" type="line"/>
      <point x="553" y="494"/>
      <point x="549" y="492"/>
      <point x="547" y="485" type="curve"/>
      <point x="529" y="431" type="line"/>
      <point x="524" y="415"/>
      <point x="516" y="408"/>
      <point x="500" y="408" type="curve"/>
      <point x="249" y="408" type="line"/>
      <point x="249" y="352" type="line"/>
      <point x="499" y="352" type="line"/>
      <point x="516" y="352"/>
      <point x="525" y="346"/>
      <point x="529" y="331" type="curve"/>
      <point x="547" y="265" type="line"/>
      <point x="549" y="258"/>
      <point x="552" y="255"/>
    </contour>
    <contour>
      <point x="647" y="553" type="curve"/>
      <point x="663" y="557" type="line"/>
      <point x="670" y="558"/>
      <point x="673" y="561"/>
      <point x="673" y="568" type="curve"/>
      <point x="665" y="715" type="line"/>
      <point x="663" y="748"/>
      <point x="660" y="751"/>
      <point x="641" y="749" type="curve"/>
      <point x="572" y="742" type="line"/>
      <point x="249" y="742" type="line"/>
      <point x="249" y="686" type="line"/>
      <point x="561" y="686" type="line"/>
      <point x="578" y="686"/>
      <point x="587" y="680"/>
      <point x="593" y="666" type="curve"/>
      <point x="634" y="560" type="line"/>
      <point x="637" y="554"/>
      <point x="640" y="551"/>
    </contour>
    <contour>
      <point x="44" y="0" type="curve"/>
      <point x="249" y="0" type="line"/>
      <point x="249" y="215" type="line"/>
      <point x="151" y="215" type="line"/>
      <point x="151" y="74" type="line"/>
      <point x="151" y="58"/>
      <point x="147" y="52"/>
      <point x="131" y="49" type="curve"/>
      <point x="45" y="34" type="line"/>
      <point x="38" y="33"/>
      <point x="35" y="30"/>
      <point x="35" y="23" type="curve"/>
      <point x="35" y="10" type="line"/>
      <point x="35" y="3"/>
      <point x="37" y="0"/>
    </contour>
    <contour>
      <point x="35" y="732" type="curve"/>
      <point x="35" y="719" type="line"/>
      <point x="35" y="712"/>
      <point x="38" y="709"/>
      <point x="45" y="708" type="curve"/>
      <point x="131" y="693" type="line"/>
      <point x="147" y="690"/>
      <point x="151" y="684"/>
      <point x="151" y="668" type="curve"/>
      <point x="151" y="527" type="line"/>
      <point x="249" y="527" type="line"/>
      <point x="249" y="742" type="line"/>
      <point x="44" y="742" type="line"/>
      <point x="37" y="742"/>
      <point x="35" y="739"/>
    </contour>
  </outline>
</glyph>
<glyph name="F" format="2">
  <advance width="700"/>
  <unicode hex="0046"/>
  <anchor x="349" y="0" name="bottom"/>
  <anchor x="349" y="742" name="top"/>
  <outline>
    <contour>
      <point x="151" y="0" type="line"/>
      <point x="249" y="0" type="line"/>
      <point x="249" y="742" type="line"/>
      <point x="151" y="742" type="line"/>
    </contour>
    <contour>
      <point x="543" y="235" type="curve"/>
      <point x="558" y="235" type="line"/>
      <point x="565" y="235"/>
      <point x="568" y="237"/>
      <point x="568" y="244" type="curve"/>
      <point x="568" y="465" type="line"/>
      <point x="568" y="472"/>
      <point x="566" y="475"/>
      <point x="559" y="475" type="curve"/>
      <point x="544" y="475" type="line"/>
      <point x="537" y="475"/>
      <point x="533" y="473"/>
      <point x="531" y="466" type="curve"/>
      <point x="513" y="411" type="line"/>
      <point x="508" y="395"/>
      <point x="500" y="388"/>
      <point x="484" y="388" type="curve"/>
      <point x="249" y="388" type="line"/>
      <point x="249" y="332" type="line"/>
      <point x="483" y="332" type="line"/>
      <point x="500" y="332"/>
      <point x="509" y="326"/>
      <point x="513" y="311" type="curve"/>
      <point x="531" y="245" type="line"/>
      <point x="533" y="238"/>
      <point x="536" y="235"/>
    </contour>
    <contour>
      <point x="631" y="553" type="curve"/>
      <point x="647" y="557" type="line"/>
      <point x="654" y="558"/>
      <point x="657" y="561"/>
      <point x="657" y="568" type="curve"/>
      <point x="649" y="715" type="line"/>
      <point x="647" y="748"/>
      <point x="644" y="751"/>
      <point x="625" y="749" type="curve"/>
      <point x="557" y="742" type="line"/>
      <point x="249" y="742" type="line"/>
      <point x="249" y="686" type="line"/>
      <point x="546" y="686" type="line"/>
      <point x="563" y="686"/>
      <point x="572" y="680"/>
      <point x="578" y="665" type="curve"/>
      <point x="618" y="560" type="line"/>
      <point x="621" y="554"/>
      <point x="624" y="551"/>
    </contour>
    <contour>
      <point x="44" y="0" type="curve"/>
      <point x="396" y="0" type="line"/>
      <point x="403" y="0"/>
      <point x="406" y="2"/>
      <point x="406" y="9" type="curve"/>
      <point x="406" y="22" type="line"/>
      <point x="406" y="29"/>
      <point x="404" y="32"/>
      <point x="397" y="33" type="curve"/>
      <point x="270" y="53" type="line"/>
      <point x="254" y="55"/>
      <point x="249" y="60"/>
      <point x="249" y="76" type="curve"/>
      <point x="249" y="215" type="line"/>
      <point x="151" y="215" type="line"/>
      <point x="151" y="74" type="line"/>
      <point x="151" y="58"/>
      <point x="147" y="52"/>
      <point x="131" y="49" type="curve"/>
      <point x="45" y="34" type="line"/>
      <point x="38" y="33"/>
      <point x="35" y="30"/>
      <point x="35" y="23" type="curve"/>
      <point x="35" y="10" type="line"/>
      <point x="35" y="3"/>
      <point x="37" y="0"/>
    </contour>
    <contour>
      <point x="35" y="732" type="curve"/>
      <point x="35" y="719" type="line"/>
      <point x="35" y="712"/>
      <point x="38" y="709"/>
      <point x="45" y="708" type="curve"/>
      <point x="131" y="693" type="line"/>
      <point x="147" y="690"/>
      <point x="151" y="684"/>
      <point x="151" y="668" type="curve"/>
      <point x="151" y="527" type="line"/>
      <point x="249" y="527" type="line"/>
      <point x="249" y="742" type="line"/>
      <point x="44" y="742" type="line"/>
      <point x="37" y="742"/>
      <point x="35" y="739"/>
    </contour>
  </outline>
</glyph>
<glyph name="G" format="2">
  <advance width="839"/>
  <unicode hex="0047"/>
  <anchor x="441" y="0" name="bottom"/>
  <anchor x="441" y="742" name="top"/>
  <outline>
    <contour>
      <point x="441" y="686" type="curve" smooth="yes"/>
      <point x="510" y="686"/>
      <point x="571" y="670"/>
      <point x="616" y="638" type="curve"/>
      <point x="628" y="628"/>
      <point x="633" y="621"/>
      <point x="638" y="606" type="curve"/>
      <point x="673" y="504" type="line"/>
      <point x="675" y="498"/>
      <point x="678" y="495"/>
      <point x="685" y="496" type="curve"/>
      <point x="703" y="499" type="line"/>
      <point x="710" y="501"/>
      <point x="713" y="503"/>
      <point x="712" y="510" type="curve"/>
      <point x="700" y="666" type="line"/>
      <point x="697" y="699"/>
      <point x="694" y="703"/>
      <point x="675" y="706" type="curve"/>
      <point x="638" y="714" type="line"/>
      <point x="589" y="733"/>
      <point x="533" y="750"/>
      <point x="444" y="750" type="curve" smooth="yes"/>
      <point x="225" y="750"/>
      <point x="75" y="596"/>
      <point x="75" y="371" type="curve" smooth="yes"/>
      <point x="75" y="145"/>
      <point x="224" y="-8"/>
      <point x="444" y="-8" type="curve" smooth="yes"/>
      <point x="549" y="-8"/>
      <point x="648" y="14"/>
      <point x="722" y="62" type="curve"/>
      <point x="732" y="69"/>
      <point x="733" y="71"/>
      <point x="731" y="84" type="curve"/>
      <point x="726" y="134" type="line"/>
      <point x="726" y="257" type="line"/>
      <point x="726" y="273"/>
      <point x="730" y="279"/>
      <point x="746" y="282" type="curve"/>
      <point x="798" y="294" type="line"/>
      <point x="805" y="295"/>
      <point x="808" y="298"/>
      <point x="808" y="305" type="curve"/>
      <point x="808" y="327" type="line"/>
      <point x="808" y="334"/>
      <point x="806" y="337"/>
      <point x="799" y="337" type="curve"/>
      <point x="484" y="337" type="line"/>
      <point x="477" y="337"/>
      <point x="474" y="335"/>
      <point x="474" y="328" type="curve"/>
      <point x="474" y="306" type="line"/>
      <point x="474" y="299"/>
      <point x="476" y="296"/>
      <point x="483" y="295" type="curve"/>
      <point x="607" y="280" type="line"/>
      <point x="623" y="279"/>
      <point x="628" y="274"/>
      <point x="628" y="258" type="curve"/>
      <point x="628" y="95" type="line"/>
      <point x="579" y="70"/>
      <point x="518" y="56"/>
      <point x="441" y="56" type="curve" smooth="yes"/>
      <point x="283" y="56"/>
      <point x="182" y="179"/>
      <point x="182" y="371" type="curve" smooth="yes"/>
      <point x="182" y="565"/>
      <point x="282" y="686"/>
    </contour>
  </outline>
</glyph>
<glyph name="H" format="2">
  <advance width="899"/>
  <unicode hex="0048"/>
  <anchor x="449" y="0" name="bottom"/>
  <anchor x="449" y="546" name="center"/>
  <anchor x="449" y="742" name="top"/>
  <anchor x="23" y="742" name="topleft"/>
  <outline>
    <contour>
      <point x="151" y="0" type="line"/>
      <point x="249" y="0" type="line"/>
      <point x="249" y="742" type="line"/>
      <point x="151" y="742" type="line"/>
    </contour>
    <contour>
      <point x="151" y="413" type="curve"/>
      <point x="151" y="357" type="line"/>
      <point x="349" y="345"/>
      <point x="547" y="345"/>
      <point x="745" y="357" type="curve"/>
      <point x="745" y="413" type="line"/>
      <point x="547" y="401"/>
      <point x="349" y="401"/>
    </contour>
    <contour>
      <point x="647" y="0" type="line"/>
      <point x="745" y="0" type="line"/>
      <point x="745" y="742" type="line"/>
      <point x="647" y="742" type="line"/>
    </contour>
    <contour>
      <point x="540" y="0" type="curve"/>
      <point x="854" y="0" type="line"/>
      <point x="861" y="0"/>
      <point x="864" y="2"/>
      <point x="864" y="9" type="curve"/>
      <point x="864" y="22" type="line"/>
      <point x="864" y="29"/>
      <point x="862" y="32"/>
      <point x="855" y="34" type="curve"/>
      <point x="766" y="49" type="line"/>
      <point x="750" y="52"/>
      <point x="745" y="57"/>
      <point x="745" y="73" type="curve"/>
      <point x="745" y="215" type="line"/>
      <point x="647" y="215" type="line"/>
      <point x="647" y="74" type="line"/>
      <point x="647" y="58"/>
      <point x="643" y="52"/>
      <point x="627" y="49" type="curve"/>
      <point x="541" y="34" type="line"/>
      <point x="534" y="33"/>
      <point x="531" y="30"/>
      <point x="531" y="23" type="curve"/>
      <point x="531" y="10" type="line"/>
      <point x="531" y="3"/>
      <point x="533" y="0"/>
    </contour>
    <contour>
      <point x="44" y="0" type="curve"/>
      <point x="358" y="0" type="line"/>
      <point x="365" y="0"/>
      <point x="368" y="2"/>
      <point x="368" y="9" type="curve"/>
      <point x="368" y="22" type="line"/>
      <point x="368" y="29"/>
      <point x="366" y="32"/>
      <point x="359" y="34" type="curve"/>
      <point x="270" y="49" type="line"/>
      <point x="254" y="52"/>
      <point x="249" y="57"/>
      <point x="249" y="73" type="curve"/>
      <point x="249" y="215" type="line"/>
      <point x="151" y="215" type="line"/>
      <point x="151" y="74" type="line"/>
      <point x="151" y="58"/>
      <point x="147" y="52"/>
      <point x="131" y="49" type="curve"/>
      <point x="45" y="34" type="line"/>
      <point x="38" y="33"/>
      <point x="35" y="30"/>
      <point x="35" y="23" type="curve"/>
      <point x="35" y="10" type="line"/>
      <point x="35" y="3"/>
      <point x="37" y="0"/>
    </contour>
    <contour>
      <point x="531" y="732" type="curve"/>
      <point x="531" y="719" type="line"/>
      <point x="531" y="712"/>
      <point x="534" y="709"/>
      <point x="541" y="708" type="curve"/>
      <point x="627" y="693" type="line"/>
      <point x="643" y="690"/>
      <point x="647" y="684"/>
      <point x="647" y="668" type="curve"/>
      <point x="647" y="527" type="line"/>
      <point x="745" y="527" type="line"/>
      <point x="745" y="669" type="line"/>
      <point x="745" y="685"/>
      <point x="750" y="690"/>
      <point x="766" y="693" type="curve"/>
      <point x="855" y="708" type="line"/>
      <point x="862" y="710"/>
      <point x="864" y="713"/>
      <point x="864" y="720" type="curve"/>
      <point x="864" y="733" type="line"/>
      <point x="864" y="740"/>
      <point x="861" y="742"/>
      <point x="854" y="742" type="curve"/>
      <point x="540" y="742" type="line"/>
      <point x="533" y="742"/>
      <point x="531" y="739"/>
    </contour>
    <contour>
      <point x="35" y="732" type="curve"/>
      <point x="35" y="719" type="line"/>
      <point x="35" y="712"/>
      <point x="38" y="709"/>
      <point x="45" y="708" type="curve"/>
      <point x="131" y="693" type="line"/>
      <point x="147" y="690"/>
      <point x="151" y="684"/>
      <point x="151" y="668" type="curve"/>
      <point x="151" y="527" type="line"/>
      <point x="249" y="527" type="line"/>
      <point x="249" y="669" type="line"/>
      <point x="249" y="685"/>
      <point x="254" y="690"/>
      <point x="270" y="693" type="curve"/>
      <point x="359" y="708" type="line"/>
      <point x="366" y="710"/>
      <point x="368" y="713"/>
      <point x="368" y="720" type="curve"/>
      <point x="368" y="733" type="line"/>
      <point x="368" y="740"/>
      <point x="365" y="742"/>
      <point x="358" y="742" type="curve"/>
      <point x="44" y="742" type="line"/>
      <point x="37" y="742"/>
      <point x="35" y="739"/>
    </contour>
  </outline>
</glyph>
<glyph name="I" format="2">
  <advance width="403"/>
  <unicode hex="0049"/>
  <anchor x="201" y="0" name="bottom"/>
  <anchor x="221" y="0" name="ogonek"/>
  <anchor x="201" y="742" name="top"/>
  <anchor x="23" y="742" name="topleft"/>
  <outline>
    <contour>
      <point x="151" y="0" type="line"/>
      <point x="249" y="0" type="line"/>
      <point x="249" y="742" type="line"/>
      <point x="151" y="742" type="line"/>
    </contour>
    <contour>
      <point x="44" y="0" type="curve"/>
      <point x="358" y="0" type="line"/>
      <point x="365" y="0"/>
      <point x="368" y="2"/>
      <point x="368" y="9" type="curve"/>
      <point x="368" y="22" type="line"/>
      <point x="368" y="29"/>
      <point x="366" y="32"/>
      <point x="359" y="34" type="curve"/>
      <point x="270" y="49" type="line"/>
      <point x="254" y="52"/>
      <point x="249" y="57"/>
      <point x="249" y="73" type="curve"/>
      <point x="249" y="215" type="line"/>
      <point x="151" y="215" type="line"/>
      <point x="151" y="74" type="line"/>
      <point x="151" y="58"/>
      <point x="147" y="52"/>
      <point x="131" y="49" type="curve"/>
      <point x="45" y="34" type="line"/>
      <point x="38" y="33"/>
      <point x="35" y="30"/>
      <point x="35" y="23" type="curve"/>
      <point x="35" y="10" type="line"/>
      <point x="35" y="3"/>
      <point x="37" y="0"/>
    </contour>
    <contour>
      <point x="35" y="732" type="curve"/>
      <point x="35" y="719" type="line"/>
      <point x="35" y="712"/>
      <point x="38" y="709"/>
      <point x="45" y="708" type="curve"/>
      <point x="131" y="693" type="line"/>
      <point x="147" y="690"/>
      <point x="151" y="684"/>
      <point x="151" y="668" type="curve"/>
      <point x="151" y="527" type="line"/>
      <point x="249" y="527" type="line"/>
      <point x="249" y="669" type="line"/>
      <point x="249" y="685"/>
      <point x="254" y="690"/>
      <point x="270" y="693" type="curve"/>
      <point x="359" y="708" type="line"/>
      <point x="366" y="710"/>
      <point x="368" y="713"/>
      <point x="368" y="720" type="curve"/>
      <point x="368" y="733" type="line"/>
      <point x="368" y="740"/>
      <point x="365" y="742"/>
      <point x="358" y="742" type="curve"/>
      <point x="44" y="742" type="line"/>
      <point x="37" y="742"/>
      <point x="35" y="739"/>
    </contour>
  </outline>
</glyph>
<glyph name="J" format="2">
  <advance width="396"/>
  <unicode hex="004A"/>
  <anchor x="203" y="0" name="bottom"/>
  <anchor x="203" y="742" name="top"/>
  <outline>
    <contour>
      <point x="11" y="-139" type="curve"/>
      <point x="17" y="-151" type="line"/>
      <point x="20" y="-157"/>
      <point x="23" y="-159"/>
      <point x="29" y="-157" type="curve"/>
      <point x="203" y="-83"/>
      <point x="252" y="-18"/>
      <point x="252" y="134" type="curve"/>
      <point x="154" y="134" type="line"/>
      <point x="154" y="1"/>
      <point x="118" y="-68"/>
      <point x="16" y="-126" type="curve"/>
      <point x="10" y="-130"/>
      <point x="8" y="-133"/>
    </contour>
    <contour>
      <point x="154" y="134" type="line"/>
      <point x="252" y="134" type="line"/>
      <point x="252" y="742" type="line"/>
      <point x="154" y="742" type="line"/>
    </contour>
    <contour>
      <point x="38" y="732" type="curve"/>
      <point x="38" y="719" type="line"/>
      <point x="38" y="712"/>
      <point x="41" y="709"/>
      <point x="48" y="708" type="curve"/>
      <point x="134" y="693" type="line"/>
      <point x="150" y="690"/>
      <point x="154" y="684"/>
      <point x="154" y="668" type="curve"/>
      <point x="154" y="527" type="line"/>
      <point x="252" y="527" type="line"/>
      <point x="252" y="669" type="line"/>
      <point x="252" y="685"/>
      <point x="257" y="690"/>
      <point x="273" y="693" type="curve"/>
      <point x="362" y="708" type="line"/>
      <point x="369" y="710"/>
      <point x="371" y="713"/>
      <point x="371" y="720" type="curve"/>
      <point x="371" y="733" type="line"/>
      <point x="371" y="740"/>
      <point x="368" y="742"/>
      <point x="361" y="742" type="curve"/>
      <point x="47" y="742" type="line"/>
      <point x="40" y="742"/>
      <point x="38" y="739"/>
    </contour>
  </outline>
</glyph>
<glyph name="K" format="2">
  <advance width="790"/>
  <unicode hex="004B"/>
  <anchor x="393" y="0" name="bottom"/>
  <anchor x="393" y="742" name="top"/>
  <outline>
    <contour>
      <point x="470" y="0" type="curve"/>
      <point x="764" y="0" type="line"/>
      <point x="771" y="0"/>
      <point x="774" y="2"/>
      <point x="774" y="9" type="curve"/>
      <point x="774" y="22" type="line"/>
      <point x="774" y="29"/>
      <point x="772" y="32"/>
      <point x="765" y="33" type="curve"/>
      <point x="702" y="42" type="line"/>
      <point x="685" y="44"/>
      <point x="674" y="49"/>
      <point x="663" y="61" type="curve"/>
      <point x="322" y="411" type="line"/>
      <point x="304" y="357" type="line"/>
      <point x="629" y="677" type="line"/>
      <point x="641" y="689"/>
      <point x="652" y="695"/>
      <point x="668" y="697" type="curve"/>
      <point x="737" y="708" type="line"/>
      <point x="744" y="710"/>
      <point x="747" y="712"/>
      <point x="747" y="719" type="curve"/>
      <point x="747" y="732" type="line"/>
      <point x="747" y="739"/>
      <point x="745" y="742"/>
      <point x="738" y="742" type="curve"/>
      <point x="462" y="742" type="line"/>
      <point x="455" y="742"/>
      <point x="452" y="740"/>
      <point x="452" y="733" type="curve"/>
      <point x="452" y="720" type="line"/>
      <point x="452" y="713"/>
      <point x="454" y="710"/>
      <point x="461" y="709" type="curve"/>
      <point x="512" y="702" type="line"/>
      <point x="552" y="697"/>
      <point x="557" y="690"/>
      <point x="528" y="661" type="curve"/>
      <point x="238" y="372" type="line"/>
      <point x="514" y="82" type="line"/>
      <point x="541" y="53"/>
      <point x="540" y="44"/>
      <point x="500" y="38" type="curve"/>
      <point x="471" y="33" type="line"/>
      <point x="464" y="32"/>
      <point x="461" y="30"/>
      <point x="461" y="23" type="curve"/>
      <point x="461" y="10" type="line"/>
      <point x="461" y="3"/>
      <point x="463" y="0"/>
    </contour>
    <contour>
      <point x="151" y="0" type="line"/>
      <point x="249" y="0" type="line"/>
      <point x="249" y="742" type="line"/>
      <point x="151" y="742" type="line"/>
    </contour>
    <contour>
      <point x="44" y="0" type="curve"/>
      <point x="358" y="0" type="line"/>
      <point x="365" y="0"/>
      <point x="368" y="2"/>
      <point x="368" y="9" type="curve"/>
      <point x="368" y="22" type="line"/>
      <point x="368" y="29"/>
      <point x="366" y="32"/>
      <point x="359" y="34" type="curve"/>
      <point x="270" y="49" type="line"/>
      <point x="254" y="52"/>
      <point x="249" y="57"/>
      <point x="249" y="73" type="curve"/>
      <point x="249" y="215" type="line"/>
      <point x="151" y="215" type="line"/>
      <point x="151" y="74" type="line"/>
      <point x="151" y="58"/>
      <point x="147" y="52"/>
      <point x="131" y="49" type="curve"/>
      <point x="45" y="34" type="line"/>
      <point x="38" y="33"/>
      <point x="35" y="30"/>
      <point x="35" y="23" type="curve"/>
      <point x="35" y="10" type="line"/>
      <point x="35" y="3"/>
      <point x="37" y="0"/>
    </contour>
    <contour>
      <point x="35" y="732" type="curve"/>
      <point x="35" y="719" type="line"/>
      <point x="35" y="712"/>
      <point x="38" y="709"/>
      <point x="45" y="708" type="curve"/>
      <point x="131" y="693" type="line"/>
      <point x="147" y="690"/>
      <point x="151" y="684"/>
      <point x="151" y="668" type="curve"/>
      <point x="151" y="527" type="line"/>
      <point x="249" y="527" type="line"/>
      <point x="249" y="669" type="line"/>
      <point x="249" y="685"/>
      <point x="254" y="690"/>
      <point x="270" y="693" type="curve"/>
      <point x="359" y="708" type="line"/>
      <point x="366" y="710"/>
      <point x="368" y="713"/>
      <point x="368" y="720" type="curve"/>
      <point x="368" y="733" type="line"/>
      <point x="368" y="740"/>
      <point x="365" y="742"/>
      <point x="358" y="742" type="curve"/>
      <point x="44" y="742" type="line"/>
      <point x="37" y="742"/>
      <point x="35" y="739"/>
    </contour>
  </outline>
</glyph>
<glyph name="L" format="2">
  <advance width="713"/>
  <unicode hex="004C"/>
  <anchor x="356" y="0" name="bottom"/>
  <anchor x="356" y="370" name="center"/>
  <anchor x="199" y="742" name="top"/>
  <anchor x="468" y="492" name="topright"/>
  <outline>
    <contour>
      <point x="151" y="0" type="line"/>
      <point x="544" y="0" type="line"/>
      <point x="599" y="-4" type="line"/>
      <point x="632" y="-6"/>
      <point x="635" y="-3"/>
      <point x="639" y="16" type="curve"/>
      <point x="664" y="174" type="line"/>
      <point x="666" y="181"/>
      <point x="664" y="185"/>
      <point x="657" y="187" type="curve"/>
      <point x="642" y="192" type="line"/>
      <point x="635" y="194"/>
      <point x="631" y="193"/>
      <point x="628" y="187" type="curve"/>
      <point x="571" y="77" type="line"/>
      <point x="563" y="62"/>
      <point x="554" y="56"/>
      <point x="538" y="56" type="curve"/>
      <point x="273" y="56" type="line"/>
      <point x="256" y="56"/>
      <point x="249" y="62"/>
      <point x="249" y="78" type="curve"/>
      <point x="249" y="742" type="line"/>
      <point x="151" y="742" type="line"/>
    </contour>
    <contour>
      <point x="44" y="0" type="curve"/>
      <point x="249" y="0" type="line"/>
      <point x="249" y="215" type="line"/>
      <point x="151" y="215" type="line"/>
      <point x="151" y="74" type="line"/>
      <point x="151" y="58"/>
      <point x="147" y="52"/>
      <point x="131" y="49" type="curve"/>
      <point x="45" y="34" type="line"/>
      <point x="38" y="33"/>
      <point x="35" y="30"/>
      <point x="35" y="23" type="curve"/>
      <point x="35" y="10" type="line"/>
      <point x="35" y="3"/>
      <point x="37" y="0"/>
    </contour>
    <contour>
      <point x="35" y="732" type="curve"/>
      <point x="35" y="719" type="line"/>
      <point x="35" y="712"/>
      <point x="38" y="709"/>
      <point x="45" y="708" type="curve"/>
      <point x="131" y="693" type="line"/>
      <point x="147" y="690"/>
      <point x="151" y="684"/>
      <point x="151" y="668" type="curve"/>
      <point x="151" y="527" type="line"/>
      <point x="249" y="527" type="line"/>
      <point x="249" y="669" type="line"/>
      <point x="249" y="685"/>
      <point x="254" y="690"/>
      <point x="270" y="693" type="curve"/>
      <point x="359" y="708" type="line"/>
      <point x="366" y="710"/>
      <point x="368" y="713"/>
      <point x="368" y="720" type="curve"/>
      <point x="368" y="733" type="line"/>
      <point x="368" y="740"/>
      <point x="365" y="742"/>
      <point x="358" y="742" type="curve"/>
      <point x="44" y="742" type="line"/>
      <point x="37" y="742"/>
      <point x="35" y="739"/>
    </contour>
  </outline>
</glyph>
<glyph name="M" format="2">
  <advance width="1040"/>
  <unicode hex="004D"/>
  <anchor x="510" y="0" name="bottom"/>
  <anchor x="516" y="742" name="top"/>
  <outline>
    <contour>
      <point x="20" y="0" type="curve"/>
      <point x="303" y="0" type="line"/>
      <point x="310" y="0"/>
      <point x="313" y="2"/>
      <point x="313" y="9" type="curve"/>
      <point x="313" y="22" type="line"/>
      <point x="313" y="29"/>
      <point x="311" y="32"/>
      <point x="304" y="34" type="curve"/>
      <point x="217" y="49" type="line"/>
      <point x="201" y="52"/>
      <point x="197" y="58"/>
      <point x="199" y="74" type="curve"/>
      <point x="249" y="722" type="line"/>
      <point x="199" y="697" type="line"/>
      <point x="479" y="9" type="line"/>
      <point x="482" y="3"/>
      <point x="485" y="0"/>
      <point x="492" y="0" type="curve"/>
      <point x="524" y="0" type="line"/>
      <point x="531" y="0"/>
      <point x="535" y="2"/>
      <point x="537" y="8" type="curve"/>
      <point x="795" y="697" type="line"/>
      <point x="752" y="678" type="line"/>
      <point x="815" y="74" type="line"/>
      <point x="816" y="58"/>
      <point x="813" y="52"/>
      <point x="797" y="50" type="curve"/>
      <point x="708" y="34" type="line"/>
      <point x="701" y="33"/>
      <point x="698" y="30"/>
      <point x="698" y="23" type="curve"/>
      <point x="698" y="10" type="line"/>
      <point x="698" y="3"/>
      <point x="700" y="0"/>
      <point x="707" y="0" type="curve"/>
      <point x="1020" y="0" type="line"/>
      <point x="1027" y="0"/>
      <point x="1030" y="2"/>
      <point x="1030" y="9" type="curve"/>
      <point x="1030" y="22" type="line"/>
      <point x="1030" y="29"/>
      <point x="1028" y="32"/>
      <point x="1021" y="34" type="curve"/>
      <point x="939" y="49" type="line"/>
      <point x="923" y="52"/>
      <point x="918" y="57"/>
      <point x="916" y="73" type="curve"/>
      <point x="853" y="673" type="line"/>
      <point x="852" y="690"/>
      <point x="857" y="698"/>
      <point x="873" y="700" type="curve"/>
      <point x="952" y="709" type="line"/>
      <point x="959" y="710"/>
      <point x="962" y="712"/>
      <point x="962" y="719" type="curve"/>
      <point x="962" y="732" type="line"/>
      <point x="962" y="739"/>
      <point x="960" y="742"/>
      <point x="953" y="742" type="curve"/>
      <point x="738" y="742" type="line"/>
      <point x="725" y="742"/>
      <point x="724" y="741"/>
      <point x="724" y="728" type="curve"/>
      <point x="724" y="725" type="line"/>
      <point x="724" y="700"/>
      <point x="721" y="685"/>
      <point x="707" y="646" type="curve"/>
      <point x="492" y="54" type="line"/>
      <point x="547" y="85" type="line"/>
      <point x="326" y="646" type="line"/>
      <point x="311" y="683"/>
      <point x="307" y="699"/>
      <point x="307" y="724" type="curve"/>
      <point x="307" y="728" type="line"/>
      <point x="307" y="741"/>
      <point x="306" y="742"/>
      <point x="293" y="742" type="curve"/>
      <point x="73" y="742" type="line"/>
      <point x="66" y="742"/>
      <point x="63" y="740"/>
      <point x="63" y="733" type="curve"/>
      <point x="63" y="720" type="line"/>
      <point x="63" y="713"/>
      <point x="65" y="710"/>
      <point x="72" y="709" type="curve"/>
      <point x="158" y="700" type="line"/>
      <point x="175" y="698"/>
      <point x="182" y="691"/>
      <point x="180" y="675" type="curve"/>
      <point x="131" y="73" type="line"/>
      <point x="129" y="57"/>
      <point x="124" y="52"/>
      <point x="108" y="49" type="curve"/>
      <point x="21" y="34" type="line"/>
      <point x="14" y="33"/>
      <point x="11" y="30"/>
      <point x="11" y="23" type="curve"/>
      <point x="11" y="10" type="line"/>
      <point x="11" y="3"/>
      <point x="13" y="0"/>
    </contour>
  </outline>
</glyph>
<glyph name="N" format="2">
  <advance width="848"/>
  <unicode hex="004E"/>
  <anchor x="438" y="0" name="bottom"/>
  <anchor x="438" y="742" name="top"/>
  <outline>
    <contour>
      <point x="753" y="693" type="curve"/>
      <point x="840" y="708" type="line"/>
      <point x="847" y="709"/>
      <point x="850" y="712"/>
      <point x="850" y="719" type="curve"/>
      <point x="850" y="732" type="line"/>
      <point x="850" y="739"/>
      <point x="848" y="742"/>
      <point x="841" y="742" type="curve"/>
      <point x="557" y="742" type="line"/>
      <point x="550" y="742"/>
      <point x="547" y="740"/>
      <point x="547" y="733" type="curve"/>
      <point x="547" y="720" type="line"/>
      <point x="547" y="713"/>
      <point x="549" y="710"/>
      <point x="556" y="708" type="curve"/>
      <point x="643" y="693" type="line"/>
      <point x="659" y="690"/>
      <point x="663" y="684"/>
      <point x="663" y="668" type="curve"/>
      <point x="663" y="49" type="line"/>
      <point x="712" y="119" type="line"/>
      <point x="251" y="734" type="line"/>
      <point x="247" y="740"/>
      <point x="243" y="742"/>
      <point x="236" y="742" type="curve"/>
      <point x="45" y="742" type="line"/>
      <point x="38" y="742"/>
      <point x="35" y="740"/>
      <point x="35" y="733" type="curve"/>
      <point x="35" y="720" type="line"/>
      <point x="35" y="713"/>
      <point x="37" y="710"/>
      <point x="44" y="708" type="curve"/>
      <point x="130" y="693" type="line"/>
      <point x="147" y="690"/>
      <point x="154" y="683"/>
      <point x="154" y="667" type="curve"/>
      <point x="154" y="73" type="line"/>
      <point x="154" y="57"/>
      <point x="149" y="52"/>
      <point x="133" y="49" type="curve"/>
      <point x="45" y="34" type="line"/>
      <point x="38" y="33"/>
      <point x="35" y="30"/>
      <point x="35" y="23" type="curve"/>
      <point x="35" y="10" type="line"/>
      <point x="35" y="3"/>
      <point x="37" y="0"/>
      <point x="44" y="0" type="curve"/>
      <point x="329" y="0" type="line"/>
      <point x="336" y="0"/>
      <point x="339" y="2"/>
      <point x="339" y="9" type="curve"/>
      <point x="339" y="22" type="line"/>
      <point x="339" y="29"/>
      <point x="337" y="32"/>
      <point x="330" y="34" type="curve"/>
      <point x="243" y="49" type="line"/>
      <point x="227" y="52"/>
      <point x="223" y="58"/>
      <point x="223" y="74" type="curve"/>
      <point x="223" y="717" type="line"/>
      <point x="166" y="681" type="line"/>
      <point x="676" y="5" type="line"/>
      <point x="680" y="-1"/>
      <point x="684" y="-3"/>
      <point x="691" y="-3" type="curve"/>
      <point x="722" y="-3" type="line"/>
      <point x="729" y="-3"/>
      <point x="732" y="-1"/>
      <point x="732" y="6" type="curve"/>
      <point x="732" y="669" type="line"/>
      <point x="732" y="685"/>
      <point x="737" y="690"/>
    </contour>
  </outline>
</glyph>
<glyph name="O" format="2">
  <advance width="891"/>
  <unicode hex="004F"/>
  <anchor x="446" y="0" name="bottom"/>
  <anchor x="446" y="370" name="center"/>
  <anchor x="518" y="0" name="ogonek"/>
  <anchor x="446" y="742" name="top"/>
  <anchor x="24" y="742" name="topleft"/>
  <anchor x="867" y="742" name="topright"/>
  <outline>
    <contour>
      <point x="444" y="-8" type="curve" smooth="yes"/>
      <point x="667" y="-8"/>
      <point x="816" y="143"/>
      <point x="816" y="371" type="curve" smooth="yes"/>
      <point x="816" y="597"/>
      <point x="666" y="750"/>
      <point x="444" y="750" type="curve" smooth="yes"/>
      <point x="226" y="750"/>
      <point x="75" y="596"/>
      <point x="75" y="371" type="curve" smooth="yes"/>
      <point x="75" y="145"/>
      <point x="225" y="-8"/>
    </contour>
    <contour>
      <point x="440" y="56" type="curve" smooth="yes"/>
      <point x="283" y="56"/>
      <point x="182" y="179"/>
      <point x="182" y="371" type="curve" smooth="yes"/>
      <point x="182" y="564"/>
      <point x="282" y="686"/>
      <point x="440" y="686" type="curve" smooth="yes"/>
      <point x="605" y="686"/>
      <point x="709" y="565"/>
      <point x="709" y="371" type="curve" smooth="yes"/>
      <point x="709" y="179"/>
      <point x="604" y="56"/>
    </contour>
  </outline>
</glyph>
<glyph name="P" format="2">
  <advance width="689"/>
  <unicode hex="0050"/>
  <anchor x="354" y="0" name="bottom"/>
  <anchor x="354" y="742" name="top"/>
  <outline>
    <contour>
      <point x="151" y="0" type="line"/>
      <point x="249" y="0" type="line"/>
      <point x="249" y="742" type="line"/>
      <point x="151" y="742" type="line"/>
    </contour>
    <contour>
      <point x="44" y="0" type="curve"/>
      <point x="396" y="0" type="line"/>
      <point x="403" y="0"/>
      <point x="406" y="2"/>
      <point x="406" y="9" type="curve"/>
      <point x="406" y="22" type="line"/>
      <point x="406" y="29"/>
      <point x="404" y="32"/>
      <point x="397" y="33" type="curve"/>
      <point x="270" y="53" type="line"/>
      <point x="254" y="55"/>
      <point x="249" y="60"/>
      <point x="249" y="76" type="curve"/>
      <point x="249" y="215" type="line"/>
      <point x="151" y="215" type="line"/>
      <point x="151" y="74" type="line"/>
      <point x="151" y="58"/>
      <point x="147" y="52"/>
      <point x="131" y="49" type="curve"/>
      <point x="45" y="34" type="line"/>
      <point x="38" y="33"/>
      <point x="35" y="30"/>
      <point x="35" y="23" type="curve"/>
      <point x="35" y="10" type="line"/>
      <point x="35" y="3"/>
      <point x="37" y="0"/>
    </contour>
    <contour>
      <point x="35" y="732" type="curve"/>
      <point x="35" y="719" type="line"/>
      <point x="35" y="712"/>
      <point x="38" y="709"/>
      <point x="45" y="708" type="curve"/>
      <point x="131" y="693" type="line"/>
      <point x="147" y="690"/>
      <point x="151" y="684"/>
      <point x="151" y="668" type="curve"/>
      <point x="151" y="527" type="line"/>
      <point x="249" y="527" type="line"/>
      <point x="249" y="742" type="line"/>
      <point x="44" y="742" type="line"/>
      <point x="37" y="742"/>
      <point x="35" y="739"/>
    </contour>
    <contour>
      <point x="249" y="358" type="curve"/>
      <point x="249" y="308" type="line"/>
      <point x="296" y="304"/>
      <point x="333" y="302"/>
      <point x="367" y="302" type="curve" smooth="yes"/>
      <point x="553" y="302"/>
      <point x="655" y="382"/>
      <point x="655" y="527" type="curve" smooth="yes"/>
      <point x="655" y="663"/>
      <point x="552" y="742"/>
      <point x="375" y="742" type="curve" smooth="yes"/>
      <point x="249" y="742" type="line"/>
      <point x="249" y="686" type="line"/>
      <point x="368" y="686" type="line" smooth="yes"/>
      <point x="493" y="686"/>
      <point x="554" y="634"/>
      <point x="554" y="527" type="curve" smooth="yes"/>
      <point x="554" y="412"/>
      <point x="486" y="355"/>
      <point x="347" y="355" type="curve" smooth="yes"/>
      <point x="314" y="355"/>
      <point x="280" y="356"/>
    </contour>
  </outline>
</glyph>
<glyph name="R" format="2">
  <advance width="742"/>
  <unicode hex="0052"/>
  <anchor x="426" y="0" name="bottom"/>
  <anchor x="354" y="742" name="top"/>
  <outline>
    <contour>
      <point x="249" y="332" type="line"/>
      <point x="383" y="332" type="line" smooth="yes"/>
      <point x="552" y="332"/>
      <point x="651" y="409"/>
      <point x="651" y="540" type="curve" smooth="yes"/>
      <point x="651" y="669"/>
      <point x="555" y="742"/>
      <point x="383" y="742" type="curve" smooth="yes"/>
      <point x="249" y="742" type="line"/>
      <point x="249" y="686" type="line"/>
      <point x="383" y="686" type="line" smooth="yes"/>
      <point x="490" y="686"/>
      <point x="551" y="633"/>
      <point x="551" y="540" type="curve" smooth="yes"/>
      <point x="551" y="446"/>
      <point x="487" y="388"/>
      <point x="383" y="388" type="curve" smooth="yes"/>
      <point x="249" y="388" type="line"/>
    </contour>
    <contour>
      <point x="151" y="0" type="line"/>
      <point x="249" y="0" type="line"/>
      <point x="249" y="742" type="line"/>
      <point x="151" y="742" type="line"/>
    </contour>
    <contour>
      <point x="610" y="0" type="curve"/>
      <point x="750" y="0" type="line"/>
      <point x="757" y="0"/>
      <point x="760" y="2"/>
      <point x="760" y="9" type="curve"/>
      <point x="760" y="22" type="line"/>
      <point x="760" y="29"/>
      <point x="758" y="33"/>
      <point x="751" y="35" type="curve"/>
      <point x="692" y="54" type="line"/>
      <point x="676" y="59"/>
      <point x="665" y="66"/>
      <point x="655" y="78" type="curve"/>
      <point x="535" y="229" type="line" smooth="yes"/>
      <point x="458" y="325"/>
      <point x="414" y="349"/>
      <point x="360" y="351" type="curve"/>
      <point x="303" y="332" type="line"/>
      <point x="338" y="332"/>
      <point x="358" y="324"/>
      <point x="405" y="258" type="curve" smooth="yes"/>
      <point x="567" y="29" type="line"/>
      <point x="586" y="2"/>
      <point x="591" y="0"/>
    </contour>
    <contour>
      <point x="44" y="0" type="curve"/>
      <point x="358" y="0" type="line"/>
      <point x="365" y="0"/>
      <point x="368" y="2"/>
      <point x="368" y="9" type="curve"/>
      <point x="368" y="22" type="line"/>
      <point x="368" y="29"/>
      <point x="366" y="32"/>
      <point x="359" y="34" type="curve"/>
      <point x="270" y="49" type="line"/>
      <point x="254" y="52"/>
      <point x="249" y="57"/>
      <point x="249" y="73" type="curve"/>
      <point x="249" y="215" type="line"/>
      <point x="151" y="215" type="line"/>
      <point x="151" y="74" type="line"/>
      <point x="151" y="58"/>
      <point x="147" y="52"/>
      <point x="131" y="49" type="curve"/>
      <point x="45" y="34" type="line"/>
      <point x="38" y="33"/>
      <point x="35" y="30"/>
      <point x="35" y="23" type="curve"/>
      <point x="35" y="10" type="line"/>
      <point x="35" y="3"/>
      <point x="37" y="0"/>
    </contour>
    <contour>
      <point x="35" y="732" type="curve"/>
      <point x="35" y="719" type="line"/>
      <point x="35" y="712"/>
      <point x="38" y="709"/>
      <point x="45" y="708" type="curve"/>
      <point x="131" y="693" type="line"/>
      <point x="147" y="690"/>
      <point x="151" y="684"/>
      <point x="151" y="668" type="curve"/>
      <point x="151" y="527" type="line"/>
      <point x="249" y="527" type="line"/>
      <point x="249" y="742" type="line"/>
      <point x="44" y="742" type="line"/>
      <point x="37" y="742"/>
      <point x="35" y="739"/>
    </contour>
  </outline>
</glyph>
<glyph name="S" format="2">
  <advance width="653"/>
  <unicode hex="0053"/>
  <anchor x="327" y="0" name="bottom"/>
  <anchor x="327" y="742" name="top"/>
  <outline>
    <contour>
      <point x="356" y="420" type="curve" smooth="yes"/>
      <point x="217" y="464"/>
      <point x="175" y="497"/>
      <point x="175" y="565" type="curve" smooth="yes"/>
      <point x="175" y="644"/>
      <point x="234" y="688"/>
      <point x="342" y="688" type="curve" smooth="yes"/>
      <point x="416" y="688"/>
      <point x="467" y="670"/>
      <point x="486" y="613" type="curve" smooth="yes"/>
      <point x="509" y="543" type="line"/>
      <point x="511" y="536"/>
      <point x="514" y="533"/>
      <point x="521" y="534" type="curve"/>
      <point x="544" y="535" type="line"/>
      <point x="551" y="536"/>
      <point x="554" y="538"/>
      <point x="554" y="545" type="curve"/>
      <point x="550" y="684" type="line"/>
      <point x="550" y="691"/>
      <point x="548" y="695"/>
      <point x="543" y="699" type="curve"/>
      <point x="508" y="722"/>
      <point x="432" y="750"/>
      <point x="341" y="750" type="curve" smooth="yes"/>
      <point x="178" y="750"/>
      <point x="75" y="672"/>
      <point x="75" y="547" type="curve" smooth="yes"/>
      <point x="75" y="446"/>
      <point x="135" y="393"/>
      <point x="311" y="334" type="curve" smooth="yes"/>
      <point x="452" y="287"/>
      <point x="491" y="256"/>
      <point x="491" y="183" type="curve" smooth="yes"/>
      <point x="491" y="101"/>
      <point x="424" y="54"/>
      <point x="307" y="54" type="curve" smooth="yes"/>
      <point x="228" y="54"/>
      <point x="156" y="75"/>
      <point x="133" y="142" type="curve" smooth="yes"/>
      <point x="113" y="200" type="line"/>
      <point x="111" y="206"/>
      <point x="108" y="209"/>
      <point x="101" y="209" type="curve"/>
      <point x="83" y="208" type="line"/>
      <point x="76" y="208"/>
      <point x="73" y="206"/>
      <point x="73" y="199" type="curve"/>
      <point x="77" y="52" type="line"/>
      <point x="77" y="45"/>
      <point x="79" y="41"/>
      <point x="85" y="38" type="curve"/>
      <point x="123" y="20"/>
      <point x="207" y="-8"/>
      <point x="314" y="-8" type="curve" smooth="yes"/>
      <point x="485" y="-8"/>
      <point x="589" y="73"/>
      <point x="589" y="207" type="curve" smooth="yes"/>
      <point x="589" y="312"/>
      <point x="530" y="365"/>
    </contour>
  </outline>
</glyph>
<glyph name="T" format="2">
  <advance width="685"/>
  <unicode hex="0054"/>
  <anchor x="342" y="0" name="bottom"/>
  <anchor x="342" y="370" name="center"/>
  <anchor x="342" y="742" name="top"/>
  <outline>
    <contour>
      <point x="293" y="0" type="line"/>
      <point x="391" y="0" type="line"/>
      <point x="391" y="742" type="line"/>
      <point x="293" y="742" type="line"/>
    </contour>
    <contour>
      <point x="643" y="750" type="curve"/>
      <point x="602" y="745" type="line"/>
      <point x="539" y="742"/>
      <point x="452" y="742"/>
      <point x="343" y="742" type="curve" smooth="yes"/>
      <point x="233" y="742"/>
      <point x="158" y="742"/>
      <point x="83" y="745" type="curve"/>
      <point x="56" y="748" type="line"/>
      <point x="23" y="752"/>
      <point x="20" y="749"/>
      <point x="19" y="730" type="curve"/>
      <point x="10" y="549" type="line"/>
      <point x="10" y="542"/>
      <point x="12" y="539"/>
      <point x="19" y="537" type="curve"/>
      <point x="35" y="534" type="line"/>
      <point x="42" y="533"/>
      <point x="46" y="534"/>
      <point x="48" y="541" type="curve"/>
      <point x="88" y="663" type="line"/>
      <point x="93" y="679"/>
      <point x="101" y="686"/>
      <point x="117" y="686" type="curve"/>
      <point x="567" y="686" type="line"/>
      <point x="584" y="686"/>
      <point x="593" y="680"/>
      <point x="598" y="665" type="curve"/>
      <point x="637" y="543" type="line"/>
      <point x="639" y="536"/>
      <point x="642" y="533"/>
      <point x="649" y="534" type="curve"/>
      <point x="665" y="537" type="line"/>
      <point x="672" y="538"/>
      <point x="675" y="540"/>
      <point x="675" y="547" type="curve"/>
      <point x="667" y="716" type="line"/>
      <point x="665" y="749"/>
      <point x="662" y="752"/>
    </contour>
    <contour>
      <point x="186" y="0" type="curve"/>
      <point x="500" y="0" type="line"/>
      <point x="507" y="0"/>
      <point x="510" y="2"/>
      <point x="510" y="9" type="curve"/>
      <point x="510" y="22" type="line"/>
      <point x="510" y="29"/>
      <point x="508" y="32"/>
      <point x="501" y="34" type="curve"/>
      <point x="412" y="49" type="line"/>
      <point x="396" y="52"/>
      <point x="391" y="57"/>
      <point x="391" y="73" type="curve"/>
      <point x="391" y="215" type="line"/>
      <point x="293" y="215" type="line"/>
      <point x="293" y="74" type="line"/>
      <point x="293" y="58"/>
      <point x="289" y="52"/>
      <point x="273" y="49" type="curve"/>
      <point x="187" y="34" type="line"/>
      <point x="180" y="33"/>
      <point x="177" y="30"/>
      <point x="177" y="23" type="curve"/>
      <point x="177" y="10" type="line"/>
      <point x="177" y="3"/>
      <point x="179" y="0"/>
    </contour>
  </outline>
</glyph>
<glyph name="U" format="2">
  <advance width="877"/>
  <unicode hex="0055"/>
  <anchor x="439" y="0" name="bottom"/>
  <anchor x="504" y="0" name="ogonek"/>
  <anchor x="452" y="742" name="top"/>
  <anchor x="854" y="742" name="topright"/>
  <outline>
    <contour>
      <point x="735" y="263" type="curve" smooth="yes"/>
      <point x="735" y="742" type="line"/>
      <point x="664" y="742" type="line"/>
      <point x="664" y="258" type="line" smooth="yes"/>
      <point x="664" y="133"/>
      <point x="582" y="55"/>
      <point x="450" y="55" type="curve" smooth="yes"/>
      <point x="320" y="55"/>
      <point x="240" y="124"/>
      <point x="240" y="236" type="curve" smooth="yes"/>
      <point x="240" y="742" type="line"/>
      <point x="142" y="742" type="line"/>
      <point x="142" y="241" type="line" smooth="yes"/>
      <point x="142" y="84"/>
      <point x="252" y="-9"/>
      <point x="438" y="-9" type="curve" smooth="yes"/>
      <point x="627" y="-9"/>
      <point x="735" y="90"/>
    </contour>
    <contour>
      <point x="26" y="732" type="curve"/>
      <point x="26" y="719" type="line"/>
      <point x="26" y="712"/>
      <point x="29" y="709"/>
      <point x="36" y="708" type="curve"/>
      <point x="122" y="693" type="line"/>
      <point x="138" y="690"/>
      <point x="142" y="684"/>
      <point x="142" y="668" type="curve"/>
      <point x="142" y="527" type="line"/>
      <point x="240" y="527" type="line"/>
      <point x="240" y="669" type="line"/>
      <point x="240" y="685"/>
      <point x="245" y="690"/>
      <point x="261" y="693" type="curve"/>
      <point x="350" y="708" type="line"/>
      <point x="357" y="710"/>
      <point x="359" y="713"/>
      <point x="359" y="720" type="curve"/>
      <point x="359" y="733" type="line"/>
      <point x="359" y="740"/>
      <point x="356" y="742"/>
      <point x="349" y="742" type="curve"/>
      <point x="35" y="742" type="line"/>
      <point x="28" y="742"/>
      <point x="26" y="739"/>
    </contour>
    <contour>
      <point x="547" y="732" type="curve"/>
      <point x="547" y="719" type="line"/>
      <point x="547" y="712"/>
      <point x="550" y="709"/>
      <point x="557" y="708" type="curve"/>
      <point x="644" y="693" type="line"/>
      <point x="660" y="690"/>
      <point x="664" y="684"/>
      <point x="664" y="668" type="curve"/>
      <point x="664" y="527" type="line"/>
      <point x="735" y="527" type="line"/>
      <point x="735" y="669" type="line"/>
      <point x="735" y="685"/>
      <point x="740" y="690"/>
      <point x="756" y="693" type="curve"/>
      <point x="845" y="708" type="line"/>
      <point x="852" y="710"/>
      <point x="854" y="713"/>
      <point x="854" y="720" type="curve"/>
      <point x="854" y="733" type="line"/>
      <point x="854" y="740"/>
      <point x="851" y="742"/>
      <point x="844" y="742" type="curve"/>
      <point x="556" y="742" type="line"/>
      <point x="549" y="742"/>
      <point x="547" y="739"/>
    </contour>
  </outline>
</glyph>
<glyph name="V" format="2">
  <advance width="834"/>
  <unicode hex="0056"/>
  <anchor x="417" y="0" name="bottom"/>
  <anchor x="417" y="742" name="top"/>
  <outline>
    <contour>
      <point x="408" y="0" type="curve"/>
      <point x="441" y="0" type="line"/>
      <point x="448" y="0"/>
      <point x="452" y="2"/>
      <point x="454" y="8" type="curve"/>
      <point x="725" y="675" type="line"/>
      <point x="731" y="691"/>
      <point x="740" y="698"/>
      <point x="756" y="700" type="curve"/>
      <point x="814" y="709" type="line"/>
      <point x="821" y="710"/>
      <point x="824" y="712"/>
      <point x="824" y="719" type="curve"/>
      <point x="824" y="732" type="line"/>
      <point x="824" y="739"/>
      <point x="822" y="742"/>
      <point x="815" y="742" type="curve"/>
      <point x="537" y="742" type="line"/>
      <point x="530" y="742"/>
      <point x="527" y="740"/>
      <point x="527" y="733" type="curve"/>
      <point x="527" y="720" type="line"/>
      <point x="527" y="713"/>
      <point x="529" y="710"/>
      <point x="536" y="709" type="curve"/>
      <point x="612" y="701" type="line"/>
      <point x="652" y="697"/>
      <point x="660" y="688"/>
      <point x="645" y="649" type="curve"/>
      <point x="409" y="50" type="line"/>
      <point x="469" y="85" type="line"/>
      <point x="229" y="649" type="line"/>
      <point x="213" y="686"/>
      <point x="218" y="697"/>
      <point x="259" y="701" type="curve"/>
      <point x="335" y="709" type="line"/>
      <point x="342" y="710"/>
      <point x="345" y="712"/>
      <point x="345" y="719" type="curve"/>
      <point x="345" y="732" type="line"/>
      <point x="345" y="739"/>
      <point x="343" y="742"/>
      <point x="336" y="742" type="curve"/>
      <point x="22" y="742" type="line"/>
      <point x="15" y="742"/>
      <point x="12" y="740"/>
      <point x="12" y="733" type="curve"/>
      <point x="12" y="720" type="line"/>
      <point x="12" y="713"/>
      <point x="14" y="710"/>
      <point x="21" y="709" type="curve"/>
      <point x="72" y="701" type="line"/>
      <point x="89" y="698"/>
      <point x="98" y="691"/>
      <point x="105" y="677" type="curve"/>
      <point x="395" y="9" type="line"/>
      <point x="398" y="3"/>
      <point x="401" y="0"/>
    </contour>
  </outline>
</glyph>
<glyph name="W" format="2">
  <advance width="1217"/>
  <unicode hex="0057"/>
  <anchor x="609" y="0" name="bottom"/>
  <anchor x="621" y="742" name="top"/>
  <outline>
    <contour>
      <point x="381" y="0" type="curve"/>
      <point x="413" y="0" type="line"/>
      <point x="420" y="0"/>
      <point x="424" y="2"/>
      <point x="426" y="9" type="curve"/>
      <point x="638" y="663" type="line"/>
      <point x="585" y="612" type="line"/>
      <point x="806" y="9" type="line"/>
      <point x="808" y="3"/>
      <point x="811" y="0"/>
      <point x="818" y="0" type="curve"/>
      <point x="850" y="0" type="line"/>
      <point x="857" y="0"/>
      <point x="861" y="2"/>
      <point x="863" y="8" type="curve"/>
      <point x="1105" y="674" type="line"/>
      <point x="1111" y="690"/>
      <point x="1119" y="698"/>
      <point x="1135" y="700" type="curve"/>
      <point x="1197" y="709" type="line"/>
      <point x="1204" y="710"/>
      <point x="1207" y="712"/>
      <point x="1207" y="719" type="curve"/>
      <point x="1207" y="732" type="line"/>
      <point x="1207" y="739"/>
      <point x="1205" y="742"/>
      <point x="1198" y="742" type="curve"/>
      <point x="919" y="742" type="line"/>
      <point x="912" y="742"/>
      <point x="909" y="740"/>
      <point x="909" y="733" type="curve"/>
      <point x="909" y="720" type="line"/>
      <point x="909" y="713"/>
      <point x="911" y="710"/>
      <point x="918" y="709" type="curve"/>
      <point x="993" y="701" type="line"/>
      <point x="1033" y="696"/>
      <point x="1041" y="687"/>
      <point x="1027" y="648" type="curve"/>
      <point x="818" y="56" type="line"/>
      <point x="880" y="86" type="line"/>
      <point x="649" y="733" type="line"/>
      <point x="647" y="739"/>
      <point x="644" y="742"/>
      <point x="637" y="742" type="curve"/>
      <point x="605" y="742" type="line"/>
      <point x="598" y="742"/>
      <point x="594" y="740"/>
      <point x="592" y="733" type="curve"/>
      <point x="377" y="51" type="line"/>
      <point x="439" y="88" type="line"/>
      <point x="224" y="648" type="line"/>
      <point x="210" y="686"/>
      <point x="215" y="697"/>
      <point x="256" y="701" type="curve"/>
      <point x="335" y="709" type="line"/>
      <point x="342" y="710"/>
      <point x="345" y="712"/>
      <point x="345" y="719" type="curve"/>
      <point x="345" y="732" type="line"/>
      <point x="345" y="739"/>
      <point x="343" y="742"/>
      <point x="336" y="742" type="curve"/>
      <point x="22" y="742" type="line"/>
      <point x="15" y="742"/>
      <point x="12" y="740"/>
      <point x="12" y="733" type="curve"/>
      <point x="12" y="720" type="line"/>
      <point x="12" y="713"/>
      <point x="14" y="710"/>
      <point x="21" y="709" type="curve"/>
      <point x="72" y="701" type="line"/>
      <point x="89" y="698"/>
      <point x="98" y="691"/>
      <point x="104" y="677" type="curve"/>
      <point x="368" y="9" type="line"/>
      <point x="371" y="3"/>
      <point x="374" y="0"/>
    </contour>
  </outline>
</glyph>
<glyph name="X" format="2">
  <advance width="838"/>
  <unicode hex="0058"/>
  <outline>
    <contour>
      <point x="23" y="0" type="curve"/>
      <point x="328" y="0" type="line"/>
      <point x="335" y="0"/>
      <point x="338" y="2"/>
      <point x="338" y="9" type="curve"/>
      <point x="338" y="22" type="line"/>
      <point x="338" y="29"/>
      <point x="336" y="32"/>
      <point x="329" y="33" type="curve"/>
      <point x="249" y="42" type="line"/>
      <point x="209" y="46"/>
      <point x="203" y="54"/>
      <point x="228" y="87" type="curve"/>
      <point x="439" y="364" type="line"/>
      <point x="394" y="404" type="line"/>
      <point x="132" y="67" type="line"/>
      <point x="121" y="54"/>
      <point x="111" y="47"/>
      <point x="95" y="45" type="curve"/>
      <point x="24" y="34" type="line"/>
      <point x="17" y="32"/>
      <point x="14" y="30"/>
      <point x="14" y="23" type="curve"/>
      <point x="14" y="10" type="line"/>
      <point x="14" y="3"/>
      <point x="16" y="0"/>
    </contour>
    <contour>
      <point x="729" y="697" type="curve"/>
      <point x="799" y="708" type="line"/>
      <point x="806" y="710"/>
      <point x="809" y="712"/>
      <point x="809" y="719" type="curve"/>
      <point x="809" y="732" type="line"/>
      <point x="809" y="739"/>
      <point x="807" y="742"/>
      <point x="800" y="742" type="curve"/>
      <point x="496" y="742" type="line"/>
      <point x="489" y="742"/>
      <point x="486" y="740"/>
      <point x="486" y="733" type="curve"/>
      <point x="486" y="720" type="line"/>
      <point x="486" y="713"/>
      <point x="488" y="710"/>
      <point x="495" y="709" type="curve"/>
      <point x="575" y="700" type="line"/>
      <point x="615" y="696"/>
      <point x="621" y="688"/>
      <point x="596" y="655" type="curve"/>
      <point x="388" y="380" type="line"/>
      <point x="429" y="334" type="line"/>
      <point x="692" y="675" type="line"/>
      <point x="703" y="688"/>
      <point x="713" y="695"/>
    </contour>
    <contour>
      <point x="283" y="701" type="curve"/>
      <point x="357" y="709" type="line"/>
      <point x="364" y="710"/>
      <point x="367" y="712"/>
      <point x="367" y="719" type="curve"/>
      <point x="367" y="732" type="line"/>
      <point x="367" y="739"/>
      <point x="365" y="742"/>
      <point x="358" y="742" type="curve"/>
      <point x="24" y="742" type="line"/>
      <point x="17" y="742"/>
      <point x="14" y="740"/>
      <point x="14" y="733" type="curve"/>
      <point x="14" y="720" type="line"/>
      <point x="14" y="713"/>
      <point x="16" y="710"/>
      <point x="23" y="709" type="curve"/>
      <point x="88" y="698" type="line"/>
      <point x="105" y="695"/>
      <point x="116" y="689"/>
      <point x="125" y="677" type="curve"/>
      <point x="575" y="88" type="line"/>
      <point x="599" y="56"/>
      <point x="597" y="46"/>
      <point x="556" y="41" type="curve"/>
      <point x="482" y="33" type="line"/>
      <point x="475" y="32"/>
      <point x="472" y="30"/>
      <point x="472" y="23" type="curve"/>
      <point x="472" y="10" type="line"/>
      <point x="472" y="3"/>
      <point x="474" y="0"/>
      <point x="481" y="0" type="curve"/>
      <point x="814" y="0" type="line"/>
      <point x="821" y="0"/>
      <point x="824" y="2"/>
      <point x="824" y="9" type="curve"/>
      <point x="824" y="22" type="line"/>
      <point x="824" y="29"/>
      <point x="822" y="32"/>
      <point x="815" y="33" type="curve"/>
      <point x="751" y="44" type="line"/>
      <point x="734" y="47"/>
      <point x="723" y="53"/>
      <point x="714" y="65" type="curve"/>
      <point x="264" y="654" type="line"/>
      <point x="240" y="686"/>
      <point x="242" y="696"/>
    </contour>
  </outline>
</glyph>
<glyph name="Y" format="2">
  <advance width="833"/>
  <unicode hex="0059"/>
  <anchor x="427" y="0" name="bottom"/>
  <anchor x="435" y="742" name="top"/>
  <anchor x="18" y="742" name="topleft"/>
  <outline>
    <contour>
      <point x="377" y="0" type="line"/>
      <point x="475" y="0" type="line"/>
      <point x="475" y="341" type="line"/>
      <point x="377" y="341" type="line"/>
    </contour>
    <contour>
      <point x="108" y="679" type="curve"/>
      <point x="398" y="278" type="line"/>
      <point x="450" y="278" type="line"/>
      <point x="717" y="677" type="line"/>
      <point x="726" y="691"/>
      <point x="736" y="698"/>
      <point x="752" y="700" type="curve"/>
      <point x="813" y="709" type="line"/>
      <point x="820" y="710"/>
      <point x="823" y="712"/>
      <point x="823" y="719" type="curve"/>
      <point x="823" y="732" type="line"/>
      <point x="823" y="739"/>
      <point x="821" y="742"/>
      <point x="814" y="742" type="curve"/>
      <point x="536" y="742" type="line"/>
      <point x="529" y="742"/>
      <point x="526" y="740"/>
      <point x="526" y="733" type="curve"/>
      <point x="526" y="720" type="line"/>
      <point x="526" y="713"/>
      <point x="528" y="710"/>
      <point x="535" y="709" type="curve"/>
      <point x="600" y="700" type="line"/>
      <point x="640" y="694"/>
      <point x="646" y="685"/>
      <point x="624" y="651" type="curve"/>
      <point x="404" y="317" type="line"/>
      <point x="471" y="344" type="line"/>
      <point x="247" y="654" type="line"/>
      <point x="223" y="686"/>
      <point x="226" y="696"/>
      <point x="267" y="700" type="curve"/>
      <point x="344" y="709" type="line"/>
      <point x="351" y="710"/>
      <point x="354" y="712"/>
      <point x="354" y="719" type="curve"/>
      <point x="354" y="732" type="line"/>
      <point x="354" y="739"/>
      <point x="352" y="742"/>
      <point x="345" y="742" type="curve"/>
      <point x="22" y="742" type="line"/>
      <point x="15" y="742"/>
      <point x="12" y="740"/>
      <point x="12" y="733" type="curve"/>
      <point x="12" y="720" type="line"/>
      <point x="12" y="713"/>
      <point x="14" y="710"/>
      <point x="21" y="709" type="curve"/>
      <point x="71" y="701" type="line"/>
      <point x="88" y="698"/>
      <point x="99" y="692"/>
    </contour>
    <contour>
      <point x="270" y="0" type="curve"/>
      <point x="584" y="0" type="line"/>
      <point x="591" y="0"/>
      <point x="594" y="2"/>
      <point x="594" y="9" type="curve"/>
      <point x="594" y="22" type="line"/>
      <point x="594" y="29"/>
      <point x="592" y="32"/>
      <point x="585" y="34" type="curve"/>
      <point x="496" y="49" type="line"/>
      <point x="480" y="52"/>
      <point x="475" y="57"/>
      <point x="475" y="73" type="curve"/>
      <point x="475" y="215" type="line"/>
      <point x="377" y="215" type="line"/>
      <point x="377" y="74" type="line"/>
      <point x="377" y="58"/>
      <point x="373" y="52"/>
      <point x="357" y="49" type="curve"/>
      <point x="271" y="34" type="line"/>
      <point x="264" y="33"/>
      <point x="261" y="30"/>
      <point x="261" y="23" type="curve"/>
      <point x="261" y="10" type="line"/>
      <point x="261" y="3"/>
      <point x="263" y="0"/>
    </contour>
  </outline>
</glyph>
<glyph name="Z" format="2">
  <advance width="685"/>
  <unicode hex="005A"/>
  <anchor x="346" y="0" name="bottom"/>
  <anchor x="346" y="370" name="center"/>
  <anchor x="372" y="742" name="top"/>
  <outline>
    <contour>
      <point x="66" y="0" type="curve"/>
      <point x="535" y="0" type="line"/>
      <point x="590" y="-4" type="line"/>
      <point x="623" y="-6"/>
      <point x="626" y="-3"/>
      <point x="627" y="16" type="curve"/>
      <point x="637" y="199" type="line"/>
      <point x="638" y="206"/>
      <point x="636" y="209"/>
      <point x="629" y="210" type="curve"/>
      <point x="612" y="213" type="line"/>
      <point x="605" y="215"/>
      <point x="601" y="213"/>
      <point x="599" y="206" type="curve"/>
      <point x="555" y="79" type="line"/>
      <point x="549" y="63"/>
      <point x="541" y="56"/>
      <point x="525" y="56" type="curve"/>
      <point x="149" y="56" type="line"/>
      <point x="167" y="32" type="line"/>
      <point x="632" y="709" type="line"/>
      <point x="636" y="715"/>
      <point x="638" y="719"/>
      <point x="637" y="726" type="curve"/>
      <point x="636" y="732" type="line"/>
      <point x="634" y="739"/>
      <point x="632" y="742"/>
      <point x="625" y="742" type="curve"/>
      <point x="201" y="742" type="line"/>
      <point x="146" y="747" type="line"/>
      <point x="113" y="751"/>
      <point x="110" y="748"/>
      <point x="108" y="729" type="curve"/>
      <point x="95" y="543" type="line"/>
      <point x="94" y="536"/>
      <point x="96" y="533"/>
      <point x="103" y="531" type="curve"/>
      <point x="118" y="528" type="line"/>
      <point x="125" y="527"/>
      <point x="129" y="528"/>
      <point x="131" y="534" type="curve"/>
      <point x="180" y="664" type="line"/>
      <point x="186" y="679"/>
      <point x="194" y="686"/>
      <point x="210" y="686" type="curve"/>
      <point x="529" y="686" type="line"/>
      <point x="529" y="707" type="line"/>
      <point x="59" y="33" type="line"/>
      <point x="55" y="27"/>
      <point x="53" y="23"/>
      <point x="54" y="16" type="curve"/>
      <point x="55" y="10" type="line"/>
      <point x="57" y="3"/>
      <point x="59" y="0"/>
    </contour>
  </outline>
</glyph>
<glyph name="bracketleft" format="2">
  <advance width="463"/>
  <unicode hex="005B"/>
  <outline>
    <contour>
      <point x="416" y="801" type="curve"/>
      <point x="416" y="816" type="line"/>
      <point x="416" y="823"/>
      <point x="414" y="826"/>
      <point x="407" y="826" type="curve"/>
      <point x="153" y="835" type="line"/>
      <point x="146" y="835"/>
      <point x="143" y="833"/>
      <point x="143" y="826" type="curve"/>
      <point x="143" y="-123" type="line"/>
      <point x="143" y="-130"/>
      <point x="145" y="-133"/>
      <point x="152" y="-133" type="curve"/>
      <point x="406" y="-127" type="line"/>
      <point x="413" y="-127"/>
      <point x="416" y="-125"/>
      <point x="416" y="-118" type="curve"/>
      <point x="416" y="-103" type="line"/>
      <point x="416" y="-96"/>
      <point x="414" y="-93"/>
      <point x="407" y="-92" type="curve"/>
      <point x="243" y="-83" type="line"/>
      <point x="227" y="-82"/>
      <point x="222" y="-78"/>
      <point x="222" y="-62" type="curve"/>
      <point x="222" y="764" type="line"/>
      <point x="222" y="780"/>
      <point x="227" y="784"/>
      <point x="243" y="785" type="curve"/>
      <point x="406" y="792" type="line"/>
      <point x="413" y="792"/>
      <point x="416" y="794"/>
    </contour>
  </outline>
</glyph>
<glyph name="asciicircum" format="2">
  <advance width="670"/>
  <unicode hex="005E"/>
  <outline>
    <contour>
      <point x="68" y="295" type="curve"/>
      <point x="304" y="727" type="line"/>
      <point x="308" y="733"/>
      <point x="311" y="736"/>
      <point x="318" y="736" type="curve"/>
      <point x="348" y="736" type="line"/>
      <point x="355" y="736"/>
      <point x="358" y="733"/>
      <point x="362" y="727" type="curve"/>
      <point x="601" y="300" type="line"/>
      <point x="605" y="294"/>
      <point x="604" y="291"/>
      <point x="597" y="289" type="curve"/>
      <point x="579" y="286"/>
      <point x="559" y="285"/>
      <point x="541" y="286" type="curve"/>
      <point x="534" y="286"/>
      <point x="531" y="289"/>
      <point x="527" y="295" type="curve"/>
      <point x="331" y="652" type="line"/>
      <point x="140" y="300" type="line"/>
      <point x="136" y="294"/>
      <point x="133" y="291"/>
      <point x="126" y="289" type="curve"/>
      <point x="110" y="286"/>
      <point x="90" y="285"/>
      <point x="72" y="285" type="curve"/>
      <point x="65" y="286"/>
      <point x="64" y="289"/>
    </contour>
  </outline>
</glyph>
<glyph name="underscore" format="2">
  <advance width="670"/>
  <unicode hex="005F"/>
  <outline>
    <contour>
      <point x="3" y="-123" type="curve"/>
      <point x="666" y="-123" type="line"/>
      <point x="673" y="-123"/>
      <point x="676" y="-121"/>
      <point x="676" y="-114" type="curve"/>
      <point x="676" y="-90" type="line"/>
      <point x="676" y="-83"/>
      <point x="674" y="-80"/>
      <point x="667" y="-80" type="curve"/>
      <point x="4" y="-80" type="line"/>
      <point x="-3" y="-80"/>
      <point x="-6" y="-82"/>
      <point x="-6" y="-89" type="curve"/>
      <point x="-6" y="-113" type="line"/>
      <point x="-6" y="-120"/>
      <point x="-4" y="-123"/>
    </contour>
  </outline>
</glyph>
<glyph name="a" format="2">
  <advance width="539"/>
  <unicode hex="0061"/>
  <anchor x="257" y="0" name="bottom"/>
  <anchor x="412" y="0" name="ogonek"/>
  <anchor x="254" y="492" name="top"/>
  <outline>
    <contour>
      <point x="179" y="-8" type="curve" smooth="yes"/>
      <point x="281" y="-8"/>
      <point x="359" y="70"/>
      <point x="368" y="113" type="curve"/>
      <point x="356" y="126" type="line"/>
      <point x="340" y="104"/>
      <point x="286" y="58"/>
      <point x="211" y="58" type="curve" smooth="yes"/>
      <point x="162" y="58"/>
      <point x="131" y="85"/>
      <point x="131" y="128" type="curve" smooth="yes"/>
      <point x="131" y="177"/>
      <point x="164" y="202"/>
      <point x="244" y="214" type="curve" smooth="yes"/>
      <point x="363" y="230" type="line"/>
      <point x="365" y="275" type="line"/>
      <point x="226" y="258" type="line" smooth="yes"/>
      <point x="100" y="243"/>
      <point x="43" y="200"/>
      <point x="43" y="117" type="curve" smooth="yes"/>
      <point x="43" y="43"/>
      <point x="99" y="-8"/>
    </contour>
    <contour>
      <point x="354" y="328" type="curve" smooth="yes"/>
      <point x="354" y="162" type="line"/>
      <point x="446" y="162" type="line"/>
      <point x="446" y="332" type="line" smooth="yes"/>
      <point x="446" y="436"/>
      <point x="373" y="500"/>
      <point x="253" y="500" type="curve" smooth="yes"/>
      <point x="180" y="500"/>
      <point x="117" y="473"/>
      <point x="83" y="457" type="curve"/>
      <point x="77" y="454"/>
      <point x="74" y="451"/>
      <point x="76" y="444" type="curve"/>
      <point x="83" y="408"/>
      <point x="90" y="371"/>
      <point x="98" y="334" type="curve"/>
      <point x="99" y="327"/>
      <point x="102" y="324"/>
      <point x="109" y="324" type="curve"/>
      <point x="120" y="324" type="line"/>
      <point x="127" y="324"/>
      <point x="130" y="326"/>
      <point x="132" y="333" type="curve"/>
      <point x="139" y="368" type="line" smooth="yes"/>
      <point x="153" y="433"/>
      <point x="191" y="445"/>
      <point x="243" y="445" type="curve" smooth="yes"/>
      <point x="314" y="445"/>
      <point x="354" y="403"/>
    </contour>
    <contour>
      <point x="446" y="162" type="line"/>
      <point x="354" y="162" type="line"/>
      <point x="354" y="107" type="line"/>
      <point x="356" y="99" type="line"/>
      <point x="356" y="48" type="line" smooth="yes"/>
      <point x="356" y="-2"/>
      <point x="368" y="-9"/>
      <point x="459" y="0" type="curve" smooth="yes"/>
      <point x="512" y="5" type="line"/>
      <point x="519" y="6"/>
      <point x="522" y="8"/>
      <point x="522" y="15" type="curve"/>
      <point x="522" y="27" type="line"/>
      <point x="522" y="34"/>
      <point x="520" y="37"/>
      <point x="513" y="39" type="curve"/>
      <point x="427" y="59" type="line"/>
      <point x="446" y="28" type="line"/>
    </contour>
  </outline>
</glyph>
<glyph name="b" format="2">
  <advance width="611"/>
  <unicode hex="0062"/>
  <outline>
    <contour>
      <point x="87" y="569" type="line"/>
      <point x="87" y="1" type="line"/>
      <point x="87" y="-6"/>
      <point x="89" y="-9"/>
      <point x="96" y="-9" type="curve"/>
      <point x="117" y="-9" type="line"/>
      <point x="124" y="-9"/>
      <point x="128" y="-7"/>
      <point x="131" y="-1" type="curve"/>
      <point x="179" y="91" type="line"/>
      <point x="179" y="569" type="line"/>
    </contour>
    <contour>
      <point x="162" y="114" type="curve"/>
      <point x="137" y="97" type="line"/>
      <point x="177" y="28"/>
      <point x="244" y="-9"/>
      <point x="328" y="-9" type="curve" smooth="yes"/>
      <point x="467" y="-9"/>
      <point x="558" y="95"/>
      <point x="558" y="254" type="curve" smooth="yes"/>
      <point x="558" y="406"/>
      <point x="482" y="500"/>
      <point x="359" y="500" type="curve" smooth="yes"/>
      <point x="284" y="500"/>
      <point x="208" y="449"/>
      <point x="161" y="366" type="curve"/>
      <point x="171" y="343" type="line"/>
      <point x="214" y="397"/>
      <point x="271" y="427"/>
      <point x="331" y="427" type="curve" smooth="yes"/>
      <point x="414" y="427"/>
      <point x="464" y="361"/>
      <point x="464" y="250" type="curve" smooth="yes"/>
      <point x="464" y="125"/>
      <point x="405" y="52"/>
      <point x="304" y="52" type="curve" smooth="yes"/>
      <point x="245" y="52"/>
      <point x="198" y="72"/>
    </contour>
    <contour>
      <point x="87" y="568" type="line"/>
      <point x="179" y="568" type="line"/>
      <point x="179" y="733" type="line"/>
      <point x="179" y="750"/>
      <point x="172" y="754"/>
      <point x="153" y="751" type="curve"/>
      <point x="20" y="731" type="line"/>
      <point x="13" y="730"/>
      <point x="10" y="728"/>
      <point x="10" y="721" type="curve"/>
      <point x="10" y="709" type="line"/>
      <point x="10" y="702"/>
      <point x="12" y="699"/>
      <point x="19" y="698" type="curve"/>
      <point x="105" y="684" type="line"/>
      <point x="87" y="714" type="line"/>
    </contour>
  </outline>
</glyph>
<glyph name="c" format="2">
  <advance width="523"/>
  <unicode hex="0063"/>
  <anchor x="293" y="0" name="bottom"/>
  <anchor x="293" y="492" name="top"/>
  <outline>
    <contour>
      <point x="285" y="-8" type="curve" smooth="yes"/>
      <point x="360" y="-8"/>
      <point x="425" y="18"/>
      <point x="468" y="65" type="curve"/>
      <point x="473" y="71"/>
      <point x="474" y="75"/>
      <point x="470" y="80" type="curve"/>
      <point x="461" y="94" type="line"/>
      <point x="457" y="100"/>
      <point x="453" y="101"/>
      <point x="448" y="96" type="curve"/>
      <point x="411" y="66"/>
      <point x="367" y="52"/>
      <point x="320" y="52" type="curve" smooth="yes"/>
      <point x="219" y="52"/>
      <point x="149" y="135"/>
      <point x="149" y="255" type="curve" smooth="yes"/>
      <point x="149" y="378"/>
      <point x="200" y="440"/>
      <point x="302" y="440" type="curve" smooth="yes"/>
      <point x="349" y="440"/>
      <point x="391" y="432"/>
      <point x="429" y="417" type="curve"/>
      <point x="386" y="444" type="line"/>
      <point x="412" y="318" type="line"/>
      <point x="413" y="311"/>
      <point x="416" y="308"/>
      <point x="423" y="308" type="curve"/>
      <point x="444" y="308" type="line"/>
      <point x="451" y="308"/>
      <point x="454" y="310"/>
      <point x="455" y="317" type="curve"/>
      <point x="464" y="455" type="line"/>
      <point x="465" y="462"/>
      <point x="463" y="466"/>
      <point x="457" y="469" type="curve"/>
      <point x="411" y="488"/>
      <point x="349" y="500"/>
      <point x="292" y="500" type="curve" smooth="yes"/>
      <point x="150" y="500"/>
      <point x="53" y="396"/>
      <point x="53" y="245" type="curve" smooth="yes"/>
      <point x="53" y="94"/>
      <point x="146" y="-8"/>
    </contour>
  </outline>
</glyph>
<glyph name="d" format="2">
  <advance width="635"/>
  <unicode hex="0064"/>
  <anchor x="319" y="0" name="bottom"/>
  <anchor x="438" y="589" name="center"/>
  <anchor x="319" y="742" name="top"/>
  <anchor x="619" y="492" name="topright"/>
  <outline>
    <contour>
      <point x="433" y="162" type="line"/>
      <point x="525" y="162" type="line"/>
      <point x="525" y="597" type="line"/>
      <point x="433" y="597" type="line"/>
    </contour>
    <contour>
      <point x="449" y="378" type="curve"/>
      <point x="474" y="395" type="line"/>
      <point x="434" y="464"/>
      <point x="367" y="501"/>
      <point x="283" y="501" type="curve" smooth="yes"/>
      <point x="144" y="501"/>
      <point x="53" y="397"/>
      <point x="53" y="238" type="curve" smooth="yes"/>
      <point x="53" y="86"/>
      <point x="129" y="-8"/>
      <point x="252" y="-8" type="curve" smooth="yes"/>
      <point x="327" y="-8"/>
      <point x="403" y="43"/>
      <point x="450" y="126" type="curve"/>
      <point x="440" y="149" type="line"/>
      <point x="397" y="95"/>
      <point x="340" y="65"/>
      <point x="280" y="65" type="curve" smooth="yes"/>
      <point x="197" y="65"/>
      <point x="147" y="131"/>
      <point x="147" y="242" type="curve" smooth="yes"/>
      <point x="147" y="367"/>
      <point x="206" y="440"/>
      <point x="307" y="440" type="curve" smooth="yes"/>
      <point x="366" y="440"/>
      <point x="413" y="420"/>
    </contour>
    <contour>
      <point x="433" y="568" type="line"/>
      <point x="525" y="568" type="line"/>
      <point x="525" y="733" type="line"/>
      <point x="525" y="750"/>
      <point x="518" y="754"/>
      <point x="499" y="751" type="curve"/>
      <point x="366" y="731" type="line"/>
      <point x="359" y="730"/>
      <point x="356" y="728"/>
      <point x="356" y="721" type="curve"/>
      <point x="356" y="709" type="line"/>
      <point x="356" y="702"/>
      <point x="358" y="699"/>
      <point x="365" y="698" type="curve"/>
      <point x="451" y="684" type="line"/>
      <point x="433" y="714" type="line"/>
    </contour>
    <contour>
      <point x="525" y="162" type="line"/>
      <point x="433" y="162" type="line"/>
      <point x="433" y="129" type="line"/>
      <point x="436" y="120" type="line"/>
      <point x="436" y="6" type="line" smooth="yes"/>
      <point x="436" y="-5"/>
      <point x="442" y="-9"/>
      <point x="452" y="-8" type="curve" smooth="yes"/>
      <point x="591" y="5" type="line"/>
      <point x="598" y="6"/>
      <point x="601" y="8"/>
      <point x="601" y="15" type="curve"/>
      <point x="601" y="27" type="line"/>
      <point x="601" y="34"/>
      <point x="599" y="37"/>
      <point x="592" y="39" type="curve"/>
      <point x="506" y="59" type="line"/>
      <point x="525" y="28" type="line"/>
    </contour>
  </outline>
</glyph>
<glyph name="e" format="2">
  <advance width="542"/>
  <unicode hex="0065"/>
  <anchor x="289" y="0" name="bottom"/>
  <anchor x="419" y="0" name="ogonek"/>
  <anchor x="287" y="492" name="top"/>
  <outline>
    <contour>
      <point x="289" y="-8" type="curve" smooth="yes"/>
      <point x="358" y="-8"/>
      <point x="422" y="19"/>
      <point x="463" y="65" type="curve"/>
      <point x="467" y="71"/>
      <point x="468" y="75"/>
      <point x="464" y="81" type="curve"/>
      <point x="455" y="94" type="line"/>
      <point x="452" y="99"/>
      <point x="449" y="101"/>
      <point x="443" y="96" type="curve"/>
      <point x="408" y="66"/>
      <point x="368" y="52"/>
      <point x="314" y="52" type="curve" smooth="yes"/>
      <point x="218" y="52"/>
      <point x="146" y="139"/>
      <point x="146" y="254" type="curve" smooth="yes"/>
      <point x="146" y="376"/>
      <point x="197" y="445"/>
      <point x="285" y="445" type="curve" smooth="yes"/>
      <point x="360" y="445"/>
      <point x="416" y="380"/>
      <point x="416" y="293" type="curve" smooth="yes"/>
      <point x="416" y="287"/>
      <point x="416" y="281"/>
      <point x="416" y="275" type="curve"/>
      <point x="439" y="297" type="line"/>
      <point x="132" y="297" type="line"/>
      <point x="132" y="251" type="line"/>
      <point x="487" y="251" type="line"/>
      <point x="494" y="251"/>
      <point x="497" y="253"/>
      <point x="499" y="260" type="curve"/>
      <point x="500" y="267"/>
      <point x="500" y="275"/>
      <point x="500" y="281" type="curve" smooth="yes"/>
      <point x="500" y="417"/>
      <point x="406" y="500"/>
      <point x="295" y="500" type="curve" smooth="yes"/>
      <point x="163" y="500"/>
      <point x="53" y="412"/>
      <point x="53" y="249" type="curve" smooth="yes"/>
      <point x="53" y="86"/>
      <point x="158" y="-8"/>
    </contour>
  </outline>
</glyph>
<glyph name="f" format="2">
  <advance width="387"/>
  <unicode hex="0066"/>
  <outline>
    <contour>
      <point x="125" y="493" type="curve" smooth="yes"/>
      <point x="125" y="0" type="line"/>
      <point x="217" y="0" type="line"/>
      <point x="217" y="492" type="line"/>
      <point x="217" y="512"/>
      <point x="215" y="524"/>
      <point x="215" y="571" type="curve" smooth="yes"/>
      <point x="215" y="636"/>
      <point x="251" y="671"/>
      <point x="315" y="671" type="curve" smooth="yes"/>
      <point x="360" y="671"/>
      <point x="392" y="662"/>
      <point x="417" y="652" type="curve"/>
      <point x="423" y="649"/>
      <point x="427" y="650"/>
      <point x="430" y="656" type="curve"/>
      <point x="436" y="667"/>
      <point x="441" y="681"/>
      <point x="441" y="699" type="curve" smooth="yes"/>
      <point x="441" y="731"/>
      <point x="410" y="750"/>
      <point x="356" y="750" type="curve" smooth="yes"/>
      <point x="232" y="750"/>
      <point x="125" y="631"/>
    </contour>
    <contour>
      <point x="54" y="443" type="curve"/>
      <point x="369" y="443" type="line"/>
      <point x="376" y="443"/>
      <point x="379" y="445"/>
      <point x="381" y="452" type="curve"/>
      <point x="383" y="463"/>
      <point x="384" y="474"/>
      <point x="383" y="485" type="curve"/>
      <point x="383" y="492"/>
      <point x="381" y="495"/>
      <point x="374" y="495" type="curve"/>
      <point x="312" y="492" type="line"/>
      <point x="125" y="492" type="line"/>
      <point x="63" y="484" type="line"/>
      <point x="56" y="483"/>
      <point x="53" y="481"/>
      <point x="51" y="474" type="curve"/>
      <point x="47" y="453" type="line"/>
      <point x="46" y="446"/>
      <point x="47" y="443"/>
    </contour>
    <contour>
      <point x="65" y="0" type="curve"/>
      <point x="299" y="0" type="line"/>
      <point x="306" y="0"/>
      <point x="309" y="2"/>
      <point x="309" y="9" type="curve"/>
      <point x="309" y="19" type="line"/>
      <point x="309" y="26"/>
      <point x="307" y="29"/>
      <point x="300" y="30" type="curve"/>
      <point x="238" y="41" type="line"/>
      <point x="219" y="44"/>
      <point x="217" y="46"/>
      <point x="217" y="64" type="curve"/>
      <point x="217" y="180" type="line"/>
      <point x="125" y="180" type="line"/>
      <point x="125" y="65" type="line"/>
      <point x="125" y="46"/>
      <point x="123" y="44"/>
      <point x="105" y="40" type="curve"/>
      <point x="66" y="31" type="line"/>
      <point x="59" y="30"/>
      <point x="56" y="27"/>
      <point x="56" y="20" type="curve"/>
      <point x="56" y="10" type="line"/>
      <point x="56" y="3"/>
      <point x="58" y="0"/>
    </contour>
  </outline>
</glyph>
<glyph name="g" format="2">
  <advance width="547"/>
  <unicode hex="0067"/>
  <anchor x="271" y="-205" name="bottom"/>
  <anchor x="287" y="492" name="top"/>
  <outline>
    <contour>
      <point x="254" y="-225" type="curve" smooth="yes"/>
      <point x="411" y="-225"/>
      <point x="509" y="-156"/>
      <point x="509" y="-46" type="curve" smooth="yes"/>
      <point x="509" y="28"/>
      <point x="461" y="69"/>
      <point x="372" y="69" type="curve" smooth="yes"/>
      <point x="225" y="69" type="line" smooth="yes"/>
      <point x="179" y="69"/>
      <point x="158" y="83"/>
      <point x="158" y="114" type="curve" smooth="yes"/>
      <point x="158" y="141"/>
      <point x="176" y="165"/>
      <point x="213" y="188" type="curve"/>
      <point x="185" y="194" type="line"/>
      <point x="108" y="150"/>
      <point x="88" y="128"/>
      <point x="88" y="87" type="curve" smooth="yes"/>
      <point x="88" y="24"/>
      <point x="135" y="-9"/>
      <point x="226" y="-9" type="curve" smooth="yes"/>
      <point x="348" y="-9" type="line" smooth="yes"/>
      <point x="403" y="-9"/>
      <point x="434" y="-33"/>
      <point x="434" y="-77" type="curve" smooth="yes"/>
      <point x="434" y="-139"/>
      <point x="378" y="-170"/>
      <point x="269" y="-170" type="curve" smooth="yes"/>
      <point x="173" y="-170"/>
      <point x="119" y="-137"/>
      <point x="119" y="-78" type="curve" smooth="yes"/>
      <point x="119" y="-46"/>
      <point x="139" y="-18"/>
      <point x="177" y="4" type="curve"/>
      <point x="147" y="15" type="line"/>
      <point x="87" y="-6"/>
      <point x="41" y="-54"/>
      <point x="41" y="-97" type="curve" smooth="yes"/>
      <point x="41" y="-181"/>
      <point x="114" y="-225"/>
    </contour>
    <contour>
      <point x="269" y="210" type="curve" smooth="yes"/>
      <point x="200" y="210"/>
      <point x="153" y="262"/>
      <point x="153" y="337" type="curve" smooth="yes"/>
      <point x="153" y="405"/>
      <point x="195" y="448"/>
      <point x="261" y="448" type="curve" smooth="yes"/>
      <point x="333" y="448"/>
      <point x="384" y="398"/>
      <point x="384" y="327" type="curve" smooth="yes"/>
      <point x="384" y="254"/>
      <point x="341" y="210"/>
    </contour>
    <contour>
      <point x="354" y="476" type="curve"/>
      <point x="353" y="440" type="line"/>
      <point x="521" y="440" type="line"/>
      <point x="528" y="440"/>
      <point x="531" y="442"/>
      <point x="530" y="449" type="curve"/>
      <point x="529" y="469"/>
      <point x="523" y="492"/>
      <point x="516" y="508" type="curve"/>
      <point x="512" y="514"/>
      <point x="509" y="516"/>
      <point x="502" y="515" type="curve"/>
      <point x="392" y="484" type="line"/>
      <point x="452" y="480" type="line"/>
      <point x="382" y="489"/>
      <point x="323" y="499"/>
      <point x="267" y="499" type="curve" smooth="yes"/>
      <point x="147" y="499"/>
      <point x="65" y="430"/>
      <point x="65" y="328" type="curve" smooth="yes"/>
      <point x="65" y="228"/>
      <point x="147" y="159"/>
      <point x="267" y="159" type="curve" smooth="yes"/>
      <point x="388" y="159"/>
      <point x="466" y="226"/>
      <point x="466" y="329" type="curve" smooth="yes"/>
      <point x="466" y="395"/>
      <point x="425" y="449"/>
    </contour>
  </outline>
</glyph>
<glyph name="h" format="2">
  <advance width="657"/>
  <unicode hex="0068"/>
  <anchor x="325" y="0" name="bottom"/>
  <anchor x="189" y="589" name="center"/>
  <anchor x="147" y="742" name="top"/>
  <outline>
    <contour>
      <point x="100" y="0" type="line"/>
      <point x="192" y="0" type="line"/>
      <point x="192" y="569" type="line"/>
      <point x="100" y="569" type="line"/>
    </contour>
    <contour>
      <point x="456" y="325" type="curve" smooth="yes"/>
      <point x="456" y="0" type="line"/>
      <point x="548" y="0" type="line"/>
      <point x="548" y="337" type="line" smooth="yes"/>
      <point x="548" y="445"/>
      <point x="498" y="500"/>
      <point x="400" y="500" type="curve" smooth="yes"/>
      <point x="321" y="500"/>
      <point x="225" y="442"/>
      <point x="175" y="364" type="curve"/>
      <point x="183" y="340" type="line"/>
      <point x="237" y="394"/>
      <point x="301" y="425"/>
      <point x="357" y="425" type="curve" smooth="yes"/>
      <point x="422" y="425"/>
      <point x="456" y="390"/>
    </contour>
    <contour>
      <point x="40" y="0" type="curve"/>
      <point x="274" y="0" type="line"/>
      <point x="281" y="0"/>
      <point x="284" y="2"/>
      <point x="284" y="9" type="curve"/>
      <point x="284" y="19" type="line"/>
      <point x="284" y="26"/>
      <point x="282" y="29"/>
      <point x="275" y="30" type="curve"/>
      <point x="213" y="41" type="line"/>
      <point x="194" y="44"/>
      <point x="192" y="46"/>
      <point x="192" y="64" type="curve"/>
      <point x="192" y="180" type="line"/>
      <point x="100" y="180" type="line"/>
      <point x="100" y="65" type="line"/>
      <point x="100" y="46"/>
      <point x="98" y="44"/>
      <point x="80" y="40" type="curve"/>
      <point x="41" y="31" type="line"/>
      <point x="34" y="30"/>
      <point x="31" y="27"/>
      <point x="31" y="20" type="curve"/>
      <point x="31" y="10" type="line"/>
      <point x="31" y="3"/>
      <point x="33" y="0"/>
    </contour>
    <contour>
      <point x="100" y="568" type="line"/>
      <point x="192" y="568" type="line"/>
      <point x="192" y="733" type="line"/>
      <point x="192" y="750"/>
      <point x="185" y="754"/>
      <point x="166" y="751" type="curve"/>
      <point x="33" y="731" type="line"/>
      <point x="26" y="730"/>
      <point x="23" y="728"/>
      <point x="23" y="721" type="curve"/>
      <point x="23" y="709" type="line"/>
      <point x="23" y="702"/>
      <point x="25" y="699"/>
      <point x="32" y="698" type="curve"/>
      <point x="118" y="684" type="line"/>
      <point x="100" y="714" type="line"/>
    </contour>
    <contour>
      <point x="396" y="0" type="curve"/>
      <point x="630" y="0" type="line"/>
      <point x="637" y="0"/>
      <point x="640" y="2"/>
      <point x="640" y="9" type="curve"/>
      <point x="640" y="19" type="line"/>
      <point x="640" y="26"/>
      <point x="638" y="29"/>
      <point x="631" y="30" type="curve"/>
      <point x="569" y="41" type="line"/>
      <point x="550" y="44"/>
      <point x="548" y="46"/>
      <point x="548" y="64" type="curve"/>
      <point x="548" y="180" type="line"/>
      <point x="456" y="180" type="line"/>
      <point x="456" y="65" type="line"/>
      <point x="456" y="46"/>
      <point x="454" y="44"/>
      <point x="436" y="40" type="curve"/>
      <point x="397" y="31" type="line"/>
      <point x="390" y="30"/>
      <point x="387" y="27"/>
      <point x="387" y="20" type="curve"/>
      <point x="387" y="10" type="line"/>
      <point x="387" y="3"/>
      <point x="389" y="0"/>
    </contour>
  </outline>
</glyph>
<glyph name="k" format="2">
  <advance width="563"/>
  <unicode hex="006B"/>
  <anchor x="282" y="0" name="bottom"/>
  <anchor x="282" y="742" name="top"/>
  <outline>
    <contour>
      <point x="100" y="0" type="line"/>
      <point x="192" y="0" type="line"/>
      <point x="192" y="569" type="line"/>
      <point x="100" y="569" type="line"/>
    </contour>
    <contour>
      <point x="40" y="0" type="curve"/>
      <point x="274" y="0" type="line"/>
      <point x="281" y="0"/>
      <point x="284" y="2"/>
      <point x="284" y="9" type="curve"/>
      <point x="284" y="19" type="line"/>
      <point x="284" y="26"/>
      <point x="282" y="29"/>
      <point x="275" y="30" type="curve"/>
      <point x="213" y="41" type="line"/>
      <point x="194" y="44"/>
      <point x="192" y="46"/>
      <point x="192" y="64" type="curve"/>
      <point x="192" y="180" type="line"/>
      <point x="100" y="180" type="line"/>
      <point x="100" y="65" type="line"/>
      <point x="100" y="46"/>
      <point x="98" y="44"/>
      <point x="80" y="40" type="curve"/>
      <point x="41" y="31" type="line"/>
      <point x="34" y="30"/>
      <point x="31" y="27"/>
      <point x="31" y="20" type="curve"/>
      <point x="31" y="10" type="line"/>
      <point x="31" y="3"/>
      <point x="33" y="0"/>
    </contour>
    <contour>
      <point x="100" y="568" type="line"/>
      <point x="192" y="568" type="line"/>
      <point x="192" y="733" type="line"/>
      <point x="192" y="750"/>
      <point x="185" y="754"/>
      <point x="166" y="751" type="curve"/>
      <point x="33" y="731" type="line"/>
      <point x="26" y="730"/>
      <point x="23" y="728"/>
      <point x="23" y="721" type="curve"/>
      <point x="23" y="709" type="line"/>
      <point x="23" y="702"/>
      <point x="25" y="699"/>
      <point x="32" y="698" type="curve"/>
      <point x="118" y="684" type="line"/>
      <point x="100" y="714" type="line"/>
    </contour>
    <contour>
      <point x="436" y="0" type="curve"/>
      <point x="556" y="0" type="line"/>
      <point x="563" y="0"/>
      <point x="566" y="2"/>
      <point x="566" y="9" type="curve"/>
      <point x="566" y="19" type="line"/>
      <point x="566" y="26"/>
      <point x="564" y="30"/>
      <point x="557" y="31" type="curve"/>
      <point x="518" y="42" type="line"/>
      <point x="502" y="47"/>
      <point x="491" y="54"/>
      <point x="481" y="66" type="curve"/>
      <point x="280" y="307" type="line"/>
      <point x="220" y="254" type="line"/>
      <point x="421" y="8" type="line"/>
      <point x="425" y="2"/>
      <point x="429" y="0"/>
    </contour>
    <contour>
      <point x="176" y="200" type="line"/>
      <point x="442" y="433" type="line"/>
      <point x="455" y="444"/>
      <point x="466" y="450"/>
      <point x="482" y="453" type="curve"/>
      <point x="524" y="460" type="line"/>
      <point x="531" y="461"/>
      <point x="534" y="464"/>
      <point x="534" y="471" type="curve"/>
      <point x="534" y="482" type="line"/>
      <point x="534" y="489"/>
      <point x="532" y="492"/>
      <point x="525" y="492" type="curve"/>
      <point x="316" y="492" type="line"/>
      <point x="309" y="492"/>
      <point x="306" y="490"/>
      <point x="306" y="483" type="curve"/>
      <point x="306" y="472" type="line"/>
      <point x="306" y="465"/>
      <point x="308" y="462"/>
      <point x="315" y="461" type="curve"/>
      <point x="334" y="459" type="line"/>
      <point x="374" y="455"/>
      <point x="378" y="448"/>
      <point x="348" y="420" type="curve"/>
      <point x="170" y="255" type="line"/>
    </contour>
  </outline>
</glyph>
<glyph name="l" format="2">
  <advance width="293"/>
  <unicode hex="006C"/>
  <anchor x="147" y="0" name="bottom"/>
  <anchor x="147" y="397" name="center"/>
  <anchor x="147" y="742" name="top"/>
  <anchor x="285" y="492" name="topright"/>
  <outline>
    <contour>
      <point x="100" y="0" type="line"/>
      <point x="192" y="0" type="line"/>
      <point x="192" y="569" type="line"/>
      <point x="100" y="569" type="line"/>
    </contour>
    <contour>
      <point x="40" y="0" type="curve"/>
      <point x="274" y="0" type="line"/>
      <point x="281" y="0"/>
      <point x="284" y="2"/>
      <point x="284" y="9" type="curve"/>
      <point x="284" y="19" type="line"/>
      <point x="284" y="26"/>
      <point x="282" y="29"/>
      <point x="275" y="30" type="curve"/>
      <point x="213" y="41" type="line"/>
      <point x="194" y="44"/>
      <point x="192" y="46"/>
      <point x="192" y="64" type="curve"/>
      <point x="192" y="180" type="line"/>
      <point x="100" y="180" type="line"/>
      <point x="100" y="65" type="line"/>
      <point x="100" y="46"/>
      <point x="98" y="44"/>
      <point x="80" y="40" type="curve"/>
      <point x="41" y="31" type="line"/>
      <point x="34" y="30"/>
      <point x="31" y="27"/>
      <point x="31" y="20" type="curve"/>
      <point x="31" y="10" type="line"/>
      <point x="31" y="3"/>
      <point x="33" y="0"/>
    </contour>
    <contour>
      <point x="100" y="568" type="line"/>
      <point x="192" y="568" type="line"/>
      <point x="192" y="733" type="line"/>
      <point x="192" y="750"/>
      <point x="185" y="754"/>
      <point x="166" y="751" type="curve"/>
      <point x="33" y="731" type="line"/>
      <point x="26" y="730"/>
      <point x="23" y="728"/>
      <point x="23" y="721" type="curve"/>
      <point x="23" y="709" type="line"/>
      <point x="23" y="702"/>
      <point x="25" y="699"/>
      <point x="32" y="698" type="curve"/>
      <point x="118" y="684" type="line"/>
      <point x="100" y="714" type="line"/>
    </contour>
  </outline>
</glyph>
<glyph name="m" format="2">
  <advance width="992"/>
  <unicode hex="006D"/>
  <anchor x="499" y="0" name="bottom"/>
  <anchor x="499" y="492" name="top"/>
  <outline>
    <contour>
      <point x="718" y="0" type="curve"/>
      <point x="965" y="0" type="line"/>
      <point x="972" y="0"/>
      <point x="975" y="2"/>
      <point x="975" y="9" type="curve"/>
      <point x="975" y="19" type="line"/>
      <point x="975" y="26"/>
      <point x="973" y="29"/>
      <point x="966" y="30" type="curve"/>
      <point x="904" y="41" type="line"/>
      <point x="885" y="44"/>
      <point x="883" y="46"/>
      <point x="883" y="64" type="curve"/>
      <point x="883" y="337" type="line" smooth="yes"/>
      <point x="883" y="445"/>
      <point x="836" y="500"/>
      <point x="745" y="500" type="curve" smooth="yes"/>
      <point x="665" y="500"/>
      <point x="579" y="443"/>
      <point x="531" y="364" type="curve"/>
      <point x="540" y="340" type="line"/>
      <point x="592" y="395"/>
      <point x="650" y="425"/>
      <point x="703" y="425" type="curve" smooth="yes"/>
      <point x="760" y="425"/>
      <point x="791" y="390"/>
      <point x="791" y="325" type="curve" smooth="yes"/>
      <point x="791" y="65" type="line"/>
      <point x="791" y="46"/>
      <point x="789" y="44"/>
      <point x="771" y="40" type="curve"/>
      <point x="719" y="31" type="line"/>
      <point x="712" y="30"/>
      <point x="709" y="27"/>
      <point x="709" y="20" type="curve"/>
      <point x="709" y="10" type="line"/>
      <point x="709" y="3"/>
      <point x="711" y="0"/>
    </contour>
    <contour>
      <point x="61" y="0" type="curve"/>
      <point x="285" y="0" type="line"/>
      <point x="292" y="0"/>
      <point x="295" y="2"/>
      <point x="295" y="9" type="curve"/>
      <point x="295" y="19" type="line"/>
      <point x="295" y="26"/>
      <point x="293" y="29"/>
      <point x="286" y="31" type="curve"/>
      <point x="235" y="40" type="line"/>
      <point x="216" y="44"/>
      <point x="214" y="46"/>
      <point x="214" y="64" type="curve"/>
      <point x="214" y="316" type="line"/>
      <point x="122" y="316" type="line"/>
      <point x="122" y="65" type="line"/>
      <point x="122" y="46"/>
      <point x="120" y="44"/>
      <point x="102" y="40" type="curve"/>
      <point x="62" y="31" type="line"/>
      <point x="55" y="30"/>
      <point x="52" y="27"/>
      <point x="52" y="20" type="curve"/>
      <point x="52" y="10" type="line"/>
      <point x="52" y="3"/>
      <point x="54" y="0"/>
    </contour>
    <contour>
      <point x="389" y="0" type="curve"/>
      <point x="610" y="0" type="line"/>
      <point x="617" y="0"/>
      <point x="620" y="2"/>
      <point x="620" y="9" type="curve"/>
      <point x="620" y="19" type="line"/>
      <point x="620" y="26"/>
      <point x="618" y="29"/>
      <point x="611" y="31" type="curve"/>
      <point x="567" y="40" type="line"/>
      <point x="548" y="44"/>
      <point x="546" y="46"/>
      <point x="546" y="64" type="curve"/>
      <point x="546" y="337" type="line" smooth="yes"/>
      <point x="546" y="444"/>
      <point x="500" y="500"/>
      <point x="410" y="500" type="curve" smooth="yes"/>
      <point x="330" y="500"/>
      <point x="244" y="444"/>
      <point x="194" y="364" type="curve"/>
      <point x="203" y="340" type="line"/>
      <point x="257" y="396"/>
      <point x="313" y="425"/>
      <point x="367" y="425" type="curve" smooth="yes"/>
      <point x="424" y="425"/>
      <point x="454" y="390"/>
      <point x="454" y="325" type="curve" smooth="yes"/>
      <point x="454" y="65" type="line"/>
      <point x="454" y="46"/>
      <point x="452" y="44"/>
      <point x="434" y="40" type="curve"/>
      <point x="390" y="31" type="line"/>
      <point x="383" y="30"/>
      <point x="380" y="27"/>
      <point x="380" y="20" type="curve"/>
      <point x="380" y="10" type="line"/>
      <point x="380" y="3"/>
      <point x="382" y="0"/>
    </contour>
    <contour>
      <point x="122" y="316" type="line"/>
      <point x="214" y="316" type="line"/>
      <point x="214" y="365" type="line"/>
      <point x="208" y="382" type="line"/>
      <point x="208" y="481" type="line"/>
      <point x="208" y="498"/>
      <point x="201" y="502"/>
      <point x="182" y="499" type="curve"/>
      <point x="55" y="480" type="line"/>
      <point x="48" y="478"/>
      <point x="45" y="476"/>
      <point x="45" y="469" type="curve"/>
      <point x="45" y="457" type="line"/>
      <point x="45" y="450"/>
      <point x="47" y="447"/>
      <point x="54" y="446" type="curve"/>
      <point x="140" y="432" type="line"/>
      <point x="122" y="462" type="line"/>
    </contour>
  </outline>
</glyph>
<glyph name="n" format="2">
  <advance width="680"/>
  <unicode hex="006E"/>
  <anchor x="355" y="0" name="bottom"/>
  <anchor x="355" y="492" name="top"/>
  <outline>
    <contour>
      <point x="479" y="325" type="curve" smooth="yes"/>
      <point x="479" y="0" type="line"/>
      <point x="571" y="0" type="line"/>
      <point x="571" y="337" type="line" smooth="yes"/>
      <point x="571" y="445"/>
      <point x="521" y="500"/>
      <point x="423" y="500" type="curve" smooth="yes"/>
      <point x="339" y="500"/>
      <point x="249" y="444"/>
      <point x="196" y="364" type="curve"/>
      <point x="205" y="340" type="line"/>
      <point x="258" y="393"/>
      <point x="323" y="425"/>
      <point x="380" y="425" type="curve" smooth="yes"/>
      <point x="445" y="425"/>
      <point x="479" y="390"/>
    </contour>
    <contour>
      <point x="122" y="0" type="line"/>
      <point x="214" y="0" type="line"/>
      <point x="214" y="316" type="line"/>
      <point x="122" y="316" type="line"/>
    </contour>
    <contour>
      <point x="62" y="0" type="curve"/>
      <point x="296" y="0" type="line"/>
      <point x="303" y="0"/>
      <point x="306" y="2"/>
      <point x="306" y="9" type="curve"/>
      <point x="306" y="19" type="line"/>
      <point x="306" y="26"/>
      <point x="304" y="29"/>
      <point x="297" y="30" type="curve"/>
      <point x="235" y="41" type="line"/>
      <point x="216" y="44"/>
      <point x="214" y="46"/>
      <point x="214" y="64" type="curve"/>
      <point x="214" y="180" type="line"/>
      <point x="122" y="180" type="line"/>
      <point x="122" y="65" type="line"/>
      <point x="122" y="46"/>
      <point x="120" y="44"/>
      <point x="102" y="40" type="curve"/>
      <point x="63" y="31" type="line"/>
      <point x="56" y="30"/>
      <point x="53" y="27"/>
      <point x="53" y="20" type="curve"/>
      <point x="53" y="10" type="line"/>
      <point x="53" y="3"/>
      <point x="55" y="0"/>
    </contour>
    <contour>
      <point x="419" y="0" type="curve"/>
      <point x="653" y="0" type="line"/>
      <point x="660" y="0"/>
      <point x="663" y="2"/>
      <point x="663" y="9" type="curve"/>
      <point x="663" y="19" type="line"/>
      <point x="663" y="26"/>
      <point x="661" y="29"/>
      <point x="654" y="30" type="curve"/>
      <point x="592" y="41" type="line"/>
      <point x="573" y="44"/>
      <point x="571" y="46"/>
      <point x="571" y="64" type="curve"/>
      <point x="571" y="180" type="line"/>
      <point x="479" y="180" type="line"/>
      <point x="479" y="65" type="line"/>
      <point x="479" y="46"/>
      <point x="477" y="44"/>
      <point x="459" y="40" type="curve"/>
      <point x="420" y="31" type="line"/>
      <point x="413" y="30"/>
      <point x="410" y="27"/>
      <point x="410" y="20" type="curve"/>
      <point x="410" y="10" type="line"/>
      <point x="410" y="3"/>
      <point x="412" y="0"/>
    </contour>
    <contour>
      <point x="122" y="316" type="line"/>
      <point x="214" y="316" type="line"/>
      <point x="214" y="365" type="line"/>
      <point x="208" y="382" type="line"/>
      <point x="208" y="481" type="line"/>
      <point x="208" y="498"/>
      <point x="201" y="502"/>
      <point x="182" y="499" type="curve"/>
      <point x="55" y="480" type="line"/>
      <point x="48" y="478"/>
      <point x="45" y="476"/>
      <point x="45" y="469" type="curve"/>
      <point x="45" y="457" type="line"/>
      <point x="45" y="450"/>
      <point x="47" y="447"/>
      <point x="54" y="446" type="curve"/>
      <point x="140" y="432" type="line"/>
      <point x="122" y="462" type="line"/>
    </contour>
  </outline>
</glyph>
<glyph name="o" format="2">
  <advance width="602"/>
  <unicode hex="006F"/>
  <anchor x="301" y="0" name="bottom"/>
  <anchor x="301" y="246" name="center"/>
  <anchor x="368" y="0" name="ogonek"/>
  <anchor x="301" y="492" name="top"/>
  <anchor x="578" y="492" name="topright"/>
  <outline>
    <contour>
      <point x="301" y="-8" type="curve" smooth="yes"/>
      <point x="451" y="-8"/>
      <point x="549" y="92"/>
      <point x="549" y="245" type="curve" smooth="yes"/>
      <point x="549" y="399"/>
      <point x="451" y="500"/>
      <point x="301" y="500" type="curve" smooth="yes"/>
      <point x="151" y="500"/>
      <point x="53" y="399"/>
      <point x="53" y="245" type="curve" smooth="yes"/>
      <point x="53" y="92"/>
      <point x="151" y="-8"/>
    </contour>
    <contour>
      <point x="308" y="51" type="curve" smooth="yes"/>
      <point x="213" y="51"/>
      <point x="149" y="138"/>
      <point x="149" y="267" type="curve" smooth="yes"/>
      <point x="149" y="377"/>
      <point x="202" y="441"/>
      <point x="292" y="441" type="curve" smooth="yes"/>
      <point x="387" y="441"/>
      <point x="453" y="353"/>
      <point x="453" y="226" type="curve" smooth="yes"/>
      <point x="453" y="116"/>
      <point x="399" y="51"/>
    </contour>
  </outline>
</glyph>
<glyph name="p" format="2">
  <advance width="641"/>
  <unicode hex="0070"/>
  <outline>
    <contour>
      <point x="115" y="-205" type="line"/>
      <point x="207" y="-205" type="line"/>
      <point x="207" y="316" type="line"/>
      <point x="115" y="316" type="line"/>
    </contour>
    <contour>
      <point x="55" y="-205" type="curve"/>
      <point x="289" y="-205" type="line"/>
      <point x="296" y="-205"/>
      <point x="299" y="-203"/>
      <point x="299" y="-196" type="curve"/>
      <point x="299" y="-186" type="line"/>
      <point x="299" y="-179"/>
      <point x="297" y="-176"/>
      <point x="290" y="-175" type="curve"/>
      <point x="228" y="-164" type="line"/>
      <point x="209" y="-161"/>
      <point x="207" y="-159"/>
      <point x="207" y="-141" type="curve"/>
      <point x="207" y="-25" type="line"/>
      <point x="115" y="-25" type="line"/>
      <point x="115" y="-140" type="line"/>
      <point x="115" y="-159"/>
      <point x="113" y="-161"/>
      <point x="95" y="-165" type="curve"/>
      <point x="56" y="-174" type="line"/>
      <point x="49" y="-175"/>
      <point x="46" y="-178"/>
      <point x="46" y="-185" type="curve"/>
      <point x="46" y="-195" type="line"/>
      <point x="46" y="-202"/>
      <point x="48" y="-205"/>
    </contour>
    <contour>
      <point x="192" y="114" type="curve"/>
      <point x="167" y="97" type="line"/>
      <point x="207" y="28"/>
      <point x="274" y="-9"/>
      <point x="358" y="-9" type="curve" smooth="yes"/>
      <point x="497" y="-9"/>
      <point x="588" y="95"/>
      <point x="588" y="254" type="curve" smooth="yes"/>
      <point x="588" y="406"/>
      <point x="512" y="500"/>
      <point x="389" y="500" type="curve" smooth="yes"/>
      <point x="314" y="500"/>
      <point x="238" y="449"/>
      <point x="191" y="366" type="curve"/>
      <point x="201" y="343" type="line"/>
      <point x="244" y="397"/>
      <point x="301" y="427"/>
      <point x="361" y="427" type="curve" smooth="yes"/>
      <point x="444" y="427"/>
      <point x="494" y="361"/>
      <point x="494" y="250" type="curve" smooth="yes"/>
      <point x="494" y="125"/>
      <point x="435" y="52"/>
      <point x="334" y="52" type="curve" smooth="yes"/>
      <point x="275" y="52"/>
      <point x="228" y="72"/>
    </contour>
    <contour>
      <point x="115" y="316" type="line"/>
      <point x="207" y="316" type="line"/>
      <point x="207" y="365" type="line"/>
      <point x="201" y="382" type="line"/>
      <point x="201" y="481" type="line"/>
      <point x="201" y="498"/>
      <point x="194" y="502"/>
      <point x="175" y="499" type="curve"/>
      <point x="48" y="480" type="line"/>
      <point x="41" y="478"/>
      <point x="38" y="476"/>
      <point x="38" y="469" type="curve"/>
      <point x="38" y="457" type="line"/>
      <point x="38" y="450"/>
      <point x="40" y="447"/>
      <point x="47" y="446" type="curve"/>
      <point x="133" y="432" type="line"/>
      <point x="115" y="462" type="line"/>
    </contour>
  </outline>
</glyph>
<glyph name="q" format="2">
  <advance width="612"/>
  <unicode hex="0071"/>
  <outline>
    <contour>
      <point x="524" y="-77" type="line"/>
      <point x="524" y="491" type="line"/>
      <point x="524" y="498"/>
      <point x="522" y="501"/>
      <point x="515" y="501" type="curve"/>
      <point x="494" y="501" type="line"/>
      <point x="487" y="501"/>
      <point x="483" y="499"/>
      <point x="480" y="493" type="curve"/>
      <point x="432" y="400" type="line"/>
      <point x="432" y="-77" type="line"/>
    </contour>
    <contour>
      <point x="449" y="377" type="curve"/>
      <point x="474" y="394" type="line"/>
      <point x="434" y="463"/>
      <point x="367" y="500"/>
      <point x="283" y="500" type="curve" smooth="yes"/>
      <point x="144" y="500"/>
      <point x="53" y="396"/>
      <point x="53" y="237" type="curve" smooth="yes"/>
      <point x="53" y="85"/>
      <point x="129" y="-9"/>
      <point x="252" y="-9" type="curve" smooth="yes"/>
      <point x="327" y="-9"/>
      <point x="403" y="42"/>
      <point x="450" y="125" type="curve"/>
      <point x="440" y="148" type="line"/>
      <point x="397" y="94"/>
      <point x="340" y="64"/>
      <point x="280" y="64" type="curve" smooth="yes"/>
      <point x="197" y="64"/>
      <point x="147" y="130"/>
      <point x="147" y="241" type="curve" smooth="yes"/>
      <point x="147" y="366"/>
      <point x="206" y="439"/>
      <point x="307" y="439" type="curve" smooth="yes"/>
      <point x="366" y="439"/>
      <point x="413" y="419"/>
    </contour>
    <contour>
      <point x="372" y="-205" type="curve"/>
      <point x="606" y="-205" type="line"/>
      <point x="613" y="-205"/>
      <point x="616" y="-203"/>
      <point x="616" y="-196" type="curve"/>
      <point x="616" y="-186" type="line"/>
      <point x="616" y="-179"/>
      <point x="614" y="-176"/>
      <point x="607" y="-175" type="curve"/>
      <point x="545" y="-164" type="line"/>
      <point x="526" y="-161"/>
      <point x="524" y="-159"/>
      <point x="524" y="-141" type="curve"/>
      <point x="524" y="-25" type="line"/>
      <point x="432" y="-25" type="line"/>
      <point x="432" y="-140" type="line"/>
      <point x="432" y="-159"/>
      <point x="430" y="-161"/>
      <point x="412" y="-165" type="curve"/>
      <point x="373" y="-174" type="line"/>
      <point x="366" y="-175"/>
      <point x="363" y="-178"/>
      <point x="363" y="-185" type="curve"/>
      <point x="363" y="-195" type="line"/>
      <point x="363" y="-202"/>
      <point x="365" y="-205"/>
    </contour>
  </outline>
</glyph>
<glyph name="r" format="2">
  <advance width="434"/>
  <unicode hex="0072"/>
  <anchor x="194" y="0" name="bottom"/>
  <anchor x="238" y="492" name="top"/>
  <outline>
    <contour>
      <point x="122" y="0" type="line"/>
      <point x="214" y="0" type="line"/>
      <point x="214" y="316" type="line"/>
      <point x="122" y="316" type="line"/>
    </contour>
    <contour>
      <point x="413" y="413" type="curve"/>
      <point x="413" y="490" type="line"/>
      <point x="413" y="496"/>
      <point x="401" y="500"/>
      <point x="379" y="500" type="curve" smooth="yes"/>
      <point x="303" y="500"/>
      <point x="223" y="418"/>
      <point x="201" y="350" type="curve"/>
      <point x="204" y="321" type="line"/>
      <point x="227" y="353"/>
      <point x="263" y="380"/>
      <point x="302" y="396" type="curve"/>
      <point x="318" y="402"/>
      <point x="331" y="404"/>
      <point x="347" y="404" type="curve"/>
      <point x="403" y="404" type="line"/>
      <point x="410" y="404"/>
      <point x="413" y="406"/>
    </contour>
    <contour>
      <point x="62" y="0" type="curve"/>
      <point x="296" y="0" type="line"/>
      <point x="303" y="0"/>
      <point x="306" y="2"/>
      <point x="306" y="9" type="curve"/>
      <point x="306" y="19" type="line"/>
      <point x="306" y="26"/>
      <point x="304" y="29"/>
      <point x="297" y="30" type="curve"/>
      <point x="235" y="41" type="line"/>
      <point x="216" y="44"/>
      <point x="214" y="46"/>
      <point x="214" y="64" type="curve"/>
      <point x="214" y="180" type="line"/>
      <point x="122" y="180" type="line"/>
      <point x="122" y="65" type="line"/>
      <point x="122" y="46"/>
      <point x="120" y="44"/>
      <point x="102" y="40" type="curve"/>
      <point x="63" y="31" type="line"/>
      <point x="56" y="30"/>
      <point x="53" y="27"/>
      <point x="53" y="20" type="curve"/>
      <point x="53" y="10" type="line"/>
      <point x="53" y="3"/>
      <point x="55" y="0"/>
    </contour>
    <contour>
      <point x="122" y="316" type="line"/>
      <point x="214" y="316" type="line"/>
      <point x="214" y="365" type="line"/>
      <point x="208" y="382" type="line"/>
      <point x="208" y="481" type="line"/>
      <point x="208" y="498"/>
      <point x="201" y="502"/>
      <point x="182" y="499" type="curve"/>
      <point x="55" y="480" type="line"/>
      <point x="48" y="478"/>
      <point x="45" y="476"/>
      <point x="45" y="469" type="curve"/>
      <point x="45" y="457" type="line"/>
      <point x="45" y="450"/>
      <point x="47" y="447"/>
      <point x="54" y="446" type="curve"/>
      <point x="140" y="432" type="line"/>
      <point x="122" y="462" type="line"/>
    </contour>
  </outline>
</glyph>
<glyph name="s" format="2">
  <advance width="509"/>
  <unicode hex="0073"/>
  <anchor x="254" y="0" name="bottom"/>
  <anchor x="254" y="492" name="top"/>
  <anchor x="174" y="492" name="top_acutedot"/>
  <outline>
    <contour>
      <point x="295" y="288" type="curve" smooth="yes"/>
      <point x="185" y="325"/>
      <point x="167" y="337"/>
      <point x="167" y="375" type="curve" smooth="yes"/>
      <point x="167" y="421"/>
      <point x="212" y="452"/>
      <point x="277" y="452" type="curve" smooth="yes"/>
      <point x="331" y="452"/>
      <point x="374" y="434"/>
      <point x="385" y="381" type="curve" smooth="yes"/>
      <point x="391" y="349" type="line"/>
      <point x="392" y="342"/>
      <point x="395" y="339"/>
      <point x="402" y="339" type="curve"/>
      <point x="419" y="340" type="line"/>
      <point x="426" y="341"/>
      <point x="429" y="343"/>
      <point x="429" y="350" type="curve"/>
      <point x="424" y="465" type="line"/>
      <point x="424" y="472"/>
      <point x="422" y="476"/>
      <point x="416" y="479" type="curve"/>
      <point x="392" y="489"/>
      <point x="336" y="502"/>
      <point x="277" y="502" type="curve" smooth="yes"/>
      <point x="156" y="502"/>
      <point x="74" y="444"/>
      <point x="74" y="359" type="curve" smooth="yes"/>
      <point x="74" y="289"/>
      <point x="108" y="259"/>
      <point x="245" y="210" type="curve" smooth="yes"/>
      <point x="341" y="177"/>
      <point x="367" y="159"/>
      <point x="367" y="124" type="curve" smooth="yes"/>
      <point x="367" y="73"/>
      <point x="322" y="44"/>
      <point x="244" y="44" type="curve" smooth="yes"/>
      <point x="163" y="44"/>
      <point x="131" y="70"/>
      <point x="116" y="122" type="curve" smooth="yes"/>
      <point x="103" y="168" type="line"/>
      <point x="101" y="175"/>
      <point x="98" y="178"/>
      <point x="91" y="177" type="curve"/>
      <point x="75" y="174" type="line"/>
      <point x="68" y="173"/>
      <point x="65" y="171"/>
      <point x="66" y="164" type="curve"/>
      <point x="75" y="35" type="line"/>
      <point x="76" y="28"/>
      <point x="78" y="24"/>
      <point x="84" y="21" type="curve"/>
      <point x="118" y="6"/>
      <point x="177" y="-9"/>
      <point x="245" y="-9" type="curve" smooth="yes"/>
      <point x="379" y="-9"/>
      <point x="461" y="50"/>
      <point x="461" y="146" type="curve" smooth="yes"/>
      <point x="461" y="212"/>
      <point x="421" y="246"/>
    </contour>
  </outline>
</glyph>
<glyph name="t" format="2">
  <advance width="396"/>
  <unicode hex="0074"/>
  <anchor x="234" y="0" name="bottom"/>
  <anchor x="198" y="263" name="center"/>
  <anchor x="168" y="544" name="top"/>
  <anchor x="307" y="492" name="topright"/>
  <outline>
    <contour>
      <point x="239" y="-7" type="curve" smooth="yes"/>
      <point x="280" y="-7"/>
      <point x="333" y="7"/>
      <point x="366" y="27" type="curve"/>
      <point x="371" y="31"/>
      <point x="374" y="35"/>
      <point x="373" y="42" type="curve"/>
      <point x="372" y="55" type="line"/>
      <point x="371" y="62"/>
      <point x="369" y="65"/>
      <point x="362" y="63" type="curve"/>
      <point x="335" y="56"/>
      <point x="312" y="54"/>
      <point x="291" y="54" type="curve" smooth="yes"/>
      <point x="222" y="54"/>
      <point x="193" y="81"/>
      <point x="193" y="148" type="curve" smooth="yes"/>
      <point x="193" y="598" type="line"/>
      <point x="193" y="605"/>
      <point x="191" y="608"/>
      <point x="184" y="608" type="curve"/>
      <point x="162" y="607"/>
      <point x="132" y="604"/>
      <point x="113" y="600" type="curve"/>
      <point x="106" y="598"/>
      <point x="103" y="595"/>
      <point x="103" y="588" type="curve"/>
      <point x="103" y="492" type="line"/>
      <point x="101" y="482" type="line"/>
      <point x="101" y="146" type="line" smooth="yes"/>
      <point x="101" y="44"/>
      <point x="147" y="-7"/>
    </contour>
    <contour>
      <point x="38" y="443" type="curve"/>
      <point x="366" y="443" type="line"/>
      <point x="373" y="443"/>
      <point x="376" y="445"/>
      <point x="378" y="452" type="curve"/>
      <point x="380" y="463"/>
      <point x="381" y="474"/>
      <point x="380" y="485" type="curve"/>
      <point x="380" y="492"/>
      <point x="378" y="495"/>
      <point x="371" y="495" type="curve"/>
      <point x="309" y="492" type="line"/>
      <point x="103" y="492" type="line"/>
      <point x="47" y="484" type="line"/>
      <point x="40" y="483"/>
      <point x="37" y="481"/>
      <point x="35" y="474" type="curve"/>
      <point x="31" y="453" type="line"/>
      <point x="30" y="446"/>
      <point x="31" y="443"/>
    </contour>
  </outline>
</glyph>
<glyph name="u" format="2">
  <advance width="659"/>
  <unicode hex="0075"/>
  <anchor x="331" y="0" name="bottom"/>
  <anchor x="517" y="9" name="ogonek"/>
  <anchor x="327" y="492" name="top"/>
  <anchor x="629" y="492" name="topright"/>
  <outline>
    <contour>
      <point x="549" y="162" type="line"/>
      <point x="457" y="162" type="line"/>
      <point x="457" y="129" type="line"/>
      <point x="460" y="120" type="line"/>
      <point x="460" y="6" type="line" smooth="yes"/>
      <point x="460" y="-5"/>
      <point x="466" y="-9"/>
      <point x="476" y="-8" type="curve" smooth="yes"/>
      <point x="615" y="5" type="line"/>
      <point x="622" y="6"/>
      <point x="625" y="8"/>
      <point x="625" y="15" type="curve"/>
      <point x="625" y="27" type="line"/>
      <point x="625" y="34"/>
      <point x="623" y="37"/>
      <point x="616" y="39" type="curve"/>
      <point x="530" y="59" type="line"/>
      <point x="549" y="28" type="line"/>
    </contour>
    <contour>
      <point x="249" y="-9" type="curve" smooth="yes"/>
      <point x="343" y="-9"/>
      <point x="431" y="48"/>
      <point x="479" y="125" type="curve"/>
      <point x="471" y="152" type="line"/>
      <point x="414" y="95"/>
      <point x="353" y="66"/>
      <point x="289" y="66" type="curve" smooth="yes"/>
      <point x="228" y="66"/>
      <point x="196" y="100"/>
      <point x="196" y="164" type="curve" smooth="yes"/>
      <point x="196" y="316" type="line"/>
      <point x="104" y="316" type="line"/>
      <point x="104" y="154" type="line" smooth="yes"/>
      <point x="104" y="45"/>
      <point x="152" y="-9"/>
    </contour>
    <contour>
      <point x="457" y="162" type="line"/>
      <point x="549" y="162" type="line"/>
      <point x="549" y="316" type="line"/>
      <point x="457" y="316" type="line"/>
    </contour>
    <contour>
      <point x="104" y="316" type="line"/>
      <point x="196" y="316" type="line"/>
      <point x="196" y="481" type="line"/>
      <point x="196" y="498"/>
      <point x="189" y="502"/>
      <point x="170" y="499" type="curve"/>
      <point x="37" y="479" type="line"/>
      <point x="30" y="478"/>
      <point x="27" y="476"/>
      <point x="27" y="469" type="curve"/>
      <point x="27" y="457" type="line"/>
      <point x="27" y="450"/>
      <point x="29" y="447"/>
      <point x="36" y="446" type="curve"/>
      <point x="122" y="432" type="line"/>
      <point x="104" y="462" type="line"/>
    </contour>
    <contour>
      <point x="457" y="316" type="line"/>
      <point x="549" y="316" type="line"/>
      <point x="549" y="481" type="line"/>
      <point x="549" y="498"/>
      <point x="542" y="502"/>
      <point x="523" y="499" type="curve"/>
      <point x="390" y="479" type="line"/>
      <point x="383" y="478"/>
      <point x="380" y="476"/>
      <point x="380" y="469" type="curve"/>
      <point x="380" y="457" type="line"/>
      <point x="380" y="450"/>
      <point x="382" y="447"/>
      <point x="389" y="446" type="curve"/>
      <point x="475" y="432" type="line"/>
      <point x="457" y="462" type="line"/>
    </contour>
  </outline>
</glyph>
<glyph name="v" format="2">
  <advance width="551"/>
  <unicode hex="0076"/>
  <outline>
    <contour>
      <point x="269" y="-3" type="curve"/>
      <point x="296" y="-3" type="line"/>
      <point x="303" y="-3"/>
      <point x="307" y="-1"/>
      <point x="310" y="5" type="curve"/>
      <point x="503" y="430" type="line"/>
      <point x="510" y="446"/>
      <point x="519" y="453"/>
      <point x="535" y="456" type="curve"/>
      <point x="565" y="460" type="line"/>
      <point x="572" y="462"/>
      <point x="575" y="464"/>
      <point x="575" y="471" type="curve"/>
      <point x="575" y="482" type="line"/>
      <point x="575" y="489"/>
      <point x="573" y="492"/>
      <point x="566" y="492" type="curve"/>
      <point x="359" y="492" type="line"/>
      <point x="352" y="492"/>
      <point x="349" y="490"/>
      <point x="349" y="483" type="curve"/>
      <point x="349" y="472" type="line"/>
      <point x="349" y="465"/>
      <point x="351" y="462"/>
      <point x="358" y="461" type="curve"/>
      <point x="397" y="458" type="line"/>
      <point x="437" y="454"/>
      <point x="444" y="445"/>
      <point x="428" y="407" type="curve"/>
      <point x="263" y="18" type="line"/>
      <point x="319" y="65" type="line"/>
      <point x="299" y="113"/>
      <point x="279" y="159"/>
      <point x="257" y="207" type="curve" smooth="yes"/>
      <point x="164" y="406" type="line"/>
      <point x="147" y="442"/>
      <point x="151" y="453"/>
      <point x="192" y="458" type="curve"/>
      <point x="221" y="461" type="line"/>
      <point x="228" y="462"/>
      <point x="231" y="464"/>
      <point x="231" y="471" type="curve"/>
      <point x="231" y="482" type="line"/>
      <point x="231" y="489"/>
      <point x="229" y="492"/>
      <point x="222" y="492" type="curve"/>
      <point x="-14" y="492" type="line"/>
      <point x="-21" y="492"/>
      <point x="-24" y="490"/>
      <point x="-24" y="483" type="curve"/>
      <point x="-24" y="472" type="line"/>
      <point x="-24" y="465"/>
      <point x="-22" y="462"/>
      <point x="-15" y="461" type="curve"/>
      <point x="10" y="457" type="line"/>
      <point x="27" y="455"/>
      <point x="37" y="449"/>
      <point x="44" y="434" type="curve"/>
      <point x="256" y="6" type="line"/>
      <point x="259" y="0"/>
      <point x="262" y="-3"/>
    </contour>
  </outline>
</glyph>
<glyph name="w" format="2">
  <advance width="787"/>
  <unicode hex="0077"/>
  <anchor x="411" y="0" name="bottom"/>
  <anchor x="411" y="492" name="top"/>
  <outline>
    <contour>
      <point x="233" y="-3" type="curve"/>
      <point x="260" y="-3" type="line"/>
      <point x="267" y="-3"/>
      <point x="271" y="-1"/>
      <point x="273" y="5" type="curve"/>
      <point x="417" y="419" type="line"/>
      <point x="382" y="401" type="line"/>
      <point x="529" y="6" type="line"/>
      <point x="531" y="0"/>
      <point x="534" y="-3"/>
      <point x="541" y="-3" type="curve"/>
      <point x="568" y="-3" type="line"/>
      <point x="575" y="-3"/>
      <point x="579" y="-1"/>
      <point x="581" y="5" type="curve"/>
      <point x="738" y="428" type="line"/>
      <point x="744" y="444"/>
      <point x="752" y="452"/>
      <point x="768" y="455" type="curve"/>
      <point x="801" y="460" type="line"/>
      <point x="808" y="461"/>
      <point x="811" y="464"/>
      <point x="811" y="471" type="curve"/>
      <point x="811" y="482" type="line"/>
      <point x="811" y="489"/>
      <point x="809" y="492"/>
      <point x="802" y="492" type="curve"/>
      <point x="596" y="492" type="line"/>
      <point x="589" y="492"/>
      <point x="586" y="490"/>
      <point x="586" y="483" type="curve"/>
      <point x="586" y="472" type="line"/>
      <point x="586" y="465"/>
      <point x="588" y="462"/>
      <point x="595" y="461" type="curve"/>
      <point x="631" y="458" type="line"/>
      <point x="671" y="455"/>
      <point x="679" y="445"/>
      <point x="666" y="407" type="curve"/>
      <point x="535" y="18" type="line"/>
      <point x="587" y="69" type="line"/>
      <point x="573" y="115"/>
      <point x="558" y="162"/>
      <point x="541" y="208" type="curve" smooth="yes"/>
      <point x="439" y="483" type="line"/>
      <point x="437" y="489"/>
      <point x="434" y="492"/>
      <point x="427" y="492" type="curve"/>
      <point x="399" y="492" type="line"/>
      <point x="392" y="492"/>
      <point x="388" y="490"/>
      <point x="386" y="483" type="curve"/>
      <point x="228" y="18" type="line"/>
      <point x="282" y="65" type="line"/>
      <point x="267" y="113"/>
      <point x="251" y="160"/>
      <point x="234" y="208" type="curve" smooth="yes"/>
      <point x="162" y="404" type="line"/>
      <point x="149" y="442"/>
      <point x="154" y="453"/>
      <point x="195" y="458" type="curve"/>
      <point x="221" y="461" type="line"/>
      <point x="228" y="462"/>
      <point x="231" y="464"/>
      <point x="231" y="471" type="curve"/>
      <point x="231" y="482" type="line"/>
      <point x="231" y="489"/>
      <point x="229" y="492"/>
      <point x="222" y="492" type="curve"/>
      <point x="-14" y="492" type="line"/>
      <point x="-21" y="492"/>
      <point x="-24" y="490"/>
      <point x="-24" y="483" type="curve"/>
      <point x="-24" y="472" type="line"/>
      <point x="-24" y="465"/>
      <point x="-22" y="462"/>
      <point x="-15" y="461" type="curve"/>
      <point x="15" y="457" type="line"/>
      <point x="32" y="455"/>
      <point x="41" y="448"/>
      <point x="47" y="434" type="curve"/>
      <point x="220" y="6" type="line"/>
      <point x="223" y="0"/>
      <point x="226" y="-3"/>
    </contour>
  </outline>
</glyph>
<glyph name="x" format="2">
  <advance width="563"/>
  <unicode hex="0078"/>
  <outline>
    <contour>
      <point x="334" y="0" type="curve"/>
      <point x="555" y="0" type="line"/>
      <point x="562" y="0"/>
      <point x="565" y="2"/>
      <point x="565" y="9" type="curve"/>
      <point x="565" y="19" type="line"/>
      <point x="565" y="26"/>
      <point x="563" y="30"/>
      <point x="556" y="32" type="curve"/>
      <point x="538" y="37" type="line"/>
      <point x="522" y="42"/>
      <point x="511" y="49"/>
      <point x="501" y="61" type="curve"/>
      <point x="204" y="410" type="line"/>
      <point x="178" y="441"/>
      <point x="180" y="451"/>
      <point x="220" y="459" type="curve"/>
      <point x="233" y="461" type="line"/>
      <point x="240" y="462"/>
      <point x="243" y="465"/>
      <point x="243" y="472" type="curve"/>
      <point x="243" y="482" type="line"/>
      <point x="243" y="489"/>
      <point x="241" y="492"/>
      <point x="234" y="492" type="curve"/>
      <point x="15" y="492" type="line"/>
      <point x="8" y="492"/>
      <point x="5" y="490"/>
      <point x="5" y="483" type="curve"/>
      <point x="5" y="473" type="line"/>
      <point x="5" y="466"/>
      <point x="7" y="462"/>
      <point x="14" y="460" type="curve"/>
      <point x="33" y="455" type="line"/>
      <point x="49" y="450"/>
      <point x="60" y="443"/>
      <point x="70" y="431" type="curve"/>
      <point x="366" y="82" type="line"/>
      <point x="392" y="51"/>
      <point x="390" y="41"/>
      <point x="350" y="34" type="curve"/>
      <point x="335" y="31" type="line"/>
      <point x="328" y="30"/>
      <point x="325" y="27"/>
      <point x="325" y="20" type="curve"/>
      <point x="325" y="10" type="line"/>
      <point x="325" y="3"/>
      <point x="327" y="0"/>
    </contour>
    <contour>
      <point x="8" y="0" type="curve"/>
      <point x="195" y="0" type="line"/>
      <point x="202" y="0"/>
      <point x="205" y="2"/>
      <point x="205" y="9" type="curve"/>
      <point x="205" y="19" type="line"/>
      <point x="205" y="26"/>
      <point x="203" y="29"/>
      <point x="196" y="31" type="curve"/>
      <point x="184" y="33" type="line"/>
      <point x="145" y="41"/>
      <point x="140" y="50"/>
      <point x="166" y="82" type="curve"/>
      <point x="308" y="255" type="line"/>
      <point x="245" y="255" type="line"/>
      <point x="79" y="62" type="line"/>
      <point x="68" y="49"/>
      <point x="57" y="43"/>
      <point x="42" y="39" type="curve"/>
      <point x="9" y="31" type="line"/>
      <point x="2" y="30"/>
      <point x="-1" y="27"/>
      <point x="-1" y="20" type="curve"/>
      <point x="-1" y="10" type="line"/>
      <point x="-1" y="3"/>
      <point x="1" y="0"/>
    </contour>
    <contour>
      <point x="385" y="409" type="curve"/>
      <point x="255" y="252" type="line"/>
      <point x="318" y="252" type="line"/>
      <point x="474" y="430" type="line"/>
      <point x="485" y="443"/>
      <point x="496" y="449"/>
      <point x="511" y="453" type="curve"/>
      <point x="543" y="461" type="line"/>
      <point x="550" y="462"/>
      <point x="553" y="465"/>
      <point x="553" y="472" type="curve"/>
      <point x="553" y="482" type="line"/>
      <point x="553" y="489"/>
      <point x="551" y="492"/>
      <point x="544" y="492" type="curve"/>
      <point x="356" y="492" type="line"/>
      <point x="349" y="492"/>
      <point x="346" y="490"/>
      <point x="346" y="483" type="curve"/>
      <point x="346" y="473" type="line"/>
      <point x="346" y="466"/>
      <point x="348" y="463"/>
      <point x="355" y="461" type="curve"/>
      <point x="367" y="459" type="line"/>
      <point x="406" y="450"/>
      <point x="411" y="441"/>
    </contour>
  </outline>
</glyph>
<glyph name="y" format="2">
  <advance width="535"/>
  <unicode hex="0079"/>
  <anchor x="373" y="0" name="bottom"/>
  <anchor x="285" y="490" name="top"/>
  <outline>
    <contour>
      <point x="119" y="-213" type="curve" smooth="yes"/>
      <point x="181" y="-213"/>
      <point x="219" y="-177"/>
      <point x="265" y="-75" type="curve" smooth="yes"/>
      <point x="495" y="434" type="line"/>
      <point x="502" y="450"/>
      <point x="511" y="457"/>
      <point x="527" y="458" type="curve"/>
      <point x="559" y="461" type="line"/>
      <point x="566" y="462"/>
      <point x="569" y="464"/>
      <point x="569" y="471" type="curve"/>
      <point x="569" y="482" type="line"/>
      <point x="569" y="489"/>
      <point x="567" y="492"/>
      <point x="560" y="492" type="curve"/>
      <point x="352" y="492" type="line"/>
      <point x="345" y="492"/>
      <point x="342" y="490"/>
      <point x="342" y="483" type="curve"/>
      <point x="342" y="472" type="line"/>
      <point x="342" y="465"/>
      <point x="344" y="462"/>
      <point x="351" y="461" type="curve"/>
      <point x="388" y="459" type="line"/>
      <point x="428" y="457"/>
      <point x="435" y="448"/>
      <point x="419" y="410" type="curve"/>
      <point x="216" y="-55" type="line" smooth="yes"/>
      <point x="185" y="-125"/>
      <point x="168" y="-134"/>
      <point x="135" y="-134" type="curve" smooth="yes"/>
      <point x="116" y="-134"/>
      <point x="98" y="-128"/>
      <point x="81" y="-121" type="curve"/>
      <point x="75" y="-118"/>
      <point x="71" y="-119"/>
      <point x="67" y="-125" type="curve"/>
      <point x="61" y="-137"/>
      <point x="56" y="-149"/>
      <point x="56" y="-165" type="curve" smooth="yes"/>
      <point x="56" y="-192"/>
      <point x="76" y="-213"/>
    </contour>
    <contour>
      <point x="38" y="436" type="curve"/>
      <point x="261" y="-6" type="line"/>
      <point x="314" y="76" type="line"/>
      <point x="157" y="410" type="line"/>
      <point x="140" y="446"/>
      <point x="144" y="457"/>
      <point x="185" y="459" type="curve"/>
      <point x="225" y="461" type="line"/>
      <point x="232" y="462"/>
      <point x="235" y="464"/>
      <point x="235" y="471" type="curve"/>
      <point x="235" y="482" type="line"/>
      <point x="235" y="489"/>
      <point x="233" y="492"/>
      <point x="226" y="492" type="curve"/>
      <point x="-25" y="492" type="line"/>
      <point x="-32" y="492"/>
      <point x="-35" y="490"/>
      <point x="-35" y="483" type="curve"/>
      <point x="-35" y="472" type="line"/>
      <point x="-35" y="465"/>
      <point x="-33" y="462"/>
      <point x="-26" y="461" type="curve"/>
      <point x="4" y="458" type="line"/>
      <point x="21" y="457"/>
      <point x="31" y="451"/>
    </contour>
  </outline>
</glyph>
<glyph name="z" format="2">
  <advance width="525"/>
  <unicode hex="007A"/>
  <anchor x="261" y="0" name="bottom"/>
  <anchor x="261" y="246" name="center"/>
  <anchor x="261" y="492" name="top"/>
  <outline>
    <contour>
      <point x="434" y="154" type="curve"/>
      <point x="407" y="73" type="line"/>
      <point x="402" y="57"/>
      <point x="394" y="50"/>
      <point x="378" y="50" type="curve"/>
      <point x="143" y="50" type="line"/>
      <point x="156" y="30" type="line"/>
      <point x="465" y="459" type="line"/>
      <point x="469" y="465"/>
      <point x="471" y="469"/>
      <point x="469" y="476" type="curve"/>
      <point x="468" y="482" type="line"/>
      <point x="467" y="489"/>
      <point x="464" y="492"/>
      <point x="457" y="492" type="curve"/>
      <point x="88" y="492" type="line"/>
      <point x="81" y="492"/>
      <point x="78" y="490"/>
      <point x="78" y="483" type="curve"/>
      <point x="76" y="351" type="line"/>
      <point x="76" y="344"/>
      <point x="78" y="341"/>
      <point x="85" y="340" type="curve"/>
      <point x="95" y="340" type="line"/>
      <point x="102" y="339"/>
      <point x="106" y="341"/>
      <point x="108" y="347" type="curve"/>
      <point x="133" y="418" type="line"/>
      <point x="139" y="434"/>
      <point x="147" y="441"/>
      <point x="163" y="441" type="curve"/>
      <point x="366" y="441" type="line"/>
      <point x="363" y="462" type="line"/>
      <point x="55" y="32" type="line"/>
      <point x="51" y="26"/>
      <point x="49" y="22"/>
      <point x="50" y="15" type="curve"/>
      <point x="51" y="9" type="line"/>
      <point x="53" y="2"/>
      <point x="55" y="-1"/>
      <point x="62" y="-1" type="curve"/>
      <point x="454" y="0" type="line"/>
      <point x="461" y="0"/>
      <point x="464" y="2"/>
      <point x="464" y="9" type="curve"/>
      <point x="465" y="150" type="line"/>
      <point x="465" y="157"/>
      <point x="463" y="160"/>
      <point x="456" y="161" type="curve"/>
      <point x="447" y="162" type="line"/>
      <point x="440" y="163"/>
      <point x="436" y="161"/>
    </contour>
  </outline>
</glyph>
<glyph name="braceleft" format="2">
  <advance width="451"/>
  <unicode hex="007B"/>
  <outline>
    <contour>
      <point x="362" y="-121" type="curve"/>
      <point x="366" y="-108" type="line"/>
      <point x="367" y="-101"/>
      <point x="366" y="-98"/>
      <point x="359" y="-97" type="curve"/>
      <point x="271" y="-82"/>
      <point x="247" y="-57"/>
      <point x="247" y="16" type="curve" smooth="yes"/>
      <point x="247" y="54"/>
      <point x="253" y="153"/>
      <point x="253" y="224" type="curve" smooth="yes"/>
      <point x="253" y="300"/>
      <point x="186" y="353"/>
      <point x="100" y="353" type="curve"/>
      <point x="100" y="347" type="line"/>
      <point x="186" y="347"/>
      <point x="253" y="400"/>
      <point x="253" y="477" type="curve" smooth="yes"/>
      <point x="253" y="549"/>
      <point x="247" y="648"/>
      <point x="247" y="686" type="curve" smooth="yes"/>
      <point x="247" y="760"/>
      <point x="271" y="785"/>
      <point x="358" y="799" type="curve"/>
      <point x="365" y="801"/>
      <point x="368" y="803"/>
      <point x="366" y="810" type="curve"/>
      <point x="362" y="823" type="line"/>
      <point x="361" y="830"/>
      <point x="358" y="833"/>
      <point x="351" y="832" type="curve"/>
      <point x="216" y="821"/>
      <point x="161" y="780"/>
      <point x="161" y="686" type="curve" smooth="yes"/>
      <point x="161" y="648"/>
      <point x="168" y="549"/>
      <point x="168" y="477" type="curve" smooth="yes"/>
      <point x="168" y="428"/>
      <point x="140" y="376"/>
      <point x="44" y="372" type="curve" smooth="yes"/>
      <point x="33" y="372" type="line"/>
      <point x="26" y="372"/>
      <point x="23" y="370"/>
      <point x="23" y="363" type="curve"/>
      <point x="23" y="339" type="line"/>
      <point x="23" y="332"/>
      <point x="25" y="329"/>
      <point x="32" y="329" type="curve"/>
      <point x="44" y="328" type="line" smooth="yes"/>
      <point x="140" y="325"/>
      <point x="168" y="274"/>
      <point x="168" y="224" type="curve" smooth="yes"/>
      <point x="168" y="153"/>
      <point x="161" y="54"/>
      <point x="161" y="16" type="curve" smooth="yes"/>
      <point x="161" y="-77"/>
      <point x="215" y="-118"/>
      <point x="350" y="-129" type="curve"/>
      <point x="357" y="-130"/>
      <point x="360" y="-128"/>
    </contour>
  </outline>
</glyph>
<glyph name="bar" format="2">
  <advance width="490"/>
  <unicode hex="007C"/>
  <outline>
    <contour>
      <point x="213" y="-199" type="curve"/>
      <point x="257" y="-195" type="line"/>
      <point x="276" y="-193"/>
      <point x="279" y="-190"/>
      <point x="279" y="-157" type="curve"/>
      <point x="279" y="735" type="line"/>
      <point x="286" y="795" type="line"/>
      <point x="287" y="802"/>
      <point x="284" y="804"/>
      <point x="277" y="804" type="curve"/>
      <point x="256" y="803"/>
      <point x="234" y="798"/>
      <point x="215" y="793" type="curve"/>
      <point x="205" y="790"/>
      <point x="204" y="789"/>
      <point x="204" y="776" type="curve"/>
      <point x="204" y="-190" type="line"/>
      <point x="204" y="-197"/>
      <point x="206" y="-200"/>
    </contour>
  </outline>
</glyph>
<glyph name="asciitilde" format="2">
  <advance width="670"/>
  <unicode hex="007E"/>
  <outline>
    <contour>
      <point x="55" y="199" type="curve"/>
      <point x="78" y="190" type="line"/>
      <point x="84" y="188"/>
      <point x="87" y="190"/>
      <point x="91" y="196" type="curve"/>
      <point x="117" y="244"/>
      <point x="154" y="286"/>
      <point x="216" y="286" type="curve" smooth="yes"/>
      <point x="298" y="286"/>
      <point x="346" y="195"/>
      <point x="444" y="195" type="curve" smooth="yes"/>
      <point x="539" y="195"/>
      <point x="588" y="276"/>
      <point x="618" y="340" type="curve"/>
      <point x="621" y="346"/>
      <point x="620" y="350"/>
      <point x="614" y="352" type="curve"/>
      <point x="592" y="360" type="line"/>
      <point x="586" y="362"/>
      <point x="582" y="361"/>
      <point x="578" y="355" type="curve"/>
      <point x="549" y="306"/>
      <point x="515" y="265"/>
      <point x="451" y="265" type="curve" smooth="yes"/>
      <point x="369" y="265"/>
      <point x="322" y="357"/>
      <point x="223" y="357" type="curve" smooth="yes"/>
      <point x="130" y="357"/>
      <point x="78" y="275"/>
      <point x="50" y="211" type="curve"/>
      <point x="47" y="205"/>
      <point x="49" y="202"/>
    </contour>
  </outline>
</glyph>
